<?xml version="1.0" encoding="UTF-8"?>
<svg version="1.1" xmlns="http://www.w3.org/2000/svg" width="1024" height="1024" viewBox="0 0 1024 1024">
<path d="M0 0 C5.42744146 5.18296212 10.08845832 11.02909731 13 18 C13 18.99 13 19.98 13 21 C13.66 21.33 14.32 21.66 15 22 C15.52877808 24.83259583 15.52877808 24.83259583 15.92529297 28.69067383 C15.99997425 29.39373594 16.07465553 30.09679806 16.15159988 30.82116508 C16.39934637 33.17809583 16.63333293 35.53618459 16.8671875 37.89453125 C17.03928569 39.5623904 17.2120586 41.23018006 17.38546753 42.89790344 C17.93917898 48.26375339 18.47210786 53.6315552 19 59 C19.08675491 59.88151482 19.17350983 60.76302963 19.26289368 61.67125702 C20.22123825 71.42862792 21.16112174 81.18778034 22.09765625 90.94726562 C22.22437651 92.26760709 22.22437651 92.26760709 22.35365677 93.61462212 C22.78994405 98.16760858 23.2228416 102.72088842 23.65087891 107.2746582 C24.07579154 111.79193797 24.50926686 116.30832366 24.94854355 120.82422829 C25.11204312 122.52203545 25.27231448 124.22015682 25.42923355 125.91858482 C25.64536832 128.25477698 25.87237693 130.58966642 26.10205078 132.92456055 C26.16338196 133.61665115 26.22471313 134.30874176 26.28790283 135.02180481 C26.63391195 138.94164176 26.63391195 138.94164176 29 142 C28.34 142 27.68 142 27 142 C27.18006592 143.61104614 27.18006592 143.61104614 27.36376953 145.25463867 C30.09782403 169.78477219 32.67895226 194.32887481 35.10951996 218.89081192 C35.31218643 220.93433819 35.51617682 222.97772842 35.72052002 225.02108765 C36.10582562 228.87691151 36.48498016 232.73332602 36.86328125 236.58984375 C37.03636055 238.3183255 37.03636055 238.3183255 37.2129364 240.08172607 C37.73024528 245.41492179 38.13973755 250.64147329 38 256 C39.1149585 256.11931885 40.22991699 256.2386377 41.37866211 256.36157227 C46.31606034 256.98132852 51.10256352 258.0714748 55.94140625 259.21484375 C56.86791489 259.4306459 57.79442352 259.64644806 58.74900818 259.86878967 C60.69664883 260.32327574 62.64383267 260.77972342 64.59057617 261.23803711 C67.55609223 261.93599189 70.52301495 262.62768596 73.49023438 263.31835938 C75.39071067 263.76265452 77.29110417 264.20730404 79.19140625 264.65234375 C80.07075333 264.85762192 80.9501004 265.06290009 81.85609436 265.2743988 C85.57497098 266.15150484 89.26788782 267.05484721 92.93359375 268.13452148 C95.93889315 268.98275288 98.33168957 269.2100907 101.4375 269.125 C102.30246094 269.10695313 103.16742187 269.08890625 104.05859375 269.0703125 C104.69925781 269.04710937 105.33992188 269.02390625 106 269 C105.67 269.66 105.34 270.32 105 271 C112.06082022 272.67637852 119.12269832 274.34824426 126.18530273 276.01708984 C128.58398176 276.58442902 130.98242366 277.15277182 133.38061523 277.72216797 C136.84295631 278.54403318 140.30615579 279.36219362 143.76953125 280.1796875 C144.82831985 280.43185028 145.88710846 280.68401306 146.97798157 280.94381714 C159.84229948 284.20650541 159.84229948 284.20650541 173 285 C173 285.66 173 286.32 173 287 C174.14275391 287.43699219 174.14275391 287.43699219 175.30859375 287.8828125 C190.09575087 293.75336926 199.97854138 301.41521111 206.8125 316.0859375 C211.38661696 327.31057977 211.05314349 338.62224719 207 350 C203.31080877 357.89077014 198.23123281 364.38876615 192.578125 370.9609375 C189.90510425 374.11186195 187.36421686 377.32865831 184.875 380.625 C184.12992188 381.60726563 183.38484375 382.58953125 182.6171875 383.6015625 C180.81364823 385.79425768 180.81364823 385.79425768 181 388 C179.89058756 389.10941244 178.77654465 390.21443986 177.64453125 391.30078125 C171.18533506 397.40990787 171.18533506 397.40990787 168 405 C166.35219672 406.68531894 164.68201578 408.34882513 163 410 C161.52845 411.80611682 160.09329945 413.64224726 158.6875 415.5 C158.27290527 416.04551514 157.85831055 416.59103027 157.43115234 417.15307617 C156.48796597 418.39440392 155.54633241 419.63691251 154.60595703 420.88037109 C152.81511216 423.24402496 151.01554851 425.60088074 149.21484375 427.95703125 C141.57203538 437.96127262 133.97313294 447.99684788 126.43554688 458.08056641 C124.46270229 460.71840724 122.48607656 463.35340334 120.50927734 465.98828125 C119.00316455 467.99578197 117.49767531 470.00374931 115.9921875 472.01171875 C114.02040993 474.64096932 112.04630848 477.26844975 110.0703125 479.89453125 C104.75546949 486.96242378 99.48129974 494.05751936 94.25 501.1875 C89.16067131 508.12297166 83.98103196 514.98337055 78.75 521.8125 C73.51831251 528.64468715 68.40956962 535.53382698 63.45703125 542.5703125 C60.04047099 547.38916033 56.44288193 552.07687635 52.84472656 556.76098633 C52.35842773 557.40060303 51.87212891 558.04021973 51.37109375 558.69921875 C50.7203186 559.54746216 50.7203186 559.54746216 50.05639648 560.4128418 C48.80846002 562.13729027 48.80846002 562.13729027 48 565 C46.84384736 566.14554573 45.68482899 567.28834969 44.51123047 568.41601562 C41.34426354 571.7354472 38.75555061 575.54524362 36.0625 579.25 C35.46759766 580.05824219 34.87269531 580.86648438 34.25976562 581.69921875 C31.38231753 585.63015877 28.59206544 589.58937663 25.93359375 593.671875 C23.68437715 597.08688274 21.24152465 600.14400673 18.53613281 603.20361328 C15.61125318 606.62403038 13.01951283 610.29905627 10.375 613.9375 C9.13339226 615.63453891 7.89119551 617.33114701 6.6484375 619.02734375 C6.03323242 619.86765137 5.41802734 620.70795898 4.78417969 621.57373047 C2.21453486 625.068138 -0.38999482 628.53569127 -3 632 C-7.97338073 638.60815711 -12.88394063 645.2610325 -17.7824707 651.92480469 C-22.04434479 657.71714054 -26.34803363 663.47649864 -30.671875 669.22265625 C-33.98034213 673.62512318 -37.25102516 678.05348263 -40.5 682.5 C-45.79430038 689.74171704 -51.15655308 696.92992864 -56.56542969 704.08642578 C-57.94783808 705.93042118 -59.30825387 707.78873973 -60.6640625 709.65234375 C-69.78267103 722.06839202 -81.39655277 731.26415617 -97 734 C-99.96521344 734.27808288 -102.89796546 734.33481899 -105.875 734.3125 C-107.06234741 734.30404053 -107.06234741 734.30404053 -108.27368164 734.29541016 C-114.27559882 734.1709734 -119.47950401 733.48704939 -125 731 C-125.89976562 730.5978125 -126.79953125 730.195625 -127.7265625 729.78125 C-133.98579628 726.67749771 -138.52141169 722.90962842 -143.22265625 717.7578125 C-144.82037235 715.76560354 -144.82037235 715.76560354 -147 716 C-147.10441406 715.47148438 -147.20882812 714.94296875 -147.31640625 714.3984375 C-148.20074079 711.29568661 -149.5495525 708.53663559 -150.9375 705.625 C-152.91826316 701.46880407 -154.61995587 697.39335149 -156 693 C-156.226875 692.34 -156.45375 691.68 -156.6875 691 C-157.12530873 688.19802412 -156.56392282 685.75695599 -156 683 C-156.99 683 -157.98 683 -159 683 C-158.81590576 681.85418457 -158.63181152 680.70836914 -158.44213867 679.52783203 C-157.88664842 675.04515061 -158.26378981 671.00242996 -158.92578125 666.5546875 C-159.03343307 665.7811795 -159.1410849 665.00767151 -159.2519989 664.21072388 C-159.48003491 662.58818554 -159.7130781 660.96634366 -159.95092773 659.34521484 C-160.31231541 656.87626112 -160.65639639 654.40534792 -160.99804688 651.93359375 C-161.22294389 650.34881404 -161.44882198 648.76417318 -161.67578125 647.1796875 C-161.77796463 646.44829559 -161.88014801 645.71690369 -161.98542786 644.96334839 C-162.60700006 640.77975586 -163.6591344 636.99864656 -165 633 C-165.31884766 630.39111328 -165.31884766 630.39111328 -165.4140625 627.8203125 C-165.45273437 626.8921875 -165.49140625 625.9640625 -165.53125 625.0078125 C-165.5621875 624.05648437 -165.593125 623.10515625 -165.625 622.125 C-165.68300781 620.66320312 -165.68300781 620.66320312 -165.7421875 619.171875 C-165.83593033 616.7814328 -165.9216383 614.39098756 -166 612 C-166.66 611.67 -167.32 611.34 -168 611 C-168.28112793 608.80828857 -168.28112793 608.80828857 -168.38867188 605.65917969 C-169.09793921 593.5071425 -171.06097846 581.49500224 -172.78125 569.453125 C-173.15935287 566.78760671 -173.53621714 564.12191355 -173.91320801 561.45623779 C-174.70000246 555.89840278 -175.49064203 550.34112542 -176.28369141 544.78417969 C-177.20044269 538.36013565 -178.11119736 531.9352628 -179.01879358 525.5099194 C-179.89490942 519.30829821 -180.77498812 513.10724586 -181.65696716 506.90645599 C-182.03112527 504.27346199 -182.40430634 501.64032896 -182.77650452 499.00705719 C-183.29482319 495.34437318 -183.81766294 491.68236353 -184.34179688 488.02050781 C-184.49559311 486.92760437 -184.64938934 485.83470093 -184.80784607 484.7086792 C-184.95081619 483.71646362 -185.09378632 482.72424805 -185.24108887 481.70196533 C-185.3642321 480.83707111 -185.48737534 479.9721769 -185.61425018 479.08107376 C-185.9101666 476.94907664 -185.9101666 476.94907664 -187 475 C-187 473.68 -187 472.36 -187 471 C-195.73709284 469.0945423 -204.47449159 467.19049505 -213.21226597 465.28816509 C-217.27113318 464.40445104 -221.32990005 463.52028191 -225.38842773 462.63500977 C-229.31746808 461.77800086 -233.24678484 460.92226959 -237.17628288 460.06736183 C-238.66279609 459.74373102 -240.14921523 459.41966778 -241.63553047 459.09512901 C-245.75476012 458.19585353 -249.87550199 457.30433872 -253.9993782 456.42660141 C-255.35357105 456.1378409 -256.70732858 455.84703256 -258.06068039 455.55435562 C-260.071452 455.12112175 -262.08406189 454.69767865 -264.09741211 454.27661133 C-265.25897324 454.03042557 -266.42053436 453.78423981 -267.61729431 453.53059387 C-271.05614564 452.89490811 -271.05614564 452.89490811 -274.80641174 453.04521179 C-278 453 -278 453 -280 451 C-282.1894648 450.38649958 -284.40231857 449.85440188 -286.625 449.375 C-287.81351562 449.11460937 -289.00203125 448.85421875 -290.2265625 448.5859375 C-291.59941406 448.29589844 -291.59941406 448.29589844 -293 448 C-293.33 448.66 -293.66 449.32 -294 450 C-294 449.01 -294 448.02 -294 447 C-294.54785156 446.96551758 -295.09570312 446.93103516 -295.66015625 446.89550781 C-302.93359335 446.31304151 -309.92351595 444.86609094 -317.02246094 443.20849609 C-318.99387503 442.75142009 -320.96913125 442.31484301 -322.9453125 441.87890625 C-333.24579387 439.49626965 -341.86273505 436.27590044 -349.9375 429.375 C-350.83339844 428.61960937 -351.72929687 427.86421875 -352.65234375 427.0859375 C-355.92493938 424.17817367 -358.17713104 421.98752585 -360 418 C-360.53625 416.9275 -361.0725 415.855 -361.625 414.75 C-362.07875 413.8425 -362.5325 412.935 -363 412 C-363.66 412 -364.32 412 -365 412 C-365.13921875 410.86433594 -365.2784375 409.72867187 -365.421875 408.55859375 C-365.79327499 405.56566298 -366.20346143 402.58162883 -366.640625 399.59765625 C-368.73317306 384.56206852 -368.73317306 384.56206852 -365 377 C-364.11954475 374.85639923 -363.24482537 372.71043611 -362.375 370.5625 C-359.32245712 363.31964826 -359.32245712 363.31964826 -356.7578125 360.77734375 C-353.87652953 357.8756551 -351.36424306 354.7952832 -348.875 351.5625 C-347.89984245 350.30851375 -346.92457917 349.05460972 -345.94921875 347.80078125 C-345.21131104 346.84872803 -345.21131104 346.84872803 -344.45849609 345.87744141 C-342.65423363 343.55491406 -340.8354001 341.24412672 -339.01489258 338.93432617 C-332.57096487 330.75763732 -326.1851935 322.53573679 -319.79833984 314.31445312 C-316.86700637 310.54184366 -313.93340802 306.77099645 -311 303 C-309.83332206 301.50000877 -308.6666554 300.00000876 -307.5 298.5 C-304 294 -304 294 -300.5 289.5 C-299.9222583 288.75717773 -299.3445166 288.01435547 -298.74926758 287.24902344 C-297.58508741 285.75224357 -296.4208623 284.25549866 -295.2565918 282.75878906 C-292.30150827 278.95980942 -289.34725986 275.16018535 -286.39453125 271.359375 C-278.83570607 261.63135281 -271.2472748 251.92753049 -263.62207031 242.25146484 C-258.69798848 236.00246386 -253.78559643 229.74572901 -248.9375 223.4375 C-248.52661133 222.90286133 -248.11572266 222.36822266 -247.69238281 221.81738281 C-245.65914687 219.16888872 -243.63173409 216.51619969 -241.609375 213.859375 C-237.0461017 207.882959 -232.39247515 202.00252433 -227.625 196.1875 C-222.73559079 190.21983985 -218.04888866 184.13347082 -213.45410156 177.93701172 C-209.53951181 172.67412062 -205.47996991 167.54357154 -201.36352539 162.43774414 C-196.47430743 156.36812125 -191.73077639 150.19343189 -187 144 C-179.18036401 133.7867887 -171.26748795 123.64989473 -163.28125 113.56640625 C-158.4538908 107.46101238 -153.70975387 101.30632867 -149.0625 95.0625 C-144.6144414 89.08828101 -140.03847407 83.23655727 -135.36401367 77.43823242 C-130.47446322 71.36858388 -125.73091361 65.19361154 -121 59 C-112.07170616 47.33877285 -103.03697179 35.7663501 -93.84375 24.3125 C-91.37951369 21.22176293 -88.955529 18.10082179 -86.5390625 14.97265625 C-85.26153372 13.33521454 -83.94770558 11.72616991 -82.625 10.125 C-80.82083672 8.00430977 -80.82083672 8.00430977 -80 5 C-78.4840625 3.7625 -78.4840625 3.7625 -76.9375 2.5 C-75.968125 1.675 -74.99875 0.85 -74 0 C-74 -0.99 -74 -1.98 -74 -3 C-73.05125 -3.226875 -72.1025 -3.45375 -71.125 -3.6875 C-67.86020574 -4.60613644 -65.00883405 -5.94037501 -62 -7.5 C-42.15793609 -17.69078811 -17.1933611 -13.74247335 0 0 Z " fill="#262727" transform="translate(600,163)"/>
<path d="M0 0 C0.33 0.66 0.66 1.32 1 2 C-7.91 2 -16.82 2 -26 2 C-25.67 1.34 -25.34 0.68 -25 0 C-16.82776421 -1.48586105 -8.15129876 -1.73431889 0 0 Z " fill="#1D1D1D" transform="translate(575,151)"/>
<path d="M0 0 C0.33 0 0.66 0 1 0 C1.57515971 3.87697419 2.14462066 7.75473993 2.70898438 11.63330078 C2.99573533 13.59581276 3.28689713 15.55767863 3.578125 17.51953125 C3.75859375 18.76347656 3.9390625 20.00742187 4.125 21.2890625 C4.29257812 22.43068848 4.46015625 23.57231445 4.6328125 24.74853516 C4.98482125 27.8655914 5.06640559 30.86648615 5 34 C4.67 34 4.34 34 4 34 C0.04424034 22.96376297 -0.3173707 11.60166226 0 0 Z " fill="#191919" transform="translate(418,654)"/>
<path d="M0 0 C0.99 0.33 1.98 0.66 3 1 C2.48050781 1.65484375 1.96101562 2.3096875 1.42578125 2.984375 C-4.64291141 10.92639792 -9.28122677 19.04920761 -11 29 C-11.33 29 -11.66 29 -12 29 C-12.7952336 20.72957061 -9.64860394 14.29720788 -6 7 C-4.33333333 5.33333333 -2.66666667 3.66666667 -1 2 C-0.67 1.34 -0.34 0.68 0 0 Z " fill="#191818" transform="translate(247,519)"/>
<path d="M0 0 C0 4.03709681 -2.02783678 5.73837601 -4.5625 8.625 C-5.4790716 9.69427904 -6.39442649 10.76460217 -7.30859375 11.8359375 C-7.76347168 12.36670898 -8.21834961 12.89748047 -8.68701172 13.44433594 C-11.57663918 16.86804479 -14.28378348 20.4383386 -17 24 C-17.33 23.01 -17.66 22.02 -18 21 C-17.07543945 19.36181641 -17.07543945 19.36181641 -15.61328125 17.6015625 C-15.08669922 16.95703125 -14.56011719 16.3125 -14.01757812 15.6484375 C-13.17356445 14.64683594 -13.17356445 14.64683594 -12.3125 13.625 C-11.76916016 12.965 -11.22582031 12.305 -10.66601562 11.625 C-9.60331886 10.33485786 -8.53588812 9.04859811 -7.46337891 7.76660156 C-6.19031883 6.22975426 -4.95669614 4.66040502 -3.73046875 3.0859375 C-2 1 -2 1 0 0 Z " fill="#1B1B1B" transform="translate(482,220)"/>
<path d="M0 0 C2.36143342 2.19523283 3.99658402 4.45005723 5.6875 7.1875 C8.8814173 12.09503036 12.72936732 16.02202489 17 20 C16.01 20.33 15.02 20.66 14 21 C13.44570313 20.4225 12.89140625 19.845 12.3203125 19.25 C11.59585937 18.5075 10.87140625 17.765 10.125 17 C9.04605469 15.88625 9.04605469 15.88625 7.9453125 14.75 C6.18829043 12.77706675 6.18829043 12.77706675 4 13 C3.896875 12.46375 3.79375 11.9275 3.6875 11.375 C3.0279496 8.81665464 3.0279496 8.81665464 1.4375 5.9375 C0 3 0 3 0 0 Z " fill="#1F1F20" transform="translate(449,866)"/>
<path d="M0 0 C7.14505569 0.9686079 12.42604221 6.01289342 17.125 11.25 C17.74375 12.1575 18.3625 13.065 19 14 C18.67 14.99 18.34 15.98 18 17 C17.45472656 16.34773438 16.90945313 15.69546875 16.34765625 15.0234375 C11.84596211 9.80608942 7.56393767 5.62576068 1.65234375 2.05859375 C1.10707031 1.70925781 0.56179688 1.35992187 0 1 C0 0.67 0 0.34 0 0 Z " fill="#1B1B1B" transform="translate(588,157)"/>
<path d="M0 0 C1.9150381 2.87255715 3.36884087 5.71043651 4.875 8.8125 C7.00313316 13.11571044 9.19169482 17.11157745 12 21 C9 21 9 21 7.4375 19.75 C5.90875559 17.88891985 5.00094266 16.18956207 4 14 C3.46375 12.9275 2.9275 11.855 2.375 10.75 C1.92125 9.8425 1.4675 8.935 1 8 C0.34 8 -0.32 8 -1 8 C-0.67 5.36 -0.34 2.72 0 0 Z " fill="#1D1D1D" transform="translate(236,567)"/>
<path d="M0 0 C0.33 0 0.66 0 1 0 C1.50682442 3.01982884 2.00563335 6.04062817 2.5 9.0625 C2.64308594 9.91005859 2.78617187 10.75761719 2.93359375 11.63085938 C3.72200421 16.49272389 4.16037074 21.07528186 4 26 C3.67 26 3.34 26 3 26 C-0.16277318 17.35508665 -0.12311197 9.09660655 0 0 Z " fill="#171717" transform="translate(428,726)"/>
<path d="M0 0 C2.26471571 4.22746933 3.13003282 7.75514299 3.09765625 12.546875 C3.09443359 13.39121094 3.09121094 14.23554688 3.08789062 15.10546875 C3.07951172 15.97816406 3.07113281 16.85085938 3.0625 17.75 C3.05798828 18.63816406 3.05347656 19.52632813 3.04882812 20.44140625 C3.037074 22.62767329 3.02064249 24.81380179 3 27 C2.67 27 2.34 27 2 27 C0.8258212 17.96301675 -0.28994872 9.13338455 0 0 Z " fill="#111212" transform="translate(621,265)"/>
<path d="M0 0 C0.99 0.33 1.98 0.66 3 1 C1.23454414 3.29599183 -0.53700951 5.58678905 -2.3125 7.875 C-2.81201172 8.52597656 -3.31152344 9.17695313 -3.82617188 9.84765625 C-4.31279297 10.47285156 -4.79941406 11.09804687 -5.30078125 11.7421875 C-5.96847534 12.60626221 -5.96847534 12.60626221 -6.6496582 13.48779297 C-8 15 -8 15 -11 17 C-10.12429445 12.59214242 -7.68803513 9.69289817 -4.9375 6.25 C-4.46505859 5.64800781 -3.99261719 5.04601562 -3.50585938 4.42578125 C-2.34309599 2.94590057 -1.1723234 1.47231904 0 0 Z " fill="#1D1C1C" transform="translate(506,187)"/>
<path d="M0 0 C0.99 0.33 1.98 0.66 3 1 C1.21285146 3.3161206 -0.57941805 5.62793272 -2.375 7.9375 C-2.88289063 8.59685547 -3.39078125 9.25621094 -3.9140625 9.93554688 C-4.64882813 10.87817383 -4.64882813 10.87817383 -5.3984375 11.83984375 C-5.84880371 12.42113037 -6.29916992 13.00241699 -6.76318359 13.60131836 C-8 15 -8 15 -10 16 C-9.44151174 11.81641523 -6.95553698 8.97370431 -4.4375 5.75 C-4.01275391 5.19570313 -3.58800781 4.64140625 -3.15039062 4.0703125 C-2.10601659 2.70910589 -1.05377536 1.35394167 0 0 Z " fill="#1C1C1C" transform="translate(365,368)"/>
<path d="M0 0 C0.66 0.33 1.32 0.66 2 1 C0.56836693 2.96286798 -0.86989851 4.92021907 -2.3125 6.875 C-2.71662109 7.43058594 -3.12074219 7.98617188 -3.53710938 8.55859375 C-5.55387431 11.2804066 -7.15051156 13.10034104 -10 15 C-9.45230629 10.81761166 -7.10111111 8.40131455 -4.4375 5.25 C-3.19806641 3.77273438 -3.19806641 3.77273438 -1.93359375 2.265625 C-1.29550781 1.51796875 -0.65742188 0.7703125 0 0 Z " fill="#151515" transform="translate(319,428)"/>
<path d="M0 0 C2.47045803 3.81615468 2.43831912 7.84744248 2.625 12.25 C2.66367187 12.99507812 2.70234375 13.74015625 2.7421875 14.5078125 C2.83605108 16.3381524 2.91909718 18.16904143 3 20 C2.34 19.67 1.68 19.34 1 19 C-0.01631395 14.69185156 -0.10751104 10.53608185 -0.0625 6.125 C-0.05347656 4.97257813 -0.04445313 3.82015625 -0.03515625 2.6328125 C-0.02355469 1.76398437 -0.01195312 0.89515625 0 0 Z " fill="#1A191A" transform="translate(438,797)"/>
<path d="M0 0 C-0.33 0.66 -0.66 1.32 -1 2 C0.32 2.99 1.64 3.98 3 5 C-2.56890517 4.52013969 -7.67067568 3.70084819 -13 2 C-13 1.67 -13 1.34 -13 1 C-8.61414671 0.29826347 -4.44209357 -0.10834375 0 0 Z " fill="#1D1D1D" transform="translate(706,432)"/>
<path d="M0 0 C2.31 0 4.62 0 7 0 C3.92118304 3.87051275 0.99926986 7.02911382 -3 10 C-3.66 9.67 -4.32 9.34 -5 9 C-4.6390625 8.51789063 -4.278125 8.03578125 -3.90625 7.5390625 C-3.4421875 6.90742188 -2.978125 6.27578125 -2.5 5.625 C-2.0359375 4.99851563 -1.571875 4.37203125 -1.09375 3.7265625 C0.17838101 2.05905387 0.17838101 2.05905387 0 0 Z " fill="#212121" transform="translate(526,160)"/>
<path d="M0 0 C0.33 0 0.66 0 1 0 C2.32286246 4.96073422 2.08893197 9.91111512 2 15 C1.67 15 1.34 15 1 15 C1 12.69 1 10.38 1 8 C0.34 8 -0.32 8 -1 8 C-1 10.97 -1 13.94 -1 17 C-1.33 17 -1.66 17 -2 17 C-2.05398987 14.72942623 -2.09278742 12.45848712 -2.125 10.1875 C-2.14820313 8.92292969 -2.17140625 7.65835937 -2.1953125 6.35546875 C-2 3 -2 3 0 0 Z " fill="#373637" transform="translate(808,486)"/>
<path d="M0 0 C0.66 0.33 1.32 0.66 2 1 C-2.95 7.435 -2.95 7.435 -8 14 C-8.33 13.01 -8.66 12.02 -9 11 C-7.3828125 8.5546875 -7.3828125 8.5546875 -5.125 5.875 C-4.38507813 4.98554688 -3.64515625 4.09609375 -2.8828125 3.1796875 C-1 1 -1 1 0 0 Z " fill="#1A1A1B" transform="translate(344,396)"/>
<path d="M0 0 C0.66 0.33 1.32 0.66 2 1 C-2.95 7.435 -2.95 7.435 -8 14 C-8.33 13.01 -8.66 12.02 -9 11 C-7.12890625 8.30078125 -7.12890625 8.30078125 -4.5625 5.3125 C-3.71816406 4.31863281 -2.87382812 3.32476562 -2.00390625 2.30078125 C-1.01197266 1.16189453 -1.01197266 1.16189453 0 0 Z " fill="#171718" transform="translate(262,501)"/>
<path d="M0 0 C0.99 0.33 1.98 0.66 3 1 C1.73147606 2.60599349 0.460089 4.20972575 -0.8125 5.8125 C-1.87404297 7.15248047 -1.87404297 7.15248047 -2.95703125 8.51953125 C-4.56411377 10.47076911 -6.17040423 12.26274976 -8 14 C-7.46719784 9.77510398 -6.12321801 7.45919284 -3.4375 4.1875 C-2.47650391 3.00220703 -2.47650391 3.00220703 -1.49609375 1.79296875 C-1.00238281 1.20128906 -0.50867188 0.60960937 0 0 Z " fill="#1C1C1C" transform="translate(330,413)"/>
<path d="M0 0 C0.99 0.33 1.98 0.66 3 1 C1.54601271 2.81598825 0.08667675 4.62769519 -1.375 6.4375 C-2.59316406 7.95150391 -2.59316406 7.95150391 -3.8359375 9.49609375 C-6 12 -6 12 -8 13 C-7.39665691 9.29496359 -5.77525763 7.14031852 -3.4375 4.25 C-2.79683594 3.45078125 -2.15617187 2.6515625 -1.49609375 1.828125 C-1.00238281 1.22484375 -0.50867188 0.6215625 0 0 Z " fill="#1A1A1A" transform="translate(440,272)"/>
<path d="M0 0 C1.79275866 3.11910856 2.34290718 5.67682428 2.625 9.25 C2.69976562 10.14203125 2.77453125 11.0340625 2.8515625 11.953125 C2.90054687 12.62859375 2.94953125 13.3040625 3 14 C1.35 13.67 -0.3 13.34 -2 13 C-1.84660156 12.43796875 -1.69320313 11.8759375 -1.53515625 11.296875 C-0.98639581 8.94161122 -0.68502401 6.65451896 -0.4375 4.25 C-0.35371094 3.45078125 -0.26992188 2.6515625 -0.18359375 1.828125 C-0.12300781 1.22484375 -0.06242187 0.6215625 0 0 Z " fill="#1F1E1E" transform="translate(443,833)"/>
<path d="M0 0 C5.93002267 -0.37851209 10.47239641 0.89424625 16 3 C16 3.33 16 3.66 16 4 C10.43109483 3.52013969 5.32932432 2.70084819 0 1 C0 0.67 0 0.34 0 0 Z " fill="#171817" transform="translate(647,422)"/>
<path d="M0 0 C0.33 0 0.66 0 1 0 C1.33 5.28 1.66 10.56 2 16 C1.34 14.68 0.68 13.36 0 12 C-0.66 11.67 -1.32 11.34 -2 11 C-2.25 3.375 -2.25 3.375 0 0 Z " fill="#343435" transform="translate(624,283)"/>
<path d="M0 0 C7.48291572 6.15034169 7.48291572 6.15034169 10 10 C6.7451198 9.41978222 5.06347592 8.47352859 2.75 6.125 C2.22921875 5.61195313 1.7084375 5.09890625 1.171875 4.5703125 C0 3 0 3 0 0 Z " fill="#181819" transform="translate(456,877)"/>
<path d="M0 0 C5.15464734 0.48324819 8.81550319 3.18610761 13 6 C12.01 6.66 11.02 7.32 10 8 C8.33055479 6.85821872 6.6645052 5.71147095 5 4.5625 C4.071875 3.92441406 3.14375 3.28632813 2.1875 2.62890625 C1.465625 2.09136719 0.74375 1.55382812 0 1 C0 0.67 0 0.34 0 0 Z " fill="#1E1E1E" transform="translate(780,454)"/>
<path d="M0 0 C0.33 0 0.66 0 1 0 C1.33 5.28 1.66 10.56 2 16 C1.67 14.68 1.34 13.36 1 12 C0.01 12 -0.98 12 -2 12 C-2 10.02 -2 8.04 -2 6 C-1.67 6 -1.34 6 -1 6 C-0.67 4.02 -0.34 2.04 0 0 Z " fill="#363637" transform="translate(632,361)"/>
<path d="M0 0 C0.66 1.32 1.32 2.64 2 4 C2.66 4 3.32 4 4 4 C4.1875 7.375 4.1875 7.375 4 11 C3.01 11.66 2.02 12.32 1 13 C0.67 8.71 0.34 4.42 0 0 Z " fill="#333333" transform="translate(430,747)"/>
<path d="M0 0 C1.65206447 0.92647536 3.2964997 1.86656574 4.9375 2.8125 C5.85402344 3.33457031 6.77054687 3.85664062 7.71484375 4.39453125 C10 6 10 6 11 9 C6.39860359 7.51131293 3.49772906 5.25370145 0 2 C0 1.34 0 0.68 0 0 Z " fill="#1B1B1B" transform="translate(250,590)"/>
<path d="M0 0 C0.33 0.99 0.66 1.98 1 3 C-0.36328125 5.26171875 -0.36328125 5.26171875 -2.3125 7.6875 C-2.94800781 8.49574219 -3.58351563 9.30398438 -4.23828125 10.13671875 C-4.81964844 10.75160156 -5.40101563 11.36648438 -6 12 C-6.66 12 -7.32 12 -8 12 C-6.59023295 8.96147295 -4.91129772 6.4060405 -2.875 3.75 C-2.06675781 2.69039062 -2.06675781 2.69039062 -1.2421875 1.609375 C-0.83226562 1.07828125 -0.42234375 0.5471875 0 0 Z " fill="#181818" transform="translate(791,532)"/>
<path d="M0 0 C1.41750563 0.11509661 2.83401169 0.24253658 4.25 0.375 C5.03890625 0.44460938 5.8278125 0.51421875 6.640625 0.5859375 C9.085877 1.01507113 10.84836903 1.78600638 13 3 C8.48382401 3.07654536 4.40914783 3.10228696 0 2 C0 1.34 0 0.68 0 0 Z " fill="#191919" transform="translate(386,626)"/>
<path d="M0 0 C6 7.2 6 7.2 6 12 C5.34 12 4.68 12 4 12 C3.32332002 10.75539217 2.65905281 9.50403104 2 8.25 C1.62875 7.55390625 1.2575 6.8578125 0.875 6.140625 C0 4 0 4 0 0 Z " fill="#212020" transform="translate(607,172)"/>
<path d="M0 0 C0.33 0.99 0.66 1.98 1 3 C-0.21484375 5.04296875 -0.21484375 5.04296875 -1.9375 7.1875 C-2.50339844 7.90292969 -3.06929687 8.61835937 -3.65234375 9.35546875 C-4.09707031 9.89816406 -4.54179688 10.44085937 -5 11 C-5.33 10.01 -5.66 9.02 -6 8 C-4.78515625 5.95703125 -4.78515625 5.95703125 -3.0625 3.8125 C-2.49660156 3.09707031 -1.93070313 2.38164063 -1.34765625 1.64453125 C-0.90292969 1.10183594 -0.45820312 0.55914063 0 0 Z " fill="#1C1C1C" transform="translate(721,624)"/>
<path d="M0 0 C0.66 0.33 1.32 0.66 2 1 C-0.31 3.97 -2.62 6.94 -5 10 C-5.33 9.01 -5.66 8.02 -6 7 C-4.78515625 5.17578125 -4.78515625 5.17578125 -3.0625 3.3125 C-2.49660156 2.68988281 -1.93070312 2.06726563 -1.34765625 1.42578125 C-0.90292969 0.95527344 -0.45820313 0.48476563 0 0 Z " fill="#181918" transform="translate(280,478)"/>
<path d="M0 0 C0.99 0.33 1.98 0.66 3 1 C0.69 3.97 -1.62 6.94 -4 10 C-4.33 9.01 -4.66 8.02 -5 7 C-4.00390625 5.17578125 -4.00390625 5.17578125 -2.5625 3.3125 C-2.08941406 2.68988281 -1.61632812 2.06726563 -1.12890625 1.42578125 C-0.75636719 0.95527344 -0.38382812 0.48476563 0 0 Z " fill="#191919" transform="translate(411,309)"/>
<path d="M0 0 C0.99 0.66 1.98 1.32 3 2 C2.34 2 1.68 2 1 2 C0.67 4.97 0.34 7.94 0 11 C-0.66 11 -1.32 11 -2 11 C-2.28571429 3.57142857 -2.28571429 3.57142857 0 0 Z " fill="#2E2E2E" transform="translate(626,303)"/>
<path d="M0 0 C0.66 0 1.32 0 2 0 C0.34832443 3.5786304 -1.78286492 6.74820188 -4 10 C-4.8125 8.375 -4.8125 8.375 -5 6 C-2.6875 2.75 -2.6875 2.75 0 0 Z " fill="#191919" transform="translate(292,462)"/>
<path d="M0 0 C0.33 0 0.66 0 1 0 C1.05391993 1.79133978 1.09275571 3.58313899 1.125 5.375 C1.14820313 6.37273437 1.17140625 7.37046875 1.1953125 8.3984375 C1 11 1 11 -1 13 C-2.35439668 10.29120665 -2.06501451 7.99066732 -2 5 C-1.67 5 -1.34 5 -1 5 C-0.67 3.35 -0.34 1.7 0 0 Z " fill="#2D2D2D" transform="translate(616,201)"/>
<path d="M0 0 C1.41750563 0.11509661 2.83401169 0.24253658 4.25 0.375 C5.03890625 0.44460938 5.8278125 0.51421875 6.640625 0.5859375 C9.085877 1.01507113 10.84836903 1.78600638 13 3 C4.80743982 3.4726477 4.80743982 3.4726477 1.4375 1.5 C0.963125 1.005 0.48875 0.51 0 0 Z " fill="#151615" transform="translate(325,613)"/>
<path d="M0 0 C0.33 0.99 0.66 1.98 1 3 C-0.40445835 5.2636564 -2.1967913 7.0208685 -4 9 C-4.33 8.01 -4.66 7.02 -5 6 C-3.59554165 3.7363436 -1.8032087 1.9791315 0 0 Z " fill="#1E1E1E" transform="translate(772,557)"/>
<path d="M0 0 C0.66 0.33 1.32 0.66 2 1 C-0.97 4.96 -0.97 4.96 -4 9 C-4.33 8.01 -4.66 7.02 -5 6 C-3.59554165 3.7363436 -1.8032087 1.9791315 0 0 Z " fill="#161616" transform="translate(270,491)"/>
<path d="M0 0 C0.99 0.33 1.98 0.66 3 1 C1.02 3.31 -0.96 5.62 -3 8 C-3.33 7.01 -3.66 6.02 -4 5 C-2.0625 2.3125 -2.0625 2.3125 0 0 Z " fill="#1A1B1A" transform="translate(387,340)"/>
<path d="M0 0 C0.66 0.33 1.32 0.66 2 1 C-0.97 4.96 -0.97 4.96 -4 9 C-4.33 8.01 -4.66 7.02 -5 6 C-3.59554165 3.7363436 -1.8032087 1.9791315 0 0 Z " fill="#151515" transform="translate(401,323)"/>
<path d="M0 0 C4.455 0.99 4.455 0.99 9 2 C9 2.66 9 3.32 9 4 C5.625 3.6875 5.625 3.6875 2 3 C1.34 2.01 0.68 1.02 0 0 Z " fill="#1E1D1D" transform="translate(476,892)"/>
<path d="M0 0 C3 4 3 4 3.07421875 6.359375 C2.94660156 7.14828125 2.81898438 7.9371875 2.6875 8.75 C2.50767578 9.94882812 2.50767578 9.94882812 2.32421875 11.171875 C2.21722656 11.77515625 2.11023438 12.3784375 2 13 C1.67 13 1.34 13 1 13 C0.67 8.71 0.34 4.42 0 0 Z " fill="#353535" transform="translate(421,683)"/>
<path d="M0 0 C0.6875 1.6875 0.6875 1.6875 1 4 C-0.3125 6.75 -0.3125 6.75 -2 9 C-2.66 9 -3.32 9 -4 9 C-2.80100302 5.9168649 -1.52299523 2.93720508 0 0 Z " fill="#181818" transform="translate(804,513)"/>
<path d="M0 0 C0.33 0 0.66 0 1 0 C1.05399736 1.45792884 1.09279177 2.91642712 1.125 4.375 C1.14820313 5.18710937 1.17140625 5.99921875 1.1953125 6.8359375 C1 9 1 9 -1 11 C-2 10 -2 10 -2.0625 7.4375 C-2.041875 6.633125 -2.02125 5.82875 -2 5 C-1.67 5 -1.34 5 -1 5 C-0.67 3.35 -0.34 1.7 0 0 Z " fill="#2E2E2D" transform="translate(634,382)"/>
<path d="M0 0 C0.66 0 1.32 0 2 0 C0.73058503 3.91402949 -0.51167694 5.79072873 -4 8 C-3.40312566 4.65750371 -2.26396123 2.53563658 0 0 Z " fill="#171717" transform="translate(517,173)"/>
<path d="M0 0 C0.33 0.99 0.66 1.98 1 3 C-0.9375 6.1875 -0.9375 6.1875 -3 9 C-3.75 7.3125 -3.75 7.3125 -4 5 C-2.0625 2.25 -2.0625 2.25 0 0 Z " fill="#1E1E1E" transform="translate(602,784)"/>
<path d="M0 0 C1 2 1 2 0.0625 5.125 C-0.288125 6.07375 -0.63875 7.0225 -1 8 C-1.99 7.67 -2.98 7.34 -4 7 C-2.79618552 4.50638429 -1.54571278 2.31856917 0 0 Z " fill="#2C2C2D" transform="translate(715,630)"/>
<path d="M0 0 C3 1 3 1 5 4 C4.625 6.1875 4.625 6.1875 4 8 C0 2.25 0 2.25 0 0 Z " fill="#19191A" transform="translate(799,469)"/>
<path d="M0 0 C0.33 1.32 0.66 2.64 1 4 C-0.65 5.32 -2.3 6.64 -4 8 C-3.40072174 4.64404172 -2.15377564 2.62198774 0 0 Z " fill="#1D1E1E" transform="translate(313,435)"/>
<path d="M0 0 C0.66 0 1.32 0 2 0 C3.35439668 2.70879335 3.06501451 5.00933268 3 8 C2.67 8 2.34 8 2 8 C2 6.35 2 4.7 2 3 C1.34 3 0.68 3 0 3 C0 2.01 0 1.02 0 0 Z " fill="#424140" transform="translate(416,673)"/>
<path d="M0 0 C0.33 0 0.66 0 1 0 C1 1.65 1 3.3 1 5 C0.34 4.34 -0.32 3.68 -1 3 C-0.67 2.01 -0.34 1.02 0 0 Z " fill="#424041" transform="translate(434,789)"/>
<path d="M0 0 C2.475 0.495 2.475 0.495 5 1 C4.01 1.495 4.01 1.495 3 2 C2.01 1.34 1.02 0.68 0 0 Z " fill="#424141" transform="translate(353,622)"/>
<path d="M0 0 C0.66 1.32 1.32 2.64 2 4 C1.01 3.67 0.02 3.34 -1 3 C-0.67 2.01 -0.34 1.02 0 0 Z " fill="#444243" transform="translate(297,448)"/>
<path d="M0 0 C0.33 0.66 0.66 1.32 1 2 C1.66 2.33 2.32 2.66 3 3 C2.01 3 1.02 3 0 3 C0 2.01 0 1.02 0 0 Z " fill="#454442" transform="translate(264,489)"/>
<path d="M0 0 C0.66 0.33 1.32 0.66 2 1 C1.01 1.66 0.02 2.32 -1 3 C-0.67 2.01 -0.34 1.02 0 0 Z " fill="#444243" transform="translate(369,360)"/>
<path d="M0 0 C1 4 1 4 1 4 Z " fill="#434242" transform="translate(442,847)"/>
<path d="M0 0 C1 4 1 4 1 4 Z " fill="#464442" transform="translate(440,834)"/>
<path d="M0 0 C1 4 1 4 1 4 Z " fill="#424242" transform="translate(433,784)"/>
<path d="M0 0 C1 4 1 4 1 4 Z " fill="#424040" transform="translate(416,664)"/>
<path d="M0 0 C1 4 1 4 1 4 Z " fill="#484747" transform="translate(232,544)"/>
<path d="M0 0 C4 1 4 1 4 1 Z " fill="#3F3E3D" transform="translate(734,440)"/>
<path d="M0 0 C0.99 0.495 0.99 0.495 2 1 C1.34 1.66 0.68 2.32 0 3 C0 2.01 0 1.02 0 0 Z " fill="#444343" transform="translate(312,432)"/>
<path d="M0 0 C4 1 4 1 4 1 Z " fill="#3F3E3D" transform="translate(668,424)"/>
<path d="M0 0 C1 4 1 4 1 4 Z " fill="#403E3F" transform="translate(639,414)"/>
<path d="M0 0 C0.99 0.33 1.98 0.66 3 1 C2.01 1 1.02 1 0 1 C0 0.67 0 0.34 0 0 Z " fill="#454241" transform="translate(376,347)"/>
<path d="M0 0 C3 1 3 1 3 1 Z " fill="#464545" transform="translate(472,894)"/>
<path d="M0 0 C0.99 0.495 0.99 0.495 2 1 C1.01 1.495 1.01 1.495 0 2 C0 1.34 0 0.68 0 0 Z " fill="#464444" transform="translate(448,872)"/>
<path d="" fill="#424040" transform="translate(0,0)"/>
<path d="" fill="#434242" transform="translate(0,0)"/>
<path d="M0 0 C3 1 3 1 3 1 Z " fill="#424140" transform="translate(376,627)"/>
<path d="M0 0 C3 1 3 1 3 1 Z " fill="#403E3E" transform="translate(359,623)"/>
<path d="M0 0 C0.66 0 1.32 0 2 0 C1.67 0.66 1.34 1.32 1 2 C0.67 1.34 0.34 0.68 0 0 Z " fill="#424140" transform="translate(307,614)"/>
<path d="M0 0 C0.99 0.495 0.99 0.495 2 1 C1.01 1.495 1.01 1.495 0 2 C0 1.34 0 0.68 0 0 Z " fill="#454444" transform="translate(264,602)"/>
<path d="M0 0 C0.99 0.495 0.99 0.495 2 1 C1.01 1.495 1.01 1.495 0 2 C0 1.34 0 0.68 0 0 Z " fill="#434243" transform="translate(269,488)"/>
<path d="" fill="#444243" transform="translate(0,0)"/>
<path d="M0 0 C3 1 3 1 3 1 Z " fill="#42413E" transform="translate(706,433)"/>
<path d="M0 0 C0.66 0.66 1.32 1.32 2 2 C1.34 2 0.68 2 0 2 C0 1.34 0 0.68 0 0 Z " fill="#444442" transform="translate(402,312)"/>
<path d="" fill="#454241" transform="translate(0,0)"/>
<path d="" fill="#444342" transform="translate(0,0)"/>
<path d="M0 0 C3 1 3 1 3 1 Z " fill="#434141" transform="translate(456,240)"/>
<path d="M0 0 C0.33 0.66 0.66 1.32 1 2 C0.34 1.67 -0.32 1.34 -1 1 C-0.67 0.67 -0.34 0.34 0 0 Z " fill="#444242" transform="translate(590,153)"/>
<path d="M0 0 C2 1 2 1 2 1 Z " fill="#434140" transform="translate(511,895)"/>
<path d="M0 0 C2 1 2 1 2 1 Z " fill="#424241" transform="translate(514,894)"/>
<path d="M0 0 C2 1 2 1 2 1 Z " fill="#454342" transform="translate(456,882)"/>
<path d="" fill="#413F3F" transform="translate(0,0)"/>
<path d="" fill="#464444" transform="translate(0,0)"/>
<path d="" fill="#444443" transform="translate(0,0)"/>
<path d="" fill="#424141" transform="translate(0,0)"/>
<path d="" fill="#454442" transform="translate(0,0)"/>
<path d="M0 0 C2 1 2 1 2 1 Z " fill="#434240" transform="translate(386,629)"/>
<path d="" fill="#424240" transform="translate(0,0)"/>
<path d="M0 0 C2 1 2 1 2 1 Z " fill="#424140" transform="translate(315,614)"/>
<path d="M0 0 C2 1 2 1 2 1 Z " fill="#434141" transform="translate(312,613)"/>
<path d="" fill="#444243" transform="translate(0,0)"/>
<path d="" fill="#444142" transform="translate(0,0)"/>
<path d="" fill="#434241" transform="translate(0,0)"/>
<path d="" fill="#444243" transform="translate(0,0)"/>
<path d="" fill="#444344" transform="translate(0,0)"/>
<path d="M0 0 C2 1 2 1 2 1 Z " fill="#444344" transform="translate(789,456)"/>
<path d="" fill="#454344" transform="translate(0,0)"/>
<path d="M0 0 C2 1 2 1 2 1 Z " fill="#434241" transform="translate(710,434)"/>
<path d="" fill="#464343" transform="translate(0,0)"/>
<path d="" fill="#444443" transform="translate(0,0)"/>
<path d="" fill="#454544" transform="translate(0,0)"/>
<path d="" fill="#3D3D3D" transform="translate(0,0)"/>
<path d="M0 0 C2 1 2 1 2 1 Z " fill="#434242" transform="translate(404,314)"/>
<path d="" fill="#434040" transform="translate(0,0)"/>
<path d="" fill="#444242" transform="translate(0,0)"/>
<path d="M0 0 C2 1 2 1 2 1 Z " fill="#434241" transform="translate(432,275)"/>
<path d="" fill="#3D3C3D" transform="translate(0,0)"/>
<path d="" fill="#403F41" transform="translate(0,0)"/>
<path d="M0 0 C2 1 2 1 2 1 Z " fill="#444141" transform="translate(480,216)"/>
<path d="" fill="#42403F" transform="translate(0,0)"/>
<path d="" fill="#3F3E3E" transform="translate(0,0)"/>
<path d="M0 0 C2 1 2 1 2 1 Z " fill="#444242" transform="translate(504,184)"/>
<path d="" fill="#41403E" transform="translate(0,0)"/>
<path d="M0 0 C2 1 2 1 2 1 Z " fill="#444242" transform="translate(521,163)"/>
<path d="M0 0 C2 1 2 1 2 1 Z " fill="#454542" transform="translate(522,161)"/>
<path d="M0 0 C2 1 2 1 2 1 Z " fill="#444342" transform="translate(520,160)"/>
<path d="M0 0 C2 1 2 1 2 1 Z " fill="#3F3F3D" transform="translate(582,152)"/>
<path d="" fill="#727272" transform="translate(0,0)"/>
<path d="" fill="#474546" transform="translate(0,0)"/>
<path d="" fill="#444342" transform="translate(0,0)"/>
<path d="" fill="#484645" transform="translate(0,0)"/>
<path d="" fill="#413D3F" transform="translate(0,0)"/>
<path d="" fill="#474544" transform="translate(0,0)"/>
<path d="" fill="#444142" transform="translate(0,0)"/>
<path d="" fill="#454544" transform="translate(0,0)"/>
<path d="" fill="#454244" transform="translate(0,0)"/>
<path d="" fill="#40413F" transform="translate(0,0)"/>
<path d="" fill="#434241" transform="translate(0,0)"/>
<path d="" fill="#454444" transform="translate(0,0)"/>
<path d="" fill="#444242" transform="translate(0,0)"/>
<path d="" fill="#454042" transform="translate(0,0)"/>
<path d="" fill="#464445" transform="translate(0,0)"/>
<path d="" fill="#484545" transform="translate(0,0)"/>
<path d="" fill="#494744" transform="translate(0,0)"/>
<path d="" fill="#464445" transform="translate(0,0)"/>
<path d="" fill="#484846" transform="translate(0,0)"/>
<path d="" fill="#423E3F" transform="translate(0,0)"/>
<path d="" fill="#454445" transform="translate(0,0)"/>
<path d="" fill="#42413F" transform="translate(0,0)"/>
<path d="" fill="#424242" transform="translate(0,0)"/>
<path d="" fill="#464343" transform="translate(0,0)"/>
<path d="" fill="#454344" transform="translate(0,0)"/>
<path d="" fill="#454442" transform="translate(0,0)"/>
<path d="" fill="#403F3F" transform="translate(0,0)"/>
<path d="" fill="#444340" transform="translate(0,0)"/>
<path d="" fill="#414040" transform="translate(0,0)"/>
<path d="" fill="#40413E" transform="translate(0,0)"/>
<path d="" fill="#464041" transform="translate(0,0)"/>
<path d="" fill="#434242" transform="translate(0,0)"/>
<path d="" fill="#434140" transform="translate(0,0)"/>
<path d="" fill="#444343" transform="translate(0,0)"/>
<path d="" fill="#444344" transform="translate(0,0)"/>
<path d="" fill="#454042" transform="translate(0,0)"/>
<path d="" fill="#444142" transform="translate(0,0)"/>
<path d="" fill="#444242" transform="translate(0,0)"/>
<path d="" fill="#6E6E6C" transform="translate(0,0)"/>
<path d="" fill="#444343" transform="translate(0,0)"/>
<path d="" fill="#454344" transform="translate(0,0)"/>
<path d="" fill="#434142" transform="translate(0,0)"/>
<path d="" fill="#434342" transform="translate(0,0)"/>
<path d="" fill="#464241" transform="translate(0,0)"/>
<path d="" fill="#454344" transform="translate(0,0)"/>
<path d="" fill="#454343" transform="translate(0,0)"/>
<path d="" fill="#413E3F" transform="translate(0,0)"/>
<path d="" fill="#414342" transform="translate(0,0)"/>
<path d="" fill="#464240" transform="translate(0,0)"/>
<path d="" fill="#434241" transform="translate(0,0)"/>
<path d="" fill="#464444" transform="translate(0,0)"/>
<path d="" fill="#424142" transform="translate(0,0)"/>
<path d="" fill="#454343" transform="translate(0,0)"/>
<path d="" fill="#454443" transform="translate(0,0)"/>
<path d="" fill="#434244" transform="translate(0,0)"/>
<path d="" fill="#444344" transform="translate(0,0)"/>
<path d="" fill="#444245" transform="translate(0,0)"/>
<path d="" fill="#433F42" transform="translate(0,0)"/>
<path d="" fill="#454344" transform="translate(0,0)"/>
<path d="" fill="#434342" transform="translate(0,0)"/>
<path d="" fill="#434244" transform="translate(0,0)"/>
<path d="" fill="#444343" transform="translate(0,0)"/>
<path d="" fill="#444443" transform="translate(0,0)"/>
<path d="" fill="#414342" transform="translate(0,0)"/>
<path d="" fill="#414241" transform="translate(0,0)"/>
<path d="" fill="#454545" transform="translate(0,0)"/>
<path d="" fill="#424242" transform="translate(0,0)"/>
<path d="" fill="#444445" transform="translate(0,0)"/>
<path d="" fill="#42413F" transform="translate(0,0)"/>
<path d="" fill="#47454A" transform="translate(0,0)"/>
<path d="" fill="#444342" transform="translate(0,0)"/>
<path d="" fill="#464342" transform="translate(0,0)"/>
<path d="" fill="#424042" transform="translate(0,0)"/>
<path d="" fill="#434343" transform="translate(0,0)"/>
<path d="" fill="#444342" transform="translate(0,0)"/>
<path d="" fill="#434342" transform="translate(0,0)"/>
<path d="" fill="#444446" transform="translate(0,0)"/>
<path d="" fill="#474545" transform="translate(0,0)"/>
<path d="" fill="#464445" transform="translate(0,0)"/>
<path d="" fill="#474546" transform="translate(0,0)"/>
<path d="" fill="#454342" transform="translate(0,0)"/>
<path d="" fill="#414040" transform="translate(0,0)"/>
<path d="" fill="#403D3E" transform="translate(0,0)"/>
<path d="" fill="#444141" transform="translate(0,0)"/>
<path d="" fill="#494845" transform="translate(0,0)"/>
<path d="" fill="#444242" transform="translate(0,0)"/>
<path d="" fill="#6F6F6F" transform="translate(0,0)"/>
<path d="" fill="#434142" transform="translate(0,0)"/>
<path d="" fill="#424241" transform="translate(0,0)"/>
<path d="" fill="#757676" transform="translate(0,0)"/>
<path d="" fill="#444340" transform="translate(0,0)"/>
<path d="" fill="#404041" transform="translate(0,0)"/>
<path d="" fill="#424240" transform="translate(0,0)"/>
<path d="" fill="#474645" transform="translate(0,0)"/>
<path d="" fill="#403F3D" transform="translate(0,0)"/>
<path d="" fill="#41403F" transform="translate(0,0)"/>
<path d="" fill="#42403F" transform="translate(0,0)"/>
<path d="" fill="#41403E" transform="translate(0,0)"/>
<path d="" fill="#424242" transform="translate(0,0)"/>
<path d="" fill="#444042" transform="translate(0,0)"/>
<path d="" fill="#434340" transform="translate(0,0)"/>
<path d="" fill="#454344" transform="translate(0,0)"/>
<path d="" fill="#434241" transform="translate(0,0)"/>
<path d="" fill="#434243" transform="translate(0,0)"/>
<path d="" fill="#444242" transform="translate(0,0)"/>
<path d="" fill="#464645" transform="translate(0,0)"/>
<path d="" fill="#444343" transform="translate(0,0)"/>
<path d="" fill="#454546" transform="translate(0,0)"/>
<path d="" fill="#484747" transform="translate(0,0)"/>
<path d="" fill="#464545" transform="translate(0,0)"/>
<path d="" fill="#434242" transform="translate(0,0)"/>
<path d="" fill="#454545" transform="translate(0,0)"/>
<path d="" fill="#444344" transform="translate(0,0)"/>
<path d="" fill="#434242" transform="translate(0,0)"/>
<path d="" fill="#444544" transform="translate(0,0)"/>
<path d="" fill="#424143" transform="translate(0,0)"/>
<path d="" fill="#434344" transform="translate(0,0)"/>
<path d="" fill="#464444" transform="translate(0,0)"/>
<path d="" fill="#454344" transform="translate(0,0)"/>
<path d="" fill="#434345" transform="translate(0,0)"/>
<path d="" fill="#454343" transform="translate(0,0)"/>
<path d="" fill="#454245" transform="translate(0,0)"/>
<path d="" fill="#454444" transform="translate(0,0)"/>
<path d="" fill="#474445" transform="translate(0,0)"/>
<path d="" fill="#464645" transform="translate(0,0)"/>
<path d="" fill="#434041" transform="translate(0,0)"/>
<path d="" fill="#404242" transform="translate(0,0)"/>
<path d="" fill="#454343" transform="translate(0,0)"/>
<path d="" fill="#454444" transform="translate(0,0)"/>
<path d="" fill="#484547" transform="translate(0,0)"/>
<path d="" fill="#4D4F4C" transform="translate(0,0)"/>
<path d="" fill="#454341" transform="translate(0,0)"/>
<path d="" fill="#454446" transform="translate(0,0)"/>
<path d="" fill="#484646" transform="translate(0,0)"/>
<path d="" fill="#636362" transform="translate(0,0)"/>
<path d="" fill="#464543" transform="translate(0,0)"/>
<path d="" fill="#464442" transform="translate(0,0)"/>
<path d="" fill="#474545" transform="translate(0,0)"/>
<path d="" fill="#434342" transform="translate(0,0)"/>
<path d="" fill="#454242" transform="translate(0,0)"/>
<path d="" fill="#484344" transform="translate(0,0)"/>
<path d="" fill="#444543" transform="translate(0,0)"/>
<path d="" fill="#474342" transform="translate(0,0)"/>
<path d="" fill="#434040" transform="translate(0,0)"/>
<path d="" fill="#434544" transform="translate(0,0)"/>
<path d="" fill="#454645" transform="translate(0,0)"/>
<path d="" fill="#424341" transform="translate(0,0)"/>
<path d="" fill="#3F403F" transform="translate(0,0)"/>
<path d="" fill="#464343" transform="translate(0,0)"/>
<path d="" fill="#434142" transform="translate(0,0)"/>
<path d="" fill="#444342" transform="translate(0,0)"/>
<path d="" fill="#727272" transform="translate(0,0)"/>
<path d="" fill="#424041" transform="translate(0,0)"/>
<path d="" fill="#434142" transform="translate(0,0)"/>
<path d="" fill="#454346" transform="translate(0,0)"/>
<path d="" fill="#413F3F" transform="translate(0,0)"/>
<path d="" fill="#434343" transform="translate(0,0)"/>
<path d="" fill="#464544" transform="translate(0,0)"/>
<path d="" fill="#434140" transform="translate(0,0)"/>
<path d="" fill="#434242" transform="translate(0,0)"/>
<path d="" fill="#454344" transform="translate(0,0)"/>
<path d="" fill="#40413F" transform="translate(0,0)"/>
<path d="" fill="#414241" transform="translate(0,0)"/>
<path d="" fill="#474746" transform="translate(0,0)"/>
<path d="" fill="#464444" transform="translate(0,0)"/>
<path d="" fill="#403F3E" transform="translate(0,0)"/>
<path d="" fill="#484446" transform="translate(0,0)"/>
<path d="" fill="#424140" transform="translate(0,0)"/>
<path d="" fill="#464644" transform="translate(0,0)"/>
<path d="" fill="#454242" transform="translate(0,0)"/>
<path d="" fill="#414342" transform="translate(0,0)"/>
<path d="" fill="#3F3F3D" transform="translate(0,0)"/>
<path d="" fill="#464745" transform="translate(0,0)"/>
<path d="" fill="#464444" transform="translate(0,0)"/>
<path d="" fill="#3E3F3E" transform="translate(0,0)"/>
<path d="" fill="#464546" transform="translate(0,0)"/>
<path d="" fill="#464442" transform="translate(0,0)"/>
<path d="" fill="#414140" transform="translate(0,0)"/>
<path d="" fill="#454242" transform="translate(0,0)"/>
<path d="" fill="#434342" transform="translate(0,0)"/>
<path d="" fill="#656666" transform="translate(0,0)"/>
<path d="" fill="#454343" transform="translate(0,0)"/>
<path d="" fill="#454444" transform="translate(0,0)"/>
<path d="" fill="#434341" transform="translate(0,0)"/>
<path d="" fill="#454346" transform="translate(0,0)"/>
<path d="" fill="#737574" transform="translate(0,0)"/>
<path d="" fill="#717273" transform="translate(0,0)"/>
<path d="" fill="#444241" transform="translate(0,0)"/>
<path d="" fill="#484443" transform="translate(0,0)"/>
<path d="" fill="#454444" transform="translate(0,0)"/>
<path d="" fill="#464643" transform="translate(0,0)"/>
<path d="" fill="#434241" transform="translate(0,0)"/>
<path d="" fill="#403D3D" transform="translate(0,0)"/>
<path d="" fill="#646363" transform="translate(0,0)"/>
<path d="" fill="#423F40" transform="translate(0,0)"/>
<path d="" fill="#444444" transform="translate(0,0)"/>
<path d="" fill="#444241" transform="translate(0,0)"/>
<path d="" fill="#444444" transform="translate(0,0)"/>
<path d="" fill="#464545" transform="translate(0,0)"/>
<path d="" fill="#444142" transform="translate(0,0)"/>
<path d="" fill="#464345" transform="translate(0,0)"/>
<path d="" fill="#414040" transform="translate(0,0)"/>
<path d="" fill="#444443" transform="translate(0,0)"/>
<path d="" fill="#454443" transform="translate(0,0)"/>
<path d="" fill="#434140" transform="translate(0,0)"/>
<path d="" fill="#444241" transform="translate(0,0)"/>
<path d="" fill="#424140" transform="translate(0,0)"/>
<path d="" fill="#454344" transform="translate(0,0)"/>
<path d="" fill="#444344" transform="translate(0,0)"/>
<path d="" fill="#424144" transform="translate(0,0)"/>
<path d="" fill="#444342" transform="translate(0,0)"/>
<path d="" fill="#43423F" transform="translate(0,0)"/>
<path d="" fill="#413F3E" transform="translate(0,0)"/>
<path d="" fill="#41403F" transform="translate(0,0)"/>
<path d="" fill="#43433F" transform="translate(0,0)"/>
<path d="" fill="#454243" transform="translate(0,0)"/>
<path d="" fill="#444243" transform="translate(0,0)"/>
<path d="" fill="#444243" transform="translate(0,0)"/>
<path d="" fill="#3B3A3B" transform="translate(0,0)"/>
<path d="" fill="#434341" transform="translate(0,0)"/>
<path d="" fill="#423F3E" transform="translate(0,0)"/>
<path d="" fill="#404040" transform="translate(0,0)"/>
<path d="" fill="#42413F" transform="translate(0,0)"/>
<path d="" fill="#414242" transform="translate(0,0)"/>
<path d="" fill="#434141" transform="translate(0,0)"/>
<path d="" fill="#414142" transform="translate(0,0)"/>
<path d="" fill="#434340" transform="translate(0,0)"/>
<path d="" fill="#42413E" transform="translate(0,0)"/>
<path d="" fill="#413E3E" transform="translate(0,0)"/>
<path d="" fill="#434143" transform="translate(0,0)"/>
<path d="" fill="#454240" transform="translate(0,0)"/>
<path d="" fill="#444544" transform="translate(0,0)"/>
<path d="" fill="#494746" transform="translate(0,0)"/>
<path d="" fill="#3E3E3E" transform="translate(0,0)"/>
<path d="" fill="#434346" transform="translate(0,0)"/>
<path d="" fill="#717172" transform="translate(0,0)"/>
</svg>
