<?xml version="1.0" standalone="no"?>
<!DOCTYPE svg PUBLIC "-//W3C//DTD SVG 20010904//EN"
 "http://www.w3.org/TR/2001/REC-SVG-20010904/DTD/svg10.dtd">
<svg version="1.0" xmlns="http://www.w3.org/2000/svg"
 width="1024.000000pt" height="1024.000000pt" viewBox="0 0 1024.000000 1024.000000"
 preserveAspectRatio="xMidYMid meet">

<g transform="translate(0.000000,1024.000000) scale(0.100000,-0.100000)"
stroke="none">
<path d="M3765 8966 c-44 -18 -197 -83 -340 -143 -143 -61 -451 -191 -685
-290 -234 -99 -567 -240 -740 -313 -1131 -476 -1229 -519 -1247 -547 -14 -21
-13 -23 18 -42 18 -11 123 -59 233 -107 111 -47 243 -104 294 -126 l92 -40 0
-168 c0 -167 0 -168 -23 -174 -13 -3 -44 -24 -69 -46 -105 -92 -113 -245 -18
-353 22 -25 50 -49 60 -52 27 -9 27 -24 -20 -480 -22 -214 -48 -463 -57 -552
-9 -90 -14 -165 -11 -168 3 -3 55 28 116 69 l111 73 112 -73 c62 -41 115 -74
117 -74 6 0 1 59 -63 658 l-58 543 37 31 c39 32 79 102 89 156 16 82 -43 203
-119 248 l-44 26 0 138 0 137 243 -98 242 -98 5 -310 c3 -211 9 -314 16 -321
6 -7 30 -14 53 -17 l42 -6 -8 -56 c-15 -108 -9 -418 11 -531 88 -504 372 -927
798 -1192 162 -100 359 -178 558 -219 102 -21 141 -24 340 -24 195 1 239 4
330 24 321 69 605 220 843 450 267 257 432 562 508 936 26 132 38 453 20 549
-10 54 -9 62 9 81 19 20 20 37 22 343 l3 322 540 244 c297 133 558 252 581
264 78 40 80 71 5 104 -25 11 -84 37 -131 58 -135 59 -1054 466 -1790 793
-702 311 -922 407 -936 407 -5 0 -45 -15 -89 -34z m364 -1491 c401 -40 741
-137 1107 -314 l181 -88 6 -114 c3 -62 4 -115 2 -117 -2 -2 -47 23 -102 56
-486 293 -1088 429 -1707 383 -464 -34 -932 -181 -1259 -394 l-87 -57 0 124 0
124 128 62 c210 103 318 149 456 194 395 132 857 183 1275 141z m-2602 -627
c30 -28 36 -63 18 -102 -15 -32 -50 -56 -80 -56 -45 0 -95 51 -95 98 0 25 36
71 64 82 28 11 66 2 93 -22z"/>
<path d="M7700 7718 c-47 -16 -229 -82 -405 -145 -176 -63 -450 -161 -610
-218 -159 -57 -378 -135 -485 -175 -107 -39 -231 -85 -275 -101 -44 -16 -95
-38 -112 -49 -34 -20 -43 -50 -20 -67 6 -5 92 -45 189 -89 l178 -79 0 -115 0
-115 -36 -20 c-67 -36 -109 -145 -84 -221 7 -20 30 -57 52 -80 l39 -43 -16
-168 c-16 -172 -61 -604 -70 -682 -6 -52 -5 -52 100 19 41 27 77 50 81 50 4 0
42 -22 85 -50 43 -27 82 -50 86 -50 10 0 4 72 -37 445 -17 154 -34 315 -37
358 l-6 78 36 37 c44 45 57 78 57 143 0 61 -27 116 -75 155 l-36 29 3 81 3 82
127 -57 c70 -31 129 -58 131 -61 3 -3 7 -111 9 -241 4 -257 7 -269 59 -269 16
0 29 -4 29 -8 0 -5 -10 -44 -22 -88 -19 -68 -22 -105 -22 -274 0 -180 2 -202
26 -293 52 -189 148 -360 288 -510 197 -210 422 -325 701 -358 399 -46 777
108 1031 418 122 150 194 298 241 498 31 132 30 384 -1 508 -26 106 -26 97 -3
97 10 0 30 9 44 21 l27 20 2 211 3 211 250 103 c507 210 535 226 487 264 -11
9 -130 64 -264 122 -133 58 -396 172 -583 254 -793 344 -1051 454 -1065 453
-8 0 -53 -14 -100 -31z m298 -933 c145 -18 192 -27 335 -67 128 -35 289 -98
405 -158 l82 -44 0 -77 0 -78 -132 69 c-315 162 -622 228 -1013 217 -201 -6
-304 -20 -475 -63 -122 -31 -315 -107 -401 -158 l-59 -35 0 83 0 83 118 55
c64 31 143 65 174 77 92 33 288 80 400 95 140 19 416 19 566 1z m-1734 -346
c20 -16 26 -29 26 -59 0 -30 -6 -43 -26 -59 -15 -12 -35 -21 -46 -21 -26 0
-78 53 -78 80 0 27 52 80 78 80 11 0 31 -9 46 -21z"/>
<path d="M6850 4385 c-270 -114 -494 -242 -624 -358 l-49 -43 88 -54 c399
-239 750 -601 982 -1010 167 -295 286 -601 354 -907 l23 -103 381 0 c740 1
1284 25 1560 71 299 49 463 137 537 287 33 66 33 68 32 207 -2 364 -114 743
-308 1040 -192 294 -496 556 -867 749 -138 71 -371 176 -391 176 -7 0 -91
-115 -187 -255 -96 -140 -177 -255 -180 -255 -3 0 -28 41 -56 90 -27 50 -53
90 -57 90 -7 0 -151 -156 -174 -188 -13 -19 -9 -62 97 -924 l22 -177 -24 -29
c-59 -72 -221 -252 -227 -251 -6 1 -154 161 -230 249 l-30 35 39 300 c21 165
51 406 68 535 24 190 28 237 18 250 -7 8 -46 53 -87 100 -41 47 -77 89 -81 94
-4 4 -31 -33 -60 -83 -30 -50 -56 -87 -60 -83 -3 4 -83 118 -177 254 -95 136
-175 249 -180 251 -4 2 -72 -24 -152 -58z"/>
<path d="M7530 4254 l-31 -76 48 -52 c26 -28 70 -78 96 -109 l48 -57 83 0 83
0 97 109 97 110 -28 73 -28 73 -217 3 -216 2 -32 -76z"/>
<path d="M2370 4214 c-597 -241 -962 -471 -1290 -811 -139 -143 -216 -239
-325 -403 -246 -369 -395 -807 -412 -1210 -9 -220 24 -335 125 -436 175 -175
573 -308 1287 -429 710 -120 1503 -174 2365 -162 1193 18 2319 179 2871 412
174 73 305 180 356 290 74 163 17 585 -131 969 -138 356 -357 685 -652 980
-229 229 -453 393 -773 567 -166 91 -725 334 -743 323 -4 -2 -136 -196 -294
-429 -158 -234 -290 -425 -294 -425 -3 0 -41 61 -85 136 l-78 137 -36 -40
c-20 -21 -82 -89 -138 -150 -66 -71 -103 -119 -103 -133 0 -12 18 -153 40
-314 108 -777 143 -1031 158 -1147 l16 -126 -184 -204 c-101 -112 -189 -211
-197 -219 -10 -11 -16 -12 -21 -3 -4 6 -91 105 -192 219 -150 168 -185 212
-183 233 3 26 120 908 173 1304 17 120 30 232 30 250 -1 27 -22 56 -132 177
-72 80 -135 145 -140 145 -6 0 -42 -60 -81 -134 -57 -109 -72 -131 -81 -118
-129 189 -604 846 -611 846 -5 0 -116 -43 -245 -95z"/>
<path d="M3573 4032 c-29 -3 -36 -11 -82 -101 l-50 -98 42 -50 c23 -27 87
-104 142 -171 l100 -122 117 0 117 0 122 143 c67 78 132 154 144 168 l23 27
-44 92 c-24 50 -44 95 -44 101 0 5 -37 9 -82 10 -269 3 -477 4 -505 1z"/>
</g>
</svg>
