<?xml version="1.0" standalone="no"?>
<!DOCTYPE svg PUBLIC "-//W3C//DTD SVG 20010904//EN"
 "http://www.w3.org/TR/2001/REC-SVG-20010904/DTD/svg10.dtd">
<svg version="1.0" xmlns="http://www.w3.org/2000/svg"
 width="1024.000000pt" height="1024.000000pt" viewBox="0 0 1024.000000 1024.000000"
 preserveAspectRatio="xMidYMid meet">

<g transform="translate(0.000000,1024.000000) scale(0.100000,-0.100000)"
stroke="none">
<path d="M7083 7578 c-5 -7 -9 -120 -8 -255 l1 -243 -113 0 c-100 0 -115 -2
-133 -20 -20 -20 -20 -33 -20 -833 0 -635 3 -817 13 -830 10 -14 34 -17 130
-19 l119 -3 1 -242 c1 -133 5 -245 9 -249 14 -13 154 -17 176 -5 22 12 22 16
22 254 l0 243 118 2 c97 1 119 5 130 19 18 25 17 1617 -1 1653 -12 24 -16 25
-130 28 l-117 3 0 242 c0 176 -3 246 -12 255 -17 17 -172 16 -185 0z"/>
<path d="M8137 6743 c-4 -3 -7 -116 -7 -250 l0 -243 -128 0 c-112 0 -131 -2
-145 -18 -15 -17 -17 -77 -17 -659 0 -607 1 -641 18 -656 15 -14 41 -17 145
-17 l127 0 2 -317 3 -318 75 -3 c41 -2 85 0 97 3 l23 5 0 315 0 315 123 0
c107 0 126 2 140 18 15 17 17 77 17 660 0 569 -2 642 -16 656 -12 13 -40 16
-140 16 l-124 0 0 234 c0 129 -3 241 -6 250 -5 13 -23 16 -93 16 -48 0 -91 -3
-94 -7z"/>
<path d="M3882 6128 c-9 -9 -12 -107 -12 -410 l0 -398 -125 0 c-112 0 -127 -2
-145 -20 -20 -20 -20 -33 -20 -819 0 -714 2 -801 16 -815 12 -13 41 -16 145
-16 l129 0 0 -312 c0 -172 4 -319 8 -326 6 -9 33 -12 98 -10 l89 3 3 323 2
322 119 0 c95 0 123 3 135 16 14 14 16 102 16 819 l0 804 -22 15 c-17 12 -49
16 -135 16 l-113 0 -2 408 -3 407 -85 3 c-58 2 -89 -1 -98 -10z"/>
<path d="M6130 6031 c-6 -13 -10 -143 -10 -355 l0 -336 -123 0 c-107 0 -126
-2 -140 -18 -15 -17 -17 -59 -17 -405 0 -470 -16 -427 160 -427 l120 0 0 -274
c0 -151 3 -281 6 -290 5 -13 23 -16 95 -16 77 0 90 2 99 19 6 12 10 123 10
290 l0 271 115 0 c171 0 156 -43 153 436 -3 338 -5 396 -18 404 -8 5 -68 10
-132 10 l-118 0 0 343 c0 253 -3 346 -12 355 -7 7 -44 12 -95 12 -71 0 -84 -3
-93 -19z"/>
<path d="M5048 5039 c-16 -9 -18 -34 -18 -284 l0 -275 -128 0 c-86 0 -132 -4
-140 -12 -16 -16 -17 -1129 -2 -1159 10 -17 22 -19 140 -19 l130 0 0 -374 c0
-308 2 -376 14 -385 9 -8 45 -11 98 -9 l83 3 3 383 2 382 116 0 c63 0 124 5
135 10 18 10 19 27 19 584 0 461 -3 576 -13 584 -7 7 -66 13 -133 14 l-119 3
-1 274 c-1 199 -5 275 -14 281 -18 11 -153 11 -172 -1z"/>
</g>
</svg>
