<?xml version="1.0" encoding="UTF-8"?>
<svg version="1.1" xmlns="http://www.w3.org/2000/svg" width="1024" height="1024" viewBox="0 0 1024 1024">
<path d="M0 0 C1.54789457 -0.00274562 3.09578726 -0.00680198 4.64367539 -0.01204365 C8.86712971 -0.02256603 13.0903704 -0.01454365 17.31381524 -0.00329316 C21.88036682 0.00558808 26.44689162 -0.00290599 31.01344299 -0.00915527 C39.94774678 -0.01862274 48.88196955 -0.01206127 57.8162673 0.00010767 C68.22982832 0.01376049 78.64337025 0.01208689 89.05693794 0.00997434 C107.64344905 0.0067874 126.22992178 0.01843486 144.81642151 0.03804016 C162.83401152 0.05704026 180.85155657 0.06412804 198.86915588 0.05854797 C218.5079476 0.05248378 238.14671956 0.0526792 257.78550965 0.06403381 C259.88153303 0.06524104 261.97755641 0.06644703 264.07357979 0.06765175 C265.62033815 0.06855706 265.62033815 0.06855706 267.19834415 0.06948065 C274.44949691 0.07335262 281.70064229 0.07296896 288.95179558 0.0710659 C297.79464263 0.06893901 306.6374504 0.07420534 315.48028641 0.08867946 C319.9882159 0.09589996 324.49608831 0.10002058 329.0040226 0.0954361 C333.1374971 0.09133483 337.27085418 0.09659517 341.40431095 0.10906217 C342.89273086 0.1119699 344.38116198 0.11158706 345.86957889 0.1074191 C373.84757519 0.03623871 373.84757519 0.03623871 380.77516174 6.6867218 C381.27273987 7.2435968 381.77031799 7.8004718 382.28297424 8.3742218 C382.77539612 8.9104718 383.26781799 9.4467218 383.77516174 9.9992218 C388.43203268 16.77285225 390.02050479 23.11417248 390.15797424 31.2492218 C390.18689758 32.11966125 390.21582092 32.99010071 390.24562073 33.88691711 C390.43444157 40.04626434 390.53516014 46.21277155 390.40797424 52.3742218 C395.41044097 53.69286366 400.40089272 53.52131111 405.53297424 53.4992218 C406.43918518 53.50308899 407.34539612 53.50695618 408.27906799 53.51094055 C409.14918518 53.50965149 410.01930237 53.50836243 410.91578674 53.5070343 C412.10132141 53.50534241 412.10132141 53.50534241 413.31080627 53.50361633 C415.60179825 53.45250559 415.60179825 53.45250559 418.40797424 52.3742218 C418.40797424 53.0342218 418.40797424 53.6942218 418.40797424 54.3742218 C422.53771052 53.80682312 422.53771052 53.80682312 426.40797424 52.3742218 C426.40797424 53.0342218 426.40797424 53.6942218 426.40797424 54.3742218 C427.17351624 54.3034845 427.93905823 54.23274719 428.72779846 54.15986633 C438.74111685 53.33185032 448.69485754 53.22100352 458.73707581 53.24385071 C461.50764032 53.24917313 464.27803986 53.24389363 467.04859924 53.23750305 C476.17098364 53.23249409 485.28487462 53.35765307 494.40016174 53.72969055 C495.62885483 53.76973709 495.62885483 53.76973709 496.88237 53.81059265 C503.28545901 54.11579671 508.05699569 55.7957549 513.40797424 59.3742218 C514.46758362 59.8711554 514.46758362 59.8711554 515.54859924 60.37812805 C518.20849227 61.80307074 519.08228931 63.72285194 520.40797424 66.3742218 C520.40797424 67.0342218 520.40797424 67.6942218 520.40797424 68.3742218 C521.06797424 68.7042218 521.72797424 69.0342218 522.40797424 69.3742218 C535.55870023 104.04009314 515.56318629 158.16161237 503.40797424 191.3742218 C502.99531311 192.51528381 502.58265198 193.65634583 502.15748596 194.83198547 C499.53355551 201.89956863 496.46790567 208.48896268 492.78297424 215.0617218 C492.26154846 216.0016095 491.74012268 216.94149719 491.20289612 217.90986633 C477.85304104 241.79674427 462.56498473 263.27339908 443.28297424 282.7492218 C442.63095032 283.41059143 441.97892639 284.07196106 441.30714417 284.75337219 C440.69846497 285.35786194 440.08978577 285.96235168 439.46266174 286.5851593 C438.92109436 287.12447083 438.37952698 287.66378235 437.82154846 288.21943665 C436.40797424 289.3742218 436.40797424 289.3742218 434.40797424 289.3742218 C434.07797424 290.3642218 433.74797424 291.3542218 433.40797424 292.3742218 C432.05250549 293.5929718 432.05250549 293.5929718 430.22047424 294.8742218 C425.56839201 298.22472868 421.08290154 301.75992634 416.59669495 305.3273468 C405.15686966 314.3742218 405.15686966 314.3742218 402.40797424 314.3742218 C402.07797424 315.0342218 401.74797424 315.6942218 401.40797424 316.3742218 C398.15672229 318.51336328 394.73835167 320.37243183 391.34742737 322.28096008 C389.29508743 323.43785563 387.2501849 324.60733705 385.20484924 325.77656555 C358.44546332 340.97190529 329.65379367 352.28760179 299.40797424 358.3742218 C298.53012268 358.56113586 297.65227112 358.74804993 296.74781799 358.94062805 C294.25420715 359.4027162 291.93831513 359.44651726 289.40797424 359.3742218 C289.07797424 360.3642218 288.74797424 361.3542218 288.40797424 362.3742218 C286.99410988 363.5524421 285.57600013 364.7260259 284.13453674 365.87031555 C282.26968193 367.49468004 280.74698893 369.23020666 279.15797424 371.1242218 C272.66666962 378.69741053 265.08219724 384.82089186 256.95094299 390.55000305 C254.40115944 392.31778572 254.40115944 392.31778572 252.18531799 394.31562805 C248.32706804 397.17539982 244.14234379 399.01769019 239.78297424 400.9992218 C238.08149088 401.78098443 236.38092937 402.5647574 234.68141174 403.3507843 C233.55871887 403.86246155 233.55871887 403.86246155 232.41334534 404.38447571 C230.17922807 405.43343102 230.17922807 405.43343102 227.40797424 407.3742218 C227.12379527 410.10427879 227.12379527 410.10427879 227.43458557 413.33003235 C227.51489517 414.58281479 227.59520477 415.83559723 227.677948 417.12634277 C227.78180409 418.50455433 227.88582773 419.88275327 227.99000549 421.26094055 C228.08547142 422.67936373 228.1794167 424.09789 228.27191162 425.51651001 C228.5199877 429.26826711 228.7858366 433.01854598 229.05622864 436.76875305 C229.48277815 442.72364414 229.88284208 448.68036015 230.28243065 454.63710976 C230.42314509 456.69710618 230.57148031 458.75643412 230.72116089 460.8157959 C231.33719447 469.69442704 231.52018462 478.47950032 231.40797424 487.3742218 C232.06797424 487.7042218 232.72797424 488.0342218 233.40797424 488.3742218 C233.39274719 489.14701477 233.37752014 489.91980774 233.36183167 490.71601868 C233.25694402 500.58544672 233.79622759 510.35195838 234.5249176 520.19062805 C234.72212846 522.89692239 234.90013455 525.60408877 235.07789612 528.3117218 C235.20367949 530.05139011 235.33059147 531.79097726 235.45875549 533.5304718 C235.50889297 534.3305365 235.55903046 535.1306012 235.61068726 535.95491028 C235.98890779 540.7284525 236.92948824 544.16402969 239.40797424 548.3742218 C240.06797424 548.3742218 240.72797424 548.3742218 241.40797424 548.3742218 C241.73797424 549.0342218 242.06797424 549.6942218 242.40797424 550.3742218 C246.36382438 551.69283851 250.10019138 551.43066403 254.22047424 551.3742218 C264.33490051 551.32076196 274.44470483 551.42500618 284.55674744 551.63667297 C286.23440972 551.66974665 287.91217858 551.6978322 289.5900116 551.72065735 C314.10491247 552.06482463 314.10491247 552.06482463 323.2620697 560.1040802 C330.63839215 567.90745455 332.29682666 576.99988086 332.21266174 587.3585968 C332.2263681 588.54020386 332.24007446 589.72181091 332.25419617 590.93922424 C332.29122099 594.66795388 332.28779941 598.39533582 332.28297424 602.1242218 C332.30112006 604.67111737 332.32192862 607.21799543 332.34547424 609.7648468 C332.39706754 615.9681027 332.41556874 622.17077078 332.40797424 628.3742218 C334.14977966 628.35246887 334.14977966 628.35246887 335.92677307 628.33027649 C337.46868135 628.31854649 339.01059237 628.30717206 340.55250549 628.2960968 C341.69725342 628.28038635 341.69725342 628.28038635 342.86512756 628.26435852 C351.34870122 628.2187111 358.75233725 629.8020606 365.40797424 635.3742218 C369.40098425 640.11592118 371.45782464 643.97783837 371.72438049 650.26094055 C371.78722229 651.66763 371.78722229 651.66763 371.85133362 653.10273743 C371.89065002 654.07920227 371.92996643 655.05566711 371.97047424 656.0617218 C372.03524963 657.54382141 372.03524963 657.54382141 372.10133362 659.05586243 C372.20739078 661.49517726 372.30945138 663.93459294 372.40797424 666.3742218 C371.74797424 666.3742218 371.08797424 666.3742218 370.40797424 666.3742218 C370.20172424 667.0548468 369.99547424 667.7354718 369.78297424 668.4367218 C366.85797094 674.6855925 362.66589836 678.88746763 356.37672424 681.72969055 C353.66131284 682.61866452 351.23354835 682.65677921 348.40797424 682.3742218 C348.07797424 683.0342218 347.74797424 683.6942218 347.40797424 684.3742218 C304.51075351 684.42005075 261.61353561 684.45526713 218.71629522 684.47635246 C213.64599222 684.47885372 208.57568928 684.48144238 203.50538635 684.48408508 C202.49602722 684.4846097 201.48666809 684.48513432 200.44672232 684.48567484 C184.12698685 684.4943653 167.80726555 684.51012777 151.48753846 684.52852739 C134.72824335 684.5472643 117.96895562 684.55834653 101.20965046 684.56239879 C90.87748275 684.565136 80.5453551 684.57376522 70.21319973 684.59005474 C63.11744156 684.60066846 56.02170395 684.60381254 48.92593843 684.60122456 C44.83884219 684.59995006 40.75181567 684.60183265 36.66473198 684.61263275 C-8.96930881 684.72674012 -8.96930881 684.72674012 -18.59202576 676.3742218 C-24.78103767 670.21468137 -25.65027128 662.72330753 -25.90452576 654.3117218 C-25.70958108 645.76664665 -23.34641327 640.28995707 -17.45530701 634.0695343 C-9.35870623 626.70281577 3.14399641 628.35497228 13.40797424 628.3742218 C13.39687119 627.70738373 13.38576813 627.04054565 13.37432861 626.35350037 C13.26322409 619.37747162 13.18809535 612.40169654 13.13331604 605.42500305 C13.10825975 602.82561524 13.07420533 600.22629727 13.03077698 597.62715149 C12.9697374 593.87860321 12.9416739 590.13099102 12.91969299 586.3820343 C12.88098335 584.65486679 12.88098335 584.65486679 12.8414917 582.89280701 C12.83857373 574.39061109 14.50296486 567.60453061 20.38531494 561.23216248 C27.42690198 554.56987501 34.97268642 552.27465959 44.5717926 552.21650696 C45.79333542 552.20624481 47.01487823 552.19598267 48.2734375 552.18540955 C49.58498306 552.17810822 50.89652863 552.17080688 52.24781799 552.1632843 C53.61636146 552.15030846 54.98489718 552.13649104 56.35342407 552.12187195 C62.14912568 552.06049909 67.94480176 552.00622853 73.74073792 551.97285461 C77.2933986 551.9518534 80.84567729 551.91651394 84.39811897 551.87209702 C86.39985156 551.85115534 88.40172851 551.84589971 90.40356445 551.84092712 C91.62825943 551.82436066 92.85295441 551.80779419 94.11476135 551.79072571 C95.18778 551.78263885 96.26079865 551.774552 97.36633301 551.76622009 C101.7939839 551.19559672 105.2080412 549.69828585 108.22047424 546.3742218 C110.1600711 543.10753237 110.59708949 540.18524615 110.88868713 536.46650696 C110.96869461 535.46761444 111.04870209 534.46872192 111.13113403 533.43955994 C111.21346786 532.35838898 111.2958017 531.27721802 111.38063049 530.1632843 C111.46799973 529.04416656 111.55536896 527.92504883 111.64538574 526.77201843 C111.82964939 524.39656688 112.01193143 522.02096093 112.19239807 519.6452179 C112.4667662 516.0478398 112.75041377 512.45127865 113.03492737 508.85469055 C113.2132304 506.54093222 113.39098158 504.22713128 113.56813049 501.9132843 C113.65248856 500.85235565 113.73684662 499.791427 113.82376099 498.698349 C114.30839932 492.20070896 114.46053621 485.78091824 114.33984375 479.26542664 C114.40518988 476.49237967 114.81768388 474.07612459 115.40797424 471.3742218 C115.56489475 469.9165331 115.69428402 468.45563405 115.79689026 466.99311829 C115.85687698 466.15711594 115.91686371 465.32111359 115.97866821 464.45977783 C116.03912827 463.56400528 116.09958832 462.66823273 116.16188049 461.74531555 C116.22705368 460.80100174 116.29222687 459.85668793 116.359375 458.88375854 C116.49638827 456.87915254 116.63160313 454.87442292 116.76515198 452.86958313 C116.96630374 449.87383307 117.17800964 446.87895895 117.39039612 443.88398743 C118.24889112 431.36022033 118.58660558 418.92587813 118.40797424 406.3742218 C117.29285461 405.83225159 116.17773499 405.29028137 115.02882385 404.73188782 C95.55190497 395.24014051 79.56256644 382.85211197 64.40797424 367.3742218 C63.26328674 366.2604718 63.26328674 366.2604718 62.09547424 365.1242218 C60.40797424 363.3742218 60.40797424 363.3742218 58.40797424 360.3742218 C56.4658009 359.59674329 56.4658009 359.59674329 54.19703674 359.20625305 C53.36430237 359.03545227 52.53156799 358.86465149 51.67359924 358.68867493 C50.80219299 358.5230304 49.93078674 358.35738586 49.03297424 358.1867218 C47.73746643 357.92085266 47.73746643 357.92085266 46.41578674 357.64961243 C42.61956617 356.89095415 39.30514105 356.3742218 35.40797424 356.3742218 C35.40797424 355.7142218 35.40797424 355.0542218 35.40797424 354.3742218 C33.09797424 354.3742218 30.78797424 354.3742218 28.40797424 354.3742218 C28.40797424 353.7142218 28.40797424 353.0542218 28.40797424 352.3742218 C27.77891174 352.25304993 27.14984924 352.13187805 26.50172424 352.0070343 C20.0565347 350.7451749 13.64763037 349.45410718 7.40797424 347.3742218 C4.48250984 347.150615 4.48250984 347.150615 2.40797424 348.3742218 C2.07797424 347.0542218 1.74797424 345.7342218 1.40797424 344.3742218 C-2.17530329 343.37205116 -2.17530329 343.37205116 -5.59202576 344.3742218 C-5.92202576 343.3842218 -6.25202576 342.3942218 -6.59202576 341.3742218 C-9.2463785 340.04101281 -11.850851 338.87472981 -14.59202576 337.7492218 C-29.98698492 331.12223246 -43.74501147 323.21178105 -57.57102966 313.6945343 C-58.55377869 313.02164368 -59.53652771 312.34875305 -60.54905701 311.6554718 C-61.42537781 311.04767883 -62.30169861 310.43988586 -63.20457458 309.81367493 C-65.41985357 308.47802866 -67.11203414 307.95198267 -69.59202576 307.3742218 C-70.27267757 306.04797321 -70.93665807 304.71314503 -71.59202576 303.3742218 C-73.34572242 301.76598041 -75.16616999 300.22901828 -77.02952576 298.7492218 C-78.48165466 297.58519836 -78.48165466 297.58519836 -79.96311951 296.3976593 C-81.79077215 294.99093706 -83.67303895 293.65354634 -85.59202576 292.3742218 C-85.59202576 291.7142218 -85.59202576 291.0542218 -85.59202576 290.3742218 C-86.46141785 289.99269958 -86.46141785 289.99269958 -87.34837341 289.60346985 C-89.83634033 288.24036719 -91.49266007 286.71662569 -93.49046326 284.70625305 C-94.21749451 283.97728821 -94.94452576 283.24832336 -95.69358826 282.49726868 C-96.44382263 281.73478821 -97.19405701 280.97230774 -97.96702576 280.1867218 C-98.70952576 279.44357727 -99.45202576 278.70043274 -100.21702576 277.93476868 C-104.1062698 274.01460308 -107.85156363 270.03364163 -111.38743591 265.79096985 C-112.39888896 264.60137478 -113.4879031 263.47834446 -114.59202576 262.3742218 C-126.66366049 247.15869139 -136.56428891 230.49366391 -145.48558044 213.28755188 C-146.56753687 211.22661475 -146.56753687 211.22661475 -148.59202576 209.3742218 C-148.96959383 208.05273354 -149.29388336 206.71586259 -149.59202576 205.3742218 C-150.47521869 202.22401819 -150.47521869 202.22401819 -151.59202576 199.3742218 C-152.25202576 199.0442218 -152.91202576 198.7142218 -153.59202576 198.3742218 C-154.31635922 196.39437699 -154.96946547 194.38838742 -155.59202576 192.3742218 C-156.31216873 190.45590992 -157.03265463 188.53772514 -157.75584412 186.62055969 C-162.17419789 174.75099092 -165.92515171 162.71503369 -169.02952576 150.4367218 C-169.28838562 149.42480774 -169.54724548 148.41289368 -169.81394958 147.37031555 C-170.98065455 142.61864444 -171.93431575 138.30820677 -171.59202576 133.3742218 C-172.25202576 133.0442218 -172.91202576 132.7142218 -173.59202576 132.3742218 C-174.04333005 130.01741052 -174.35310484 127.75608374 -174.59202576 125.3742218 C-174.6717865 124.63744202 -174.75154724 123.90066223 -174.83372498 123.14155579 C-175.55424714 116.24884131 -176.14321323 109.34296543 -176.71702576 102.4367218 C-176.80468201 101.39580383 -176.89233826 100.35488586 -176.98265076 99.28242493 C-178.99074461 73.90594861 -178.99074461 73.90594861 -170.59202576 63.3742218 C-164.56322205 56.87487732 -158.05053473 54.32742974 -149.26390076 53.8976593 C-146.95694427 53.83445501 -144.64956623 53.78527712 -142.34202576 53.7492218 C-140.02423451 53.69816913 -137.7065167 53.64363126 -135.38890076 53.5851593 C-134.37150818 53.56759583 -133.3541156 53.55003235 -132.30589294 53.53193665 C-129.91539557 53.39301425 -127.8786857 53.05394749 -125.59202576 52.3742218 C-125.59202576 53.0342218 -125.59202576 53.6942218 -125.59202576 54.3742218 C-123.30003398 54.23359045 -121.0084339 54.08656237 -118.71702576 53.9367218 C-117.44085388 53.85551086 -116.16468201 53.77429993 -114.84983826 53.69062805 C-111.70902423 53.58216153 -111.70902423 53.58216153 -109.59202576 52.3742218 C-109.59202576 53.0342218 -109.59202576 53.6942218 -109.59202576 54.3742218 C-105.46228948 53.80682312 -105.46228948 53.80682312 -101.59202576 52.3742218 C-101.59202576 53.0342218 -101.59202576 53.6942218 -101.59202576 54.3742218 C-100.39577576 54.0235968 -99.19952576 53.6729718 -97.96702576 53.3117218 C-94.19025378 52.3474396 -91.42673193 52.55249905 -87.59202576 53.3742218 C-86.93202576 53.0442218 -86.27202576 52.7142218 -85.59202576 52.3742218 C-85.59202576 53.0342218 -85.59202576 53.6942218 -85.59202576 54.3742218 C-81.46228948 53.80682312 -81.46228948 53.80682312 -77.59202576 52.3742218 C-77.59202576 53.0342218 -77.59202576 53.6942218 -77.59202576 54.3742218 C-76.72577576 53.8792218 -76.72577576 53.8792218 -75.84202576 53.3742218 C-73.59202576 52.3742218 -73.59202576 52.3742218 -69.59202576 52.3742218 C-69.59202576 53.0342218 -69.59202576 53.6942218 -69.59202576 54.3742218 C-64.64202576 54.3742218 -59.69202576 54.3742218 -54.59202576 54.3742218 C-54.09702576 53.3842218 -54.09702576 53.3842218 -53.59202576 52.3742218 C-53.59202576 53.0342218 -53.59202576 53.6942218 -53.59202576 54.3742218 C-50.95202576 54.3742218 -48.31202576 54.3742218 -45.59202576 54.3742218 C-45.59202576 53.7142218 -45.59202576 53.0542218 -45.59202576 52.3742218 C-45.10161804 51.94198303 -44.61121033 51.50974426 -44.10594177 51.06440735 C-42.03850728 48.7562556 -42.27236394 47.3906382 -42.36936951 44.33125305 C-42.38806091 43.33931946 -42.40675232 42.34738586 -42.42601013 41.32539368 C-42.46017029 40.28963196 -42.49433044 39.25387024 -42.52952576 38.1867218 C-42.84268844 27.67911424 -42.6773921 17.99488987 -35.21702576 9.7492218 C-34.35077576 8.9654718 -33.48452576 8.1817218 -32.59202576 7.3742218 C-31.91140076 6.6729718 -31.23077576 5.9717218 -30.52952576 5.2492218 C-21.51454478 -0.50502137 -10.32731925 -0.0557234 0 0 Z M-111.59202576 114.3742218 C-110.87683926 122.26159729 -110.87683926 122.26159729 -109.43577576 129.83906555 C-109.21792419 130.74076477 -109.00007263 131.64246399 -108.77561951 132.57148743 C-108.55003357 133.47576477 -108.32444763 134.38004211 -108.09202576 135.3117218 C-107.86643982 136.24306946 -107.64085388 137.17441711 -107.40843201 138.13398743 C-106.56398686 141.59421383 -105.71884501 144.99376404 -104.59202576 148.3742218 C-103.60202576 148.3742218 -102.61202576 148.3742218 -101.59202576 148.3742218 C-101.80729919 149.22242493 -102.02257263 150.07062805 -102.24436951 150.9445343 C-102.66916761 155.13523914 -101.78427507 157.38015459 -100.15452576 161.2492218 C-99.88301697 161.89560608 -99.61150818 162.54199036 -99.33177185 163.20796204 C-90.3365679 184.22458105 -79.09459409 204.45536945 -63.59202576 221.3742218 C-62.56632689 222.55752175 -61.54539804 223.74497499 -60.52952576 224.9367218 C-60.04870544 225.49617493 -59.56788513 226.05562805 -59.07249451 226.6320343 C-58.02251442 227.86763092 -56.98462119 229.11354479 -55.95530701 230.3664093 C-55.42292419 231.00836243 -54.89054138 231.65031555 -54.34202576 232.3117218 C-53.86249451 232.89824524 -53.38296326 233.48476868 -52.88890076 234.08906555 C-51.65955462 235.60885189 -51.65955462 235.60885189 -49.59202576 235.3742218 C-49.26202576 236.3642218 -48.93202576 237.3542218 -48.59202576 238.3742218 C-36.2383454 251.45663049 -16.63515287 265.37656083 0.40797424 271.3742218 C2.66506888 271.11487074 2.66506888 271.11487074 4.40797424 270.3742218 C3.91168518 269.4048468 3.41539612 268.4354718 2.90406799 267.4367218 C-5.16774423 251.55515619 -12.58771422 235.30824825 -17.91624451 218.27656555 C-18.5523264 216.34141123 -18.5523264 216.34141123 -19.57395935 214.51387024 C-20.58648947 212.3858573 -21.0985663 210.54174239 -21.55686951 208.23750305 C-22.59175582 203.29776713 -23.85169268 198.43671443 -25.15452576 193.5617218 C-25.59351626 191.9094281 -26.03232501 190.2570861 -26.47093201 188.60469055 C-26.66243835 187.88692444 -26.8539447 187.16915833 -27.05125427 186.42964172 C-27.31893616 185.41220886 -27.31893616 185.41220886 -27.59202576 184.3742218 C-27.75775085 183.7461261 -27.92347595 183.1180304 -28.09422302 182.47090149 C-31.30822471 168.93394882 -33.30797625 154.9462357 -35.34202576 141.1867218 C-35.45723572 140.43721252 -35.57244568 139.68770325 -35.69114685 138.91548157 C-36.85528665 130.72159287 -37.10097524 122.72208051 -37.59202576 114.3742218 C-62.01202576 114.3742218 -86.43202576 114.3742218 -111.59202576 114.3742218 Z M451.59327698 113.46601868 C450.8811203 113.47577225 450.16896362 113.48552582 449.43522644 113.49557495 C447.07067273 113.52797568 444.70612037 113.56047355 442.34156799 113.5929718 C440.70631925 113.61539801 439.07107043 113.63781818 437.43582153 113.66023254 C433.12364114 113.71935591 428.81146187 113.77856152 424.49928284 113.83778381 C420.10231086 113.89815622 415.70533782 113.95845147 411.30836487 114.01875305 C402.67490028 114.13716678 394.0414369 114.25566733 385.40797424 114.3742218 C385.32920547 115.20544052 385.25043671 116.03665924 385.16928101 116.89306641 C384.86747362 120.05503874 384.56162431 123.21659005 384.25326538 126.37792969 C384.05838937 128.38775795 383.8679394 130.39801384 383.67762756 132.40827942 C381.49003013 154.74244348 377.13823186 176.68691119 371.40797424 198.3742218 C371.15322327 199.34601379 370.89847229 200.31780579 370.63600159 201.31904602 C364.95808876 222.65304701 357.99125661 244.70730795 346.77125549 263.8195343 C345.17257511 266.33272887 345.17257511 266.33272887 345.40797424 269.3742218 C344.74797424 269.3742218 344.08797424 269.3742218 343.40797424 269.3742218 C343.07797424 270.3642218 342.74797424 271.3542218 342.40797424 272.3742218 C347.0623788 271.74403163 350.95362167 269.85096253 355.09547424 267.7492218 C355.80735901 267.3894928 356.51924377 267.02976379 357.25270081 266.65913391 C363.01513731 263.68832716 368.24138281 260.29312746 373.40797424 256.3742218 C374.80209534 255.37648743 374.80209534 255.37648743 376.22438049 254.3585968 C383.58500306 249.02286519 390.26185528 243.1891306 396.81422424 236.90058899 C398.34504433 235.43449108 399.89138305 233.9863623 401.43922424 232.5382843 C412.15130568 222.34968602 420.77284035 210.46354381 429.03297424 198.2492218 C429.43467834 197.65842834 429.83638245 197.06763489 430.2502594 196.4589386 C432.82627806 192.55831628 434.63908952 188.6731477 436.40797424 184.3742218 C436.73797424 184.0442218 437.06797424 183.7142218 437.40797424 183.3742218 C448.34730169 163.08816589 459.95595356 136.78741356 459.40797424 113.3742218 C456.8032745 113.3742218 454.19758508 113.43028203 451.59327698 113.46601868 Z M-103.59202576 149.3742218 C-102.59202576 151.3742218 -102.59202576 151.3742218 -102.59202576 151.3742218 Z " fill="#282929" transform="translate(333.59202575683594,187.6257781982422)"/>
<path d="M0 0 C0.33 0 0.66 0 1 0 C1.0246985 3.95099928 1.04285923 7.90196874 1.05493164 11.85302734 C1.06244036 13.85906551 1.0751447 15.86508202 1.08789062 17.87109375 C1.09111328 19.12792969 1.09433594 20.38476562 1.09765625 21.6796875 C1.10289307 22.84226074 1.10812988 24.00483398 1.11352539 25.20263672 C1 28 1 28 0 30 C-37.95 30 -75.9 30 -115 30 C-115 29.34 -115 28.68 -115 28 C-114.23333008 27.97494385 -113.46666016 27.9498877 -112.67675781 27.92407227 C-109.20100717 27.80798577 -105.72551908 27.68531634 -102.25 27.5625 C-101.0434375 27.52318359 -99.836875 27.48386719 -98.59375 27.44335938 C-96.85351562 27.38051758 -96.85351562 27.38051758 -95.078125 27.31640625 C-93.47565918 27.26141968 -93.47565918 27.26141968 -91.84082031 27.20532227 C-89.41688848 27.03013091 -87.32113288 26.68801513 -85 26 C-85 26.66 -85 27.32 -85 28 C-82.70800823 27.85936865 -80.41640814 27.71234057 -78.125 27.5625 C-76.84882813 27.48128906 -75.57265625 27.40007812 -74.2578125 27.31640625 C-71.11699848 27.20793973 -71.11699848 27.20793973 -69 26 C-69 26.66 -69 27.32 -69 28 C-64.87026372 27.43260132 -64.87026372 27.43260132 -61 26 C-61 26.66 -61 27.32 -61 28 C-59.80375 27.649375 -58.6075 27.29875 -57.375 26.9375 C-53.59822803 25.97321779 -50.83470617 26.17827725 -47 27 C-46.01 26.505 -46.01 26.505 -45 26 C-45 26.66 -45 27.32 -45 28 C-40.87026372 27.43260132 -40.87026372 27.43260132 -37 26 C-37 26.66 -37 27.32 -37 28 C-36.4225 27.67 -35.845 27.34 -35.25 27 C-33 26 -33 26 -29 26 C-29 26.66 -29 27.32 -29 28 C-24.05 28 -19.1 28 -14 28 C-13.67 27.34 -13.34 26.68 -13 26 C-13 26.66 -13 27.32 -13 28 C-10.36 28 -7.72 28 -5 28 C-5 27.34 -5 26.68 -5 26 C-4.50628906 25.63519531 -4.01257813 25.27039063 -3.50390625 24.89453125 C-1.08682878 21.84964145 -1.77059252 18.39410564 -1.9375 14.6875 C-2.15593894 9.30088864 -2.08427049 5.10119121 0 0 Z " fill="#282727" transform="translate(293,214)"/>
<path d="M0 0 C0.66 0 1.32 0 2 0 C2 0.66 2 1.32 2 2 C6.12973628 1.43260132 6.12973628 1.43260132 10 0 C10 0.66 10 1.32 10 2 C10.7633667 1.9292627 11.5267334 1.85852539 12.31323242 1.78564453 C22.38305703 0.95168336 32.39493859 0.84680243 42.49389648 0.86962891 C45.29741879 0.87497126 48.10077952 0.86966125 50.90429688 0.86328125 C59.52009053 0.85892175 68.12433178 0.95154812 76.73046875 1.3828125 C77.79627922 1.4283577 77.79627922 1.4283577 78.88362122 1.474823 C83.76160027 1.76160027 83.76160027 1.76160027 86 4 C49.04 4 12.08 4 -26 4 C-22.23182474 1.48788316 -19.00489113 1.55256315 -14.625 1.375 C-13.49191406 1.31699219 -13.49191406 1.31699219 -12.3359375 1.2578125 C-9.223308 1.10544602 -6.14044154 0.99815694 -3.0234375 1.0390625 C-1.00285048 1.23395944 -1.00285048 1.23395944 0 0 Z " fill="#111111" transform="translate(750,240)"/>
<path d="M0 0 C1.32 0 2.64 0 4 0 C4 0.66 4 1.32 4 2 C6.29199177 1.85936865 8.58359186 1.71234057 10.875 1.5625 C12.15117187 1.48128906 13.42734375 1.40007812 14.7421875 1.31640625 C17.88300152 1.20793973 17.88300152 1.20793973 20 0 C20 0.66 20 1.32 20 2 C53.66 2.495 53.66 2.495 88 3 C88 3.33 88 3.66 88 4 C50.38 4 12.76 4 -26 4 C-26 3.34 -26 2.68 -26 2 C-17.42 1.67 -8.84 1.34 0 1 C0 0.67 0 0.34 0 0 Z " fill="#020203" transform="translate(204,240)"/>
<path d="M0 0 C-0.33 0.66 -0.66 1.32 -1 2 C-4.59772921 3.19924307 -7.87692218 3.14303093 -11.62109375 3.1328125 C-12.38546249 3.13413177 -13.14983124 3.13545105 -13.93736267 3.1368103 C-16.43744917 3.13873227 -18.93742481 3.13237678 -21.4375 3.125 C-22.28459534 3.12411377 -23.13169067 3.12322754 -24.00445557 3.12231445 C-39.35374999 3.10344668 -54.66636411 2.71549356 -70 2 C-70 1.67 -70 1.34 -70 1 C-69.20708557 0.98969254 -68.41417114 0.97938507 -67.597229 0.96876526 C-60.12260033 0.87076356 -52.64805368 0.76824531 -45.17355728 0.66066074 C-41.33090281 0.60551043 -37.48824062 0.5521032 -33.64550781 0.50268555 C-29.93665809 0.4549254 -26.22789881 0.40257864 -22.51915741 0.34705925 C-21.1046143 0.32668841 -19.69004644 0.30796675 -18.27545929 0.29092598 C-16.29328191 0.26676528 -14.31118596 0.23618277 -12.32910156 0.20532227 C-10.63699554 0.18200584 -10.63699554 0.18200584 -8.91070557 0.15821838 C-6.08113809 0.0981435 -6.08113809 0.0981435 -3.72943115 -0.57533264 C-2 -1 -2 -1 0 0 Z " fill="#101011" transform="translate(692,867)"/>
<path d="M0 0 C4.40526628 3.70536416 6.61585929 8.49467052 9.25 13.5 C13.04334713 20.59427632 16.99148041 27.27768079 21.734375 33.78515625 C22.15203125 34.51605469 22.5696875 35.24695313 23 36 C22.67 36.99 22.34 37.98 22 39 C16.32757666 31.27920156 11.28176615 23.30051921 6.5 15 C5.97180664 14.0922583 5.44361328 13.1845166 4.89941406 12.24926758 C4.16029785 10.95025513 4.16029785 10.95025513 3.40625 9.625 C2.74592773 8.46871094 2.74592773 8.46871094 2.07226562 7.2890625 C0.93458855 4.86036025 0.41760017 2.64091279 0 0 Z " fill="#1E1E1E" transform="translate(237,360)"/>
<path d="M0 0 C2.98914417 2.58893818 4.49484432 5.56196749 6.28515625 9.05859375 C6.58691269 9.64415543 6.88866913 10.2297171 7.1995697 10.83302307 C8.15927474 12.69847003 9.11095238 14.56788113 10.0625 16.4375 C10.70585944 17.69102263 11.34973441 18.9442808 11.99414062 20.19726562 C14.3515918 24.78703041 16.70055637 29.38083792 19 34 C18.01 34 17.02 34 16 34 C15.61666504 33.28344238 15.23333008 32.56688477 14.83837891 31.82861328 C13.10427851 28.59208116 11.3647135 25.35851814 9.625 22.125 C9.02171875 20.99707031 8.4184375 19.86914062 7.796875 18.70703125 C7.21679688 17.63066406 6.63671875 16.55429687 6.0390625 15.4453125 C5.50490723 14.45031738 4.97075195 13.45532227 4.42041016 12.43017578 C3.09385416 9.92474749 3.09385416 9.92474749 1 8 C0.04147717 5.1244315 0 3.12889911 0 0 Z " fill="#1E1E1E" transform="translate(184,389)"/>
<path d="M0 0 C0.66 0.33 1.32 0.66 2 1 C-6.48372445 9.20187314 -15.23065722 16.37969575 -25 23 C-25.66 22.67 -26.32 22.34 -27 22 C-22.43145478 17.1268851 -17.24305151 13.1207108 -12 9 C-11.12730469 8.29230469 -10.25460937 7.58460938 -9.35546875 6.85546875 C-7.00352103 5.00277361 -4.56979936 3.52798881 -2 2 C-1.34 1.34 -0.68 0.68 0 0 Z " fill="#1E1E1F" transform="translate(732,424)"/>
<path d="M0 0 C3.40812038 0.56802006 4.90863769 1.559196 7.125 4.1875 C7.62257813 4.75855469 8.12015625 5.32960937 8.6328125 5.91796875 C11.94484708 10.96172428 12.25002607 15.93672551 11.9765625 21.8046875 C11.95153656 22.5286673 11.92651062 23.25264709 11.90072632 23.99856567 C11.81912307 26.29122997 11.72230838 28.58295404 11.625 30.875 C11.56669915 32.43746267 11.50939727 33.99996296 11.453125 35.5625 C11.31363453 39.37553227 11.16050714 43.18779693 11 47 C10.67 47 10.34 47 10 47 C9.98541748 46.07251953 9.97083496 45.14503906 9.95581055 44.18945312 C9.89438849 40.71509192 9.82017084 37.24147547 9.73754883 33.76757812 C9.70450134 32.27028528 9.67640798 30.7728739 9.65356445 29.27539062 C9.52388835 17.81290978 9.52388835 17.81290978 6 7 C5.5359375 5.824375 5.5359375 5.824375 5.0625 4.625 C3.70157968 2.54359246 2.27701388 1.91080555 0 1 C0 0.67 0 0.34 0 0 Z " fill="#1A1A1B" transform="translate(711,195)"/>
<path d="M0 0 C1.32 0.33 2.64 0.66 4 1 C4 1.66 4 2.32 4 3 C4.66 3 5.32 3 6 3 C7.11956816 4.08458165 8.23077447 5.17860765 9.30859375 6.3046875 C12.27702663 9.27997589 15.45759572 12.02470374 18.59765625 14.81640625 C20.80025741 16.81844535 22.91503048 18.8765091 25 21 C20.93065929 21 19.76132673 19.41866292 16.6875 16.8125 C15.71554687 15.99265625 14.74359375 15.1728125 13.7421875 14.328125 C12.83726562 13.55984375 11.93234375 12.7915625 11 12 C9.77195265 11.01942988 8.5430758 10.03989513 7.3125 9.0625 C6.549375 8.381875 5.78625 7.70125 5 7 C5 6.34 5 5.68 5 5 C4.360625 4.731875 3.72125 4.46375 3.0625 4.1875 C1 3 1 3 0 0 Z " fill="#222222" transform="translate(278,420)"/>
<path d="M0 0 C4.63404081 1.19161049 6.4048178 3.46655266 8.984375 7.24609375 C11.27265651 11.1977799 11.18326039 15.01558187 11.1875 19.4375 C11.20167969 20.75621094 11.21585938 22.07492187 11.23046875 23.43359375 C11.02228903 26.6550867 10.72168766 28.33920999 9 31 C8.96261719 29.77023437 8.92523437 28.54046875 8.88671875 27.2734375 C8.82102972 25.64059599 8.75458341 24.00778482 8.6875 22.375 C8.66494141 21.56675781 8.64238281 20.75851562 8.61914062 19.92578125 C8.26006876 11.8956286 5.77260863 7.61659218 0 2 C0 1.34 0 0.68 0 0 Z " fill="#141414" transform="translate(694,821)"/>
<path d="M0 0 C0.66 0 1.32 0 2 0 C2.76214036 10.35694312 3.13430792 20.6135207 3 31 C0.55589869 26.43767755 -0.12637453 22.74741601 -0.09765625 17.578125 C-0.09443359 16.55332031 -0.09121094 15.52851563 -0.08789062 14.47265625 C-0.07951172 13.40917969 -0.07113281 12.34570312 -0.0625 11.25 C-0.05798828 10.17105469 -0.05347656 9.09210938 -0.04882812 7.98046875 C-0.03705727 5.32025617 -0.02061399 2.66015635 0 0 Z " fill="#161616" transform="translate(157,270)"/>
<path d="M0 0 C0.99 0.33 1.98 0.66 3 1 C-2.93629066 8.76955689 -8.78873194 16.34662373 -16 23 C-16.33 22.01 -16.66 21.02 -17 20 C-16.29037109 19.34257812 -16.29037109 19.34257812 -15.56640625 18.671875 C-9.59537048 12.94526759 -4.82121732 6.69613516 0 0 Z " fill="#212120" transform="translate(752,399)"/>
<path d="M0 0 C-1.98886722 1.00331248 -3.97986103 1.99063852 -6 2.9296875 C-12.26805543 5.89232308 -15.41564547 8.45296852 -18 15 C-18.99 15.66 -19.98 16.32 -21 17 C-20.86271945 11.50877804 -18.57086854 8.68184562 -14.96484375 4.83984375 C-10.3178899 0.48852116 -6.50849862 -1.90492643 0 0 Z " fill="#1C1C1C" transform="translate(180,244)"/>
<path d="M0 0 C0.33 0 0.66 0 1 0 C1.65655389 8.68761489 2.16311941 17.28217363 2 26 C3.65 26.33 5.3 26.66 7 27 C5 29 5 29 0 30 C0 20.1 0 10.2 0 0 Z " fill="#2F2F2E" transform="translate(722,214)"/>
<path d="M0 0 C1.32 0 2.64 0 4 0 C4 0.66 4 1.32 4 2 C6.29199177 1.85936865 8.58359186 1.71234057 10.875 1.5625 C12.15117187 1.48128906 13.42734375 1.40007812 14.7421875 1.31640625 C17.88300152 1.20793973 17.88300152 1.20793973 20 0 C20 0.99 20 1.98 20 3 C4.82 3 -10.36 3 -26 3 C-26 2.67 -26 2.34 -26 2 C-17.42 1.67 -8.84 1.34 0 1 C0 0.67 0 0.34 0 0 Z " fill="#252424" transform="translate(204,240)"/>
<path d="M0 0 C3.33209776 1.28336016 6.49104583 2.70953452 9.64453125 4.3828125 C10.48564453 4.82753906 11.32675781 5.27226563 12.19335938 5.73046875 C13.48983398 6.42076172 13.48983398 6.42076172 14.8125 7.125 C15.69615234 7.59292969 16.57980469 8.06085937 17.49023438 8.54296875 C19.66135525 9.69307603 21.8312226 10.84548146 24 12 C21.53185126 12.8964883 20.33470425 13.11607374 17.81762695 12.24316406 C17.04894287 11.83807617 16.28025879 11.43298828 15.48828125 11.015625 C14.64845703 10.57476563 13.80863281 10.13390625 12.94335938 9.6796875 C12.07517578 9.20789063 11.20699219 8.73609375 10.3125 8.25 C9.43271484 7.79367187 8.55292969 7.33734375 7.64648438 6.8671875 C1.13015786 3.39047359 1.13015786 3.39047359 0 0 Z " fill="#201F20" transform="translate(293,510)"/>
<path d="M0 0 C4.12771485 3.86973267 7.5623852 8.13462969 11.03515625 12.59765625 C12.95966157 15.04358081 12.95966157 15.04358081 15.24609375 17.18359375 C17 19 17 19 17 21 C11.66250051 18.74182714 7.34890846 15.32419252 5 10 C3.70618448 8.20188578 2.37556466 6.43823276 1.0234375 4.68359375 C0 3 0 3 0 0 Z " fill="#1D1D1D" transform="translate(212,437)"/>
<path d="M0 0 C5.46324201 -0.47213203 7.83092374 1.63394959 11.90625 4.99609375 C15.53867133 8.47264625 17.8119073 11.78991079 18.25 16.9375 C18.1675 17.618125 18.085 18.29875 18 19 C16.89876052 17.34814078 15.81877945 15.67857841 14.84375 13.94921875 C11.41729884 8.18202334 7.89025262 5.23376245 1.9765625 2.09375 C1.32429687 1.7328125 0.67203125 1.371875 0 1 C0 0.67 0 0.34 0 0 Z " fill="#202120" transform="translate(645,743)"/>
<path d="M0 0 C4.24607828 0.57129053 7.05384562 2.04341987 10.625 4.375 C11.56601562 4.98085938 12.50703125 5.58671875 13.4765625 6.2109375 C15.56506715 7.69164203 17.2804251 9.11885431 19 11 C17.3125 11.75 17.3125 11.75 15 12 C12.8125 10.4375 12.8125 10.4375 10 8 C7.6508059 6.42182345 5.27527377 4.89115178 2.890625 3.3671875 C1 2 1 2 0 0 Z " fill="#232323" transform="translate(306,444)"/>
<path d="M0 0 C0.66 0 1.32 0 2 0 C1.31703507 3.7881788 -0.3832968 6.69515513 -2.3125 10 C-3.20388672 11.546875 -3.20388672 11.546875 -4.11328125 13.125 C-5.86614214 15.79602611 -7.6551662 17.84668684 -10 20 C-9.44780012 15.01082568 -7.12648636 11.38056063 -4.5625 7.1875 C-4.15451172 6.49462891 -3.74652344 5.80175781 -3.32617188 5.08789062 C-2.27866953 3.35344547 -1.14567971 1.67122086 0 0 Z " fill="#1E1E1E" transform="translate(768,375)"/>
<path d="M0 0 C1.08046771 3.24140312 0.94713849 4.0316313 0.07421875 7.1953125 C-0.14556641 7.99324219 -0.36535156 8.79117187 -0.59179688 9.61328125 C-0.82962891 10.44214844 -1.06746094 11.27101563 -1.3125 12.125 C-1.53873047 12.96160156 -1.76496094 13.79820312 -1.99804688 14.66015625 C-3.29661008 19.27810147 -3.29661008 19.27810147 -4 21 C-4.66 21.33 -5.32 21.66 -6 22 C-4.57142857 4.57142857 -4.57142857 4.57142857 0 0 Z " fill="#1E1E1E" transform="translate(791,319)"/>
<path d="M0 0 C0.33 0 0.66 0 1 0 C1.38095238 16.25396825 1.38095238 16.25396825 -1 23 C-1.66 23.66 -2.32 24.32 -3 25 C-2.34938113 16.61044093 -1.25101251 8.31984045 0 0 Z " fill="#171616" transform="translate(715,324)"/>
<path d="M0 0 C0.33 0 0.66 0 1 0 C1.52050035 16.13551077 1.52050035 16.13551077 -2.57421875 20.7890625 C-3.04472656 21.18867188 -3.51523437 21.58828125 -4 22 C-3.51298949 14.40935336 -2.00236413 7.32940833 0 0 Z " fill="#191919" transform="translate(852,314)"/>
<path d="M0 0 C0.33 0 0.66 0 1 0 C1.33977725 3.33270874 1.67063063 6.66624786 2 10 C2.14308594 11.40185547 2.14308594 11.40185547 2.2890625 12.83203125 C2.81980465 18.25318323 3.1027694 23.55322171 3 29 C2.67 29 2.34 29 2 29 C-0.57996518 23.12905562 -0.22552426 17.40390015 -0.125 11.125 C-0.11597656 10.05507813 -0.10695313 8.98515625 -0.09765625 7.8828125 C-0.07419342 5.25497561 -0.04136459 2.62760594 0 0 Z " fill="#131212" transform="translate(297,303)"/>
<path d="M0 0 C-0.33 0.66 -0.66 1.32 -1 2 C-4.46827695 3.15609232 -7.2215584 3.13272398 -10.875 3.125 C-12.08929687 3.12757813 -13.30359375 3.13015625 -14.5546875 3.1328125 C-17.51119095 3.01884298 -20.13191815 2.68703101 -23 2 C-23 1.67 -23 1.34 -23 1 C-21.81921875 0.93941406 -20.6384375 0.87882813 -19.421875 0.81640625 C-17.8645723 0.73197418 -16.30728121 0.64732751 -14.75 0.5625 C-13.97269531 0.52318359 -13.19539062 0.48386719 -12.39453125 0.44335938 C-11.64042969 0.40146484 -10.88632812 0.35957031 -10.109375 0.31640625 C-9.41811523 0.27974854 -8.72685547 0.24309082 -8.01464844 0.20532227 C-5.9591649 0.05158498 -5.9591649 0.05158498 -3.86816406 -0.58227539 C-2 -1 -2 -1 0 0 Z " fill="#191819" transform="translate(692,867)"/>
<path d="M0 0 C-2.06037901 2.06037901 -3.7200925 2.91090269 -6.3125 4.1875 C-11.03925106 6.73384654 -13.23261898 9.44721187 -16 14 C-16.59375 12.15234375 -16.59375 12.15234375 -17 10 C-13.16077011 3.76125143 -7.52916483 -0.91819083 0 0 Z " fill="#1D1D1D" transform="translate(312,191)"/>
<path d="M0 0 C0.33 0 0.66 0 1 0 C1.27263672 1.35544922 1.27263672 1.35544922 1.55078125 2.73828125 C1.80214844 3.91777344 2.05351563 5.09726562 2.3125 6.3125 C2.55613281 7.48425781 2.79976562 8.65601563 3.05078125 9.86328125 C3.99469452 12.98246789 4.58267321 13.9803825 7 16 C7.66 16.99 8.32 17.98 9 19 C6.625 18.8125 6.625 18.8125 4 18 C2.6875 15.4375 2.6875 15.4375 2 13 C1.34 13 0.68 13 0 13 C0 8.71 0 4.42 0 0 Z " fill="#191919" transform="translate(567,720)"/>
<path d="M0 0 C0.66 0 1.32 0 2 0 C2.33 8.25 2.66 16.5 3 25 C2.67 25 2.34 25 2 25 C1.67 26.65 1.34 28.3 1 30 C0.67 30 0.34 30 0 30 C0 20.1 0 10.2 0 0 Z " fill="#373737" transform="translate(452,593)"/>
<path d="M0 0 C2.05098565 4.1019713 2.27081004 5.91124699 2.25 10.375 C2.25515625 11.47585938 2.2603125 12.57671875 2.265625 13.7109375 C1.99205949 17.09832226 1.20501669 19.83444028 0 23 C-0.33 23 -0.66 23 -1 23 C-0.67 15.41 -0.34 7.82 0 0 Z " fill="#2E2F2F" transform="translate(446,704)"/>
<path d="M0 0 C0.61254883 1.78417969 0.61254883 1.78417969 1 4 C-0.34441236 6.57800547 -1.6954841 8.85730278 -3.3125 11.25 C-3.72951172 11.8996875 -4.14652344 12.549375 -4.57617188 13.21875 C-5.65437444 14.8558295 -6.82117621 16.43381848 -8 18 C-8.66 18 -9.32 18 -10 18 C-8.47146065 13.72813475 -6.28490519 10.00673137 -3.875 6.1875 C-3.50246094 5.59001953 -3.12992188 4.99253906 -2.74609375 4.37695312 C-1.8342952 2.91573749 -0.91764024 1.45755415 0 0 Z " fill="#1E1E1E" transform="translate(817,414)"/>
<path d="M0 0 C-0.33 0.66 -0.66 1.32 -1 2 C-6.28 2 -11.56 2 -17 2 C-17.33 1.34 -17.66 0.68 -18 0 C-11.96496237 -1.50875941 -6.10261631 -0.64186094 0 0 Z " fill="#131313" transform="translate(347,817)"/>
<path d="M0 0 C3.79049707 1.42749981 7.27122456 3.16236542 10.8125 5.125 C12.27623047 5.93324219 12.27623047 5.93324219 13.76953125 6.7578125 C14.50558594 7.16773438 15.24164063 7.57765625 16 8 C15.67 8.66 15.34 9.32 15 10 C9.84754943 8.58307609 5.17298579 6.35631554 1 3 C0.67 2.01 0.34 1.02 0 0 Z " fill="#1D1D1D" transform="translate(430,580)"/>
<path d="M0 0 C-0.53109375 0.37511719 -1.0621875 0.75023437 -1.609375 1.13671875 C-5.68773728 4.09129873 -9.06192 6.83771999 -12 11 C-12 6.6863336 -11.82848171 6.29409107 -9.125 3.3125 C-8.59132813 2.71050781 -8.05765625 2.10851562 -7.5078125 1.48828125 C-4.80662306 -1.17791869 -3.4925385 -1.04776155 0 0 Z " fill="#1E1E1E" transform="translate(324,820)"/>
<path d="M0 0 C3.94914145 0.56416306 6.86771202 1.47676802 10 4 C10.8125 7.1875 10.8125 7.1875 11 10 C10.54109375 9.59007812 10.0821875 9.18015625 9.609375 8.7578125 C8.68898438 7.94957031 8.68898438 7.94957031 7.75 7.125 C7.14671875 6.59132812 6.5434375 6.05765625 5.921875 5.5078125 C4.02581254 4.0202513 2.18709995 2.99677564 0 2 C0 1.34 0 0.68 0 0 Z " fill="#222221" transform="translate(841,245)"/>
<path d="M0 0 C0.95465783 2.16967689 1.14401212 3.56328793 0.3984375 5.82421875 C-0.35870385 7.5684743 -1.17609198 9.28627131 -2 11 C-2.66 11 -3.32 11 -4 11 C-4.66 12.32 -5.32 13.64 -6 15 C-6.66 14.67 -7.32 14.34 -8 14 C-7.59007812 13.32453125 -7.18015625 12.6490625 -6.7578125 11.953125 C-6.21898437 11.06109375 -5.68015625 10.1690625 -5.125 9.25 C-4.59132813 8.36828125 -4.05765625 7.4865625 -3.5078125 6.578125 C-2.24403334 4.41725907 -1.08501165 2.25429605 0 0 Z " fill="#191A1A" transform="translate(681,446)"/>
<path d="M0 0 C3.34953234 0.6172172 5.47878824 1.83203165 8.1875 3.875 C9.22970703 4.64457031 9.22970703 4.64457031 10.29296875 5.4296875 C12 7 12 7 13 10 C7.65978754 8.49806525 3.86352256 4.82517494 0 1 C0 0.67 0 0.34 0 0 Z " fill="#1A1B1B" transform="translate(290,432)"/>
<path d="M0 0 C4.00972202 3.67557852 6.45335415 7.18966896 9 12 C8.01 12 7.02 12 6 12 C4.39453125 10.13671875 4.39453125 10.13671875 2.8125 7.6875 C2.28269531 6.88699219 1.75289062 6.08648437 1.20703125 5.26171875 C0 3 0 3 0 0 Z " fill="#1D1D1D" transform="translate(203,424)"/>
<path d="M0 0 C0.33 0 0.66 0 1 0 C1.21755666 5.4389165 1.10428384 9.87080814 -1 15 C-1.66 15 -2.32 15 -3 15 C-2.44854729 9.76119922 -1.57077907 5.02649303 0 0 Z " fill="#1C1C1C" transform="translate(847,337)"/>
<path d="M0 0 C-5.1468192 3.16727335 -9.158256 3.35050464 -15 3 C-12.74829688 0.74829688 -11.67012422 0.48526 -8.625 -0.1875 C-7.85414063 -0.36667969 -7.08328125 -0.54585937 -6.2890625 -0.73046875 C-3.88917728 -1.01304909 -2.28329465 -0.73503321 0 0 Z " fill="#1C1C1B" transform="translate(652,540)"/>
<path d="M0 0 C2.78600502 5.57201003 3.12170033 9.7932831 3 16 C1 13 1 13 1 11 C0.34 10.67 -0.32 10.34 -1 10 C-0.67 6.7 -0.34 3.4 0 0 Z " fill="#141414" transform="translate(161,310)"/>
<path d="M0 0 C3.96 0 7.92 0 12 0 C12.33 0.99 12.66 1.98 13 3 C11.02013918 2.88652381 9.04108402 2.7589065 7.0625 2.625 C5.96035156 2.55539062 4.85820313 2.48578125 3.72265625 2.4140625 C2.82417969 2.27742187 1.92570313 2.14078125 1 2 C0.67 1.34 0.34 0.68 0 0 Z " fill="#302F2F" transform="translate(671,816)"/>
<path d="M0 0 C0.66 0 1.32 0 2 0 C1.75881648 3.25597758 0.47775788 4.7276304 -1.875 6.8125 C-2.90625 7.534375 -3.9375 8.25625 -5 9 C-5.99 8.67 -6.98 8.34 -8 8 C-7.50628906 7.59007812 -7.01257813 7.18015625 -6.50390625 6.7578125 C-5.86324219 6.21898437 -5.22257812 5.68015625 -4.5625 5.125 C-3.92441406 4.59132813 -3.28632813 4.05765625 -2.62890625 3.5078125 C-0.89194996 2.0777243 -0.89194996 2.0777243 0 0 Z " fill="#191919" transform="translate(443,732)"/>
<path d="M0 0 C2 1 2 1 2.8515625 3.50390625 C3.10679687 4.51324219 3.36203125 5.52257812 3.625 6.5625 C3.88539063 7.57441406 4.14578125 8.58632813 4.4140625 9.62890625 C4.60742188 10.41136719 4.80078125 11.19382812 5 12 C2 11 2 11 0.8125 8.8125 C-0.07334979 5.74609689 -0.14770318 3.17561845 0 0 Z " fill="#1E1D1D" transform="translate(172,358)"/>
<path d="M0 0 C0.66 0 1.32 0 2 0 C2 2.64 2 5.28 2 8 C1.34 8 0.68 8 0 8 C0 10.64 0 13.28 0 16 C-0.33 16 -0.66 16 -1 16 C-1.09688221 10.55306686 -1.12862175 5.36095333 0 0 Z " fill="#373737" transform="translate(157,262)"/>
<path d="M0 0 C0 0.66 0 1.32 0 2 C-4.62 2 -9.24 2 -14 2 C-11.01745874 0.01163916 -9.86191192 -0.34336635 -6.4375 -0.6875 C-5.25994141 -0.81705078 -5.25994141 -0.81705078 -4.05859375 -0.94921875 C-2 -1 -2 -1 0 0 Z " fill="#0D0D0E" transform="translate(738,242)"/>
<path d="M0 0 C0.99 0.33 1.98 0.66 3 1 C-2.28571429 7.42857143 -2.28571429 7.42857143 -5 10 C-4.56802365 5.2482602 -3.67230705 3.07999946 0 0 Z " fill="#1C1C1C" transform="translate(355,748)"/>
<path d="M0 0 C4.2026393 2.63886654 7.56638098 5.36440339 11 9 C7.66864109 8.40300869 5.78724333 7.27987719 3.25 5.0625 C2.63640625 4.53785156 2.0228125 4.01320313 1.390625 3.47265625 C0 2 0 2 0 0 Z " fill="#191919" transform="translate(255,483)"/>
<path d="M0 0 C-3.36423277 2.96052484 -6.69159287 3.92289822 -11 5 C-10 2 -10 2 -7.1875 0.25 C-4.03596914 -0.98589446 -3.03070628 -1.28222189 0 0 Z " fill="#1C1D1D" transform="translate(699,452)"/>
<path d="M0 0 C1.15518918 0.90484792 2.29885406 1.8244206 3.4375 2.75 C4.07558594 3.26046875 4.71367187 3.7709375 5.37109375 4.296875 C7.18810554 6.19667629 7.60423197 7.43586908 8 10 C6.84481082 9.09515208 5.70114594 8.1755794 4.5625 7.25 C3.60537109 6.48429688 3.60537109 6.48429688 2.62890625 5.703125 C0.81189446 3.80332371 0.39576803 2.56413092 0 0 Z " fill="#1D1D1D" transform="translate(400,554)"/>
<path d="M0 0 C2.73704754 2.73704754 3.16182449 5.26044774 4 9 C3.625 11.4375 3.625 11.4375 3 13 C0.33409063 8.44573816 -0.31563182 5.26053037 0 0 Z " fill="#1A191A" transform="translate(168,344)"/>
<path d="M0 0 C0.99 0 1.98 0 3 0 C7.57142857 7.28571429 7.57142857 7.28571429 7 12 C5.31843245 9.47764868 3.83531994 6.96413358 2.375 4.3125 C1.92898438 3.50425781 1.48296875 2.69601562 1.0234375 1.86328125 C0.68570313 1.24839844 0.34796875 0.63351562 0 0 Z " fill="#181818" transform="translate(656,750)"/>
<path d="M0 0 C3.9492568 0.55105909 7.34920174 1.38935371 11 3 C11 3.33 11 3.66 11 4 C7.37 4 3.74 4 0 4 C0 2.66666667 0 1.33333333 0 0 Z " fill="#1F1E1F" transform="translate(341,532)"/>
<path d="M0 0 C3.31562557 0.55260426 6.15062207 1.16825705 9 3 C9.33 3.99 9.66 4.98 10 6 C7.8125 6.375 7.8125 6.375 5 6 C3.00977164 4.16038352 1.61010101 2.20813852 0 0 Z " fill="#1B1B1B" transform="translate(315,450)"/>
<path d="M0 0 C0.99 1.485 0.99 1.485 2 3 C2.66 3 3.32 3 4 3 C4 4.65 4 6.3 4 8 C3.67 8 3.34 8 3 8 C2.67 9.65 2.34 11.3 2 13 C1.67 13 1.34 13 1 13 C0.67 8.71 0.34 4.42 0 0 Z " fill="#3B3A3A" transform="translate(158,297)"/>
<path d="M0 0 C0.33 0.66 0.66 1.32 1 2 C-0.01553817 5.0466145 -1.20762558 7.31143836 -3 10 C-3.66 10 -4.32 10 -5 10 C-3.84414715 6.08788267 -2.64465038 3.1254959 0 0 Z " fill="#161616" transform="translate(776,362)"/>
<path d="M0 0 C4.46839215 -0.21278058 7.82262526 0.40861915 12 2 C12 2.33 12 2.66 12 3 C10.56344146 3.08131463 9.1255517 3.13933559 7.6875 3.1875 C6.48673828 3.23970703 6.48673828 3.23970703 5.26171875 3.29296875 C2.52148416 2.93801608 1.70828921 2.10633718 0 0 Z " fill="#181818" transform="translate(370,541)"/>
<path d="M0 0 C3.93673644 1.31224548 6.22719294 2.91910327 9 6 C5.21213403 5.4739075 2.82847776 4.61896089 0 2 C0 1.34 0 0.68 0 0 Z " fill="#1B1B1B" transform="translate(270,495)"/>
<path d="M0 0 C5.75 3.625 5.75 3.625 8 7 C5 7 5 7 2 5 C2 4.34 2 3.68 2 3 C1.34 3 0.68 3 0 3 C0 2.01 0 1.02 0 0 Z " fill="#1C1B1C" transform="translate(246,475)"/>
<path d="M0 0 C2 1 2 1 2.8515625 3.06640625 C3.10679687 3.89011719 3.36203125 4.71382813 3.625 5.5625 C3.88539063 6.38878906 4.14578125 7.21507812 4.4140625 8.06640625 C4.60742188 8.70449219 4.80078125 9.34257812 5 10 C4.01 10 3.02 10 2 10 C0.68373308 6.38026598 0 3.90432869 0 0 Z " fill="#1A1A1A" transform="translate(321,419)"/>
<path d="M0 0 C6.75 0.875 6.75 0.875 9 2 C9 2.66 9 3.32 9 4 C4.545 3.01 4.545 3.01 0 2 C0 1.34 0 0.68 0 0 Z " fill="#1C1C1D" transform="translate(684,817)"/>
<path d="M0 0 C0.6875 1.625 0.6875 1.625 1 4 C-0.4375 7.25 -0.4375 7.25 -2 10 C-2.66 10 -3.32 10 -4 10 C-3.52449439 8.51965236 -3.04448784 7.04074979 -2.5625 5.5625 C-2.29566406 4.73878906 -2.02882813 3.91507812 -1.75390625 3.06640625 C-1 1 -1 1 0 0 Z " fill="#1C1C1C" transform="translate(827,395)"/>
<path d="M0 0 C0.66 0.33 1.32 0.66 2 1 C1.67 4.63 1.34 8.26 1 12 C0.67 12 0.34 12 0 12 C-1.28571429 3.42857143 -1.28571429 3.42857143 0 0 Z " fill="#343434" transform="translate(854,300)"/>
<path d="M0 0 C0.33 0 0.66 0 1 0 C1.98248524 4.0527516 2.08159574 7.83861737 2 12 C0.4375 10.5 0.4375 10.5 -1 8 C-0.96823234 5.22562457 -0.50364148 2.74713533 0 0 Z " fill="#2F2F30" transform="translate(567,713)"/>
<path d="M0 0 C0.33 0 0.66 0 1 0 C1.37211538 7.56634615 1.37211538 7.56634615 -0.51171875 9.76171875 C-1.00285156 10.17035156 -1.49398437 10.57898438 -2 11 C-1.85892253 9.54119891 -1.71197585 8.08296449 -1.5625 6.625 C-1.48128906 5.81289063 -1.40007813 5.00078125 -1.31640625 4.1640625 C-1 2 -1 2 0 0 Z " fill="#131313" transform="translate(707,371)"/>
<path d="M0 0 C0.33 0.99 0.66 1.98 1 3 C-0.9375 5.6875 -0.9375 5.6875 -3 8 C-3.99 7.67 -4.98 7.34 -6 7 C-4.02 4.69 -2.04 2.38 0 0 Z " fill="#181818" transform="translate(617,550)"/>
<path d="M0 0 C2.475 0.495 2.475 0.495 5 1 C5.33 2.32 5.66 3.64 6 5 C4.02 4.34 2.04 3.68 0 3 C0 2.01 0 1.02 0 0 Z " fill="#313130" transform="translate(264,492)"/>
<path d="M0 0 C2.31 1.98 4.62 3.96 7 6 C6.01 6.33 5.02 6.66 4 7 C2 5.1875 2 5.1875 0 3 C0 2.01 0 1.02 0 0 Z " fill="#1D1C1D" transform="translate(235,464)"/>
<path d="M0 0 C1.65 0 3.3 0 5 0 C5.33 0.66 5.66 1.32 6 2 C6.99 2.66 7.98 3.32 9 4 C5.37471432 4.20140476 3.13498292 3.85776765 0 2 C0 1.34 0 0.68 0 0 Z " fill="#202020" transform="translate(333,459)"/>
<path d="M0 0 C3.16115776 1.36983503 3.9927092 1.9890638 6 5 C5.67 5.99 5.34 6.98 5 8 C0 2.25 0 2.25 0 0 Z " fill="#19191A" transform="translate(261,400)"/>
<path d="M0 0 C0.66 0 1.32 0 2 0 C1.125 5.75 1.125 5.75 0 8 C-0.66 8 -1.32 8 -2 8 C-1.125 2.25 -1.125 2.25 0 0 Z " fill="#1E1E1D" transform="translate(782,345)"/>
<path d="M0 0 C3 4 3 4 3.07421875 6.359375 C2.94660156 7.14828125 2.81898438 7.9371875 2.6875 8.75 C2.50767578 9.94882812 2.50767578 9.94882812 2.32421875 11.171875 C2.21722656 11.77515625 2.11023438 12.3784375 2 13 C1.67 13 1.34 13 1 13 C0.67 8.71 0.34 4.42 0 0 Z " fill="#383737" transform="translate(298,327)"/>
<path d="M0 0 C2.31 1.98 4.62 3.96 7 6 C6.01 6.33 5.02 6.66 4 7 C1.8125 5.8125 1.8125 5.8125 0 4 C0 2.68 0 1.36 0 0 Z " fill="#1D1E1D" transform="translate(313,858)"/>
<path d="M0 0 C-1.13474948 3.40424844 -1.96811304 4.21653709 -5 6 C-5.99 5.67 -6.98 5.34 -8 5 C-2.25 0 -2.25 0 0 0 Z " fill="#191918" transform="translate(596,572)"/>
<path d="M0 0 C3.057952 1.73559438 5.63379989 3.38472619 8 6 C5.21788056 5.62403791 3.4120716 5.32681541 1.1875 3.5625 C0 2 0 2 0 0 Z " fill="#1A1919" transform="translate(413,567)"/>
<path d="M0 0 C0.33 0.99 0.66 1.98 1 3 C-1.35438733 4.42944945 -2.48032433 5.08661261 -5.25 4.625 C-5.8275 4.41875 -6.405 4.2125 -7 4 C-4.69 2.68 -2.38 1.36 0 0 Z " fill="#1E1E1D" transform="translate(710,515)"/>
<path d="M0 0 C0.66 0 1.32 0 2 0 C1.375 1.9375 1.375 1.9375 0 4 C-3.125 4.75 -3.125 4.75 -6 5 C-5.195625 4.360625 -4.39125 3.72125 -3.5625 3.0625 C-1.7249496 1.59396498 -1.7249496 1.59396498 0 0 Z " fill="#1D1C1D" transform="translate(727,505)"/>
<path d="M0 0 C3.37503669 1.1858237 5.64722731 2.27573689 8 5 C4.62537285 4.45276317 2.91765 3.9451 0 2 C0 1.34 0 0.68 0 0 Z " fill="#1D1C1D" transform="translate(280,502)"/>
<path d="M0 0 C0.33 0 0.66 0 1 0 C0.67 2.64 0.34 5.28 0 8 C-0.99 8.33 -1.98 8.66 -3 9 C-2.01 6.03 -1.02 3.06 0 0 Z " fill="#191819" transform="translate(835,376)"/>
<path d="M0 0 C1.98 0 3.96 0 6 0 C6 0.33 6 0.66 6 1 C4.02 1 2.04 1 0 1 C0 0.67 0 0.34 0 0 Z " fill="#464546" transform="translate(268,303)"/>
<path d="M0 0 C0.99 0.495 0.99 0.495 2 1 C2 1.66 2 2.32 2 3 C1.34 3 0.68 3 0 3 C0 2.01 0 1.02 0 0 Z " fill="#494848" transform="translate(304,833)"/>
<path d="M0 0 C0.33 1.32 0.66 2.64 1 4 C0.34 3.34 -0.32 2.68 -1 2 C-0.67 1.34 -0.34 0.68 0 0 Z " fill="#484847" transform="translate(345,762)"/>
<path d="M0 0 C0.66 0.66 1.32 1.32 2 2 C1.01 2.33 0.02 2.66 -1 3 C-0.67 2.01 -0.34 1.02 0 0 Z " fill="#474645" transform="translate(236,469)"/>
<path d="M0 0 C0.66 1.32 1.32 2.64 2 4 C1.34 3.67 0.68 3.34 0 3 C0 2.01 0 1.02 0 0 Z " fill="#464544" transform="translate(193,412)"/>
<path d="M0 0 C0.33 0 0.66 0 1 0 C1 1.65 1 3.3 1 5 C0.67 5 0.34 5 0 5 C0 3.35 0 1.7 0 0 Z " fill="#444444" transform="translate(719,319)"/>
<path d="M0 0 C0.33 0 0.66 0 1 0 C1 1.65 1 3.3 1 5 C0.67 5 0.34 5 0 5 C0 3.35 0 1.7 0 0 Z " fill="#464546" transform="translate(855,312)"/>
<path d="M0 0 C1.65 0 3.3 0 5 0 C5 0.33 5 0.66 5 1 C3.35 1 1.7 1 0 1 C0 0.67 0 0.34 0 0 Z " fill="#474546" transform="translate(780,303)"/>
<path d="M0 0 C1.65 0 3.3 0 5 0 C5 0.33 5 0.66 5 1 C3.35 1 1.7 1 0 1 C0 0.67 0 0.34 0 0 Z " fill="#474647" transform="translate(732,303)"/>
<path d="M0 0 C1.65 0 3.3 0 5 0 C5 0.33 5 0.66 5 1 C3.35 1 1.7 1 0 1 C0 0.67 0 0.34 0 0 Z " fill="#484747" transform="translate(258,303)"/>
<path d="M0 0 C0.99 0.33 1.98 0.66 3 1 C2.01 1.33 1.02 1.66 0 2 C0 1.34 0 0.68 0 0 Z " fill="#474645" transform="translate(320,869)"/>
<path d="M0 0 C1 4 1 4 1 4 Z " fill="#484847" transform="translate(345,811)"/>
<path d="M0 0 C0.66 0.66 1.32 1.32 2 2 C1.01 1.67 0.02 1.34 -1 1 C-0.67 0.67 -0.34 0.34 0 0 Z " fill="#474644" transform="translate(244,477)"/>
<path d="M0 0 C0.99 0.495 0.99 0.495 2 1 C1.34 1.66 0.68 2.32 0 3 C0 2.01 0 1.02 0 0 Z " fill="#464645" transform="translate(240,477)"/>
<path d="M0 0 C0 3 0 3 0 3 Z " fill="#464544" transform="translate(306,380)"/>
<path d="M0 0 C1 4 1 4 1 4 Z " fill="#464444" transform="translate(716,340)"/>
<path d="M0 0 C1 4 1 4 1 4 Z " fill="#454443" transform="translate(296,327)"/>
<path d="M0 0 C4 1 4 1 4 1 Z " fill="#464445" transform="translate(788,303)"/>
<path d="M0 0 C1 4 1 4 1 4 Z " fill="#474646" transform="translate(155,284)"/>
<path d="M0 0 C0.66 0.66 1.32 1.32 2 2 C1.34 2 0.68 2 0 2 C0 1.34 0 0.68 0 0 Z " fill="#474747" transform="translate(312,862)"/>
<path d="M0 0 C0.66 0 1.32 0 2 0 C1.67 0.66 1.34 1.32 1 2 C0.67 1.34 0.34 0.68 0 0 Z " fill="#464747" transform="translate(653,744)"/>
<path d="" fill="#464646" transform="translate(0,0)"/>
<path d="M0 0 C3 1 3 1 3 1 Z " fill="#454343" transform="translate(352,539)"/>
<path d="M0 0 C0.66 0.66 1.32 1.32 2 2 C1.34 2 0.68 2 0 2 C0 1.34 0 0.68 0 0 Z " fill="#464643" transform="translate(242,475)"/>
<path d="M0 0 C0.66 0.66 1.32 1.32 2 2 C1.34 2 0.68 2 0 2 C0 1.34 0 0.68 0 0 Z " fill="#474545" transform="translate(240,473)"/>
<path d="M0 0 C0.66 0.66 1.32 1.32 2 2 C1.34 2 0.68 2 0 2 C0 1.34 0 0.68 0 0 Z " fill="#474746" transform="translate(233,466)"/>
<path d="M0 0 C0.66 0.66 1.32 1.32 2 2 C1.34 2 0.68 2 0 2 C0 1.34 0 0.68 0 0 Z " fill="#474646" transform="translate(185,399)"/>
<path d="" fill="#434242" transform="translate(0,0)"/>
<path d="" fill="#444342" transform="translate(0,0)"/>
<path d="" fill="#454443" transform="translate(0,0)"/>
<path d="" fill="#434342" transform="translate(0,0)"/>
<path d="M0 0 C3 1 3 1 3 1 Z " fill="#484747" transform="translate(283,303)"/>
<path d="M0 0 C3 1 3 1 3 1 Z " fill="#474647" transform="translate(275,303)"/>
<path d="M0 0 C3 1 3 1 3 1 Z " fill="#464546" transform="translate(264,303)"/>
<path d="M0 0 C2 1 2 1 2 1 Z " fill="#484747" transform="translate(325,871)"/>
<path d="" fill="#474746" transform="translate(0,0)"/>
<path d="" fill="#4A4949" transform="translate(0,0)"/>
<path d="" fill="#474746" transform="translate(0,0)"/>
<path d="" fill="#474846" transform="translate(0,0)"/>
<path d="M0 0 C2 1 2 1 2 1 Z " fill="#474545" transform="translate(688,816)"/>
<path d="" fill="#494848" transform="translate(0,0)"/>
<path d="" fill="#474747" transform="translate(0,0)"/>
<path d="" fill="#464546" transform="translate(0,0)"/>
<path d="" fill="#494847" transform="translate(0,0)"/>
<path d="M0 0 C2 1 2 1 2 1 Z " fill="#474746" transform="translate(449,624)"/>
<path d="" fill="#464544" transform="translate(0,0)"/>
<path d="M0 0 C2 1 2 1 2 1 Z " fill="#484748" transform="translate(426,581)"/>
<path d="" fill="#464645" transform="translate(0,0)"/>
<path d="M0 0 C2 1 2 1 2 1 Z " fill="#484748" transform="translate(646,543)"/>
<path d="M0 0 C2 1 2 1 2 1 Z " fill="#464545" transform="translate(356,543)"/>
<path d="M0 0 C2 1 2 1 2 1 Z " fill="#474747" transform="translate(359,541)"/>
<path d="M0 0 C2 1 2 1 2 1 Z " fill="#494749" transform="translate(672,535)"/>
<path d="M0 0 C2 1 2 1 2 1 Z " fill="#494848" transform="translate(675,534)"/>
<path d="" fill="#464646" transform="translate(0,0)"/>
<path d="M0 0 C2 1 2 1 2 1 Z " fill="#484948" transform="translate(681,456)"/>
<path d="M0 0 C2 1 2 1 2 1 Z " fill="#454445" transform="translate(324,452)"/>
<path d="" fill="#444444" transform="translate(0,0)"/>
<path d="M0 0 C2 1 2 1 2 1 Z " fill="#454342" transform="translate(696,448)"/>
<path d="" fill="#464444" transform="translate(0,0)"/>
<path d="" fill="#484745" transform="translate(0,0)"/>
<path d="" fill="#464443" transform="translate(0,0)"/>
<path d="" fill="#464546" transform="translate(0,0)"/>
<path d="" fill="#444242" transform="translate(0,0)"/>
<path d="M0 0 C2 1 2 1 2 1 Z " fill="#474647" transform="translate(187,406)"/>
<path d="M0 0 C2 1 2 1 2 1 Z " fill="#484545" transform="translate(752,394)"/>
<path d="" fill="#474847" transform="translate(0,0)"/>
<path d="" fill="#4B494B" transform="translate(0,0)"/>
<path d="" fill="#494848" transform="translate(0,0)"/>
<path d="" fill="#464646" transform="translate(0,0)"/>
<path d="" fill="#464646" transform="translate(0,0)"/>
<path d="" fill="#474646" transform="translate(0,0)"/>
<path d="" fill="#474546" transform="translate(0,0)"/>
<path d="" fill="#474647" transform="translate(0,0)"/>
<path d="" fill="#474545" transform="translate(0,0)"/>
<path d="" fill="#464543" transform="translate(0,0)"/>
<path d="M0 0 C2 1 2 1 2 1 Z " fill="#464646" transform="translate(854,318)"/>
<path d="M0 0 C2 1 2 1 2 1 Z " fill="#474545" transform="translate(772,303)"/>
<path d="M0 0 C2 1 2 1 2 1 Z " fill="#474444" transform="translate(768,303)"/>
<path d="M0 0 C2 1 2 1 2 1 Z " fill="#484648" transform="translate(764,303)"/>
<path d="M0 0 C2 1 2 1 2 1 Z " fill="#484647" transform="translate(751,303)"/>
<path d="M0 0 C2 1 2 1 2 1 Z " fill="#494547" transform="translate(748,303)"/>
<path d="M0 0 C2 1 2 1 2 1 Z " fill="#494747" transform="translate(740,303)"/>
<path d="M0 0 C2 1 2 1 2 1 Z " fill="#474646" transform="translate(728,303)"/>
<path d="M0 0 C2 1 2 1 2 1 Z " fill="#454344" transform="translate(724,303)"/>
<path d="M0 0 C2 1 2 1 2 1 Z " fill="#464545" transform="translate(292,303)"/>
<path d="M0 0 C2 1 2 1 2 1 Z " fill="#494748" transform="translate(279,303)"/>
<path d="M0 0 C2 1 2 1 2 1 Z " fill="#494648" transform="translate(236,303)"/>
<path d="" fill="#484848" transform="translate(0,0)"/>
<path d="" fill="#474546" transform="translate(0,0)"/>
<path d="" fill="#474545" transform="translate(0,0)"/>
<path d="M0 0 C2 1 2 1 2 1 Z " fill="#494748" transform="translate(153,280)"/>
<path d="" fill="#4E4D4B" transform="translate(0,0)"/>
<path d="M0 0 C2 1 2 1 2 1 Z " fill="#4E4C4C" transform="translate(832,240)"/>
<path d="M0 0 C2 1 2 1 2 1 Z " fill="#4E4E4D" transform="translate(825,240)"/>
<path d="M0 0 C2 1 2 1 2 1 Z " fill="#524F4F" transform="translate(798,240)"/>
<path d="M0 0 C2 1 2 1 2 1 Z " fill="#4F4F4E" transform="translate(790,240)"/>
<path d="M0 0 C2 1 2 1 2 1 Z " fill="#535251" transform="translate(199,240)"/>
<path d="M0 0 C2 1 2 1 2 1 Z " fill="#515151" transform="translate(192,240)"/>
<path d="" fill="#545454" transform="translate(0,0)"/>
<path d="" fill="#4A4847" transform="translate(0,0)"/>
<path d="" fill="#474546" transform="translate(0,0)"/>
<path d="" fill="#494848" transform="translate(0,0)"/>
<path d="" fill="#464545" transform="translate(0,0)"/>
<path d="" fill="#484748" transform="translate(0,0)"/>
<path d="" fill="#494847" transform="translate(0,0)"/>
<path d="" fill="#494948" transform="translate(0,0)"/>
<path d="" fill="#4A4848" transform="translate(0,0)"/>
<path d="" fill="#4A4A4A" transform="translate(0,0)"/>
<path d="" fill="#4B4A49" transform="translate(0,0)"/>
<path d="" fill="#484946" transform="translate(0,0)"/>
<path d="" fill="#4A4949" transform="translate(0,0)"/>
<path d="" fill="#494949" transform="translate(0,0)"/>
<path d="" fill="#4E4C4C" transform="translate(0,0)"/>
<path d="" fill="#494A47" transform="translate(0,0)"/>
<path d="" fill="#4A4A4A" transform="translate(0,0)"/>
<path d="" fill="#474747" transform="translate(0,0)"/>
<path d="" fill="#484746" transform="translate(0,0)"/>
<path d="" fill="#494847" transform="translate(0,0)"/>
<path d="" fill="#484747" transform="translate(0,0)"/>
<path d="" fill="#464344" transform="translate(0,0)"/>
<path d="" fill="#484A49" transform="translate(0,0)"/>
<path d="" fill="#494949" transform="translate(0,0)"/>
<path d="" fill="#4B4A4A" transform="translate(0,0)"/>
<path d="" fill="#494948" transform="translate(0,0)"/>
<path d="" fill="#484948" transform="translate(0,0)"/>
<path d="" fill="#494949" transform="translate(0,0)"/>
<path d="" fill="#464745" transform="translate(0,0)"/>
<path d="" fill="#444343" transform="translate(0,0)"/>
<path d="" fill="#484744" transform="translate(0,0)"/>
<path d="" fill="#464443" transform="translate(0,0)"/>
<path d="" fill="#474745" transform="translate(0,0)"/>
<path d="" fill="#484746" transform="translate(0,0)"/>
<path d="" fill="#464646" transform="translate(0,0)"/>
<path d="" fill="#444443" transform="translate(0,0)"/>
<path d="" fill="#464746" transform="translate(0,0)"/>
<path d="" fill="#474746" transform="translate(0,0)"/>
<path d="" fill="#474545" transform="translate(0,0)"/>
<path d="" fill="#47484A" transform="translate(0,0)"/>
<path d="" fill="#494848" transform="translate(0,0)"/>
<path d="" fill="#454244" transform="translate(0,0)"/>
<path d="" fill="#464645" transform="translate(0,0)"/>
<path d="" fill="#454546" transform="translate(0,0)"/>
<path d="" fill="#494646" transform="translate(0,0)"/>
<path d="" fill="#454645" transform="translate(0,0)"/>
<path d="" fill="#484947" transform="translate(0,0)"/>
<path d="" fill="#484746" transform="translate(0,0)"/>
<path d="" fill="#454542" transform="translate(0,0)"/>
<path d="" fill="#484746" transform="translate(0,0)"/>
<path d="" fill="#4A474B" transform="translate(0,0)"/>
<path d="" fill="#4B4949" transform="translate(0,0)"/>
<path d="" fill="#484847" transform="translate(0,0)"/>
<path d="" fill="#474747" transform="translate(0,0)"/>
<path d="" fill="#464546" transform="translate(0,0)"/>
<path d="" fill="#484848" transform="translate(0,0)"/>
<path d="" fill="#484A49" transform="translate(0,0)"/>
<path d="" fill="#4A4948" transform="translate(0,0)"/>
<path d="" fill="#484847" transform="translate(0,0)"/>
<path d="" fill="#484747" transform="translate(0,0)"/>
<path d="" fill="#484647" transform="translate(0,0)"/>
<path d="" fill="#484747" transform="translate(0,0)"/>
<path d="" fill="#474545" transform="translate(0,0)"/>
<path d="" fill="#494948" transform="translate(0,0)"/>
<path d="" fill="#484747" transform="translate(0,0)"/>
<path d="" fill="#484748" transform="translate(0,0)"/>
<path d="" fill="#484748" transform="translate(0,0)"/>
<path d="" fill="#464545" transform="translate(0,0)"/>
<path d="" fill="#464544" transform="translate(0,0)"/>
<path d="" fill="#484849" transform="translate(0,0)"/>
<path d="" fill="#444144" transform="translate(0,0)"/>
<path d="" fill="#454544" transform="translate(0,0)"/>
<path d="" fill="#454543" transform="translate(0,0)"/>
<path d="" fill="#464647" transform="translate(0,0)"/>
<path d="" fill="#474647" transform="translate(0,0)"/>
<path d="" fill="#484848" transform="translate(0,0)"/>
<path d="" fill="#484845" transform="translate(0,0)"/>
<path d="" fill="#474945" transform="translate(0,0)"/>
<path d="" fill="#444443" transform="translate(0,0)"/>
<path d="" fill="#464744" transform="translate(0,0)"/>
<path d="" fill="#484647" transform="translate(0,0)"/>
<path d="" fill="#4A4949" transform="translate(0,0)"/>
<path d="" fill="#454745" transform="translate(0,0)"/>
<path d="" fill="#474546" transform="translate(0,0)"/>
<path d="" fill="#474646" transform="translate(0,0)"/>
<path d="" fill="#454443" transform="translate(0,0)"/>
<path d="" fill="#464445" transform="translate(0,0)"/>
<path d="" fill="#474746" transform="translate(0,0)"/>
<path d="" fill="#474645" transform="translate(0,0)"/>
<path d="" fill="#494846" transform="translate(0,0)"/>
<path d="" fill="#484848" transform="translate(0,0)"/>
<path d="" fill="#464947" transform="translate(0,0)"/>
<path d="" fill="#494849" transform="translate(0,0)"/>
<path d="" fill="#464746" transform="translate(0,0)"/>
<path d="" fill="#464545" transform="translate(0,0)"/>
<path d="" fill="#494A4B" transform="translate(0,0)"/>
<path d="" fill="#464546" transform="translate(0,0)"/>
<path d="" fill="#474747" transform="translate(0,0)"/>
<path d="" fill="#444642" transform="translate(0,0)"/>
<path d="" fill="#484647" transform="translate(0,0)"/>
<path d="" fill="#464645" transform="translate(0,0)"/>
<path d="" fill="#464948" transform="translate(0,0)"/>
<path d="" fill="#484846" transform="translate(0,0)"/>
<path d="" fill="#474647" transform="translate(0,0)"/>
<path d="" fill="#474545" transform="translate(0,0)"/>
<path d="" fill="#4A4A4A" transform="translate(0,0)"/>
<path d="" fill="#474545" transform="translate(0,0)"/>
<path d="" fill="#464545" transform="translate(0,0)"/>
<path d="" fill="#4A4A4A" transform="translate(0,0)"/>
<path d="" fill="#484845" transform="translate(0,0)"/>
<path d="" fill="#444646" transform="translate(0,0)"/>
<path d="" fill="#4A4948" transform="translate(0,0)"/>
<path d="" fill="#464443" transform="translate(0,0)"/>
<path d="" fill="#494845" transform="translate(0,0)"/>
<path d="" fill="#434344" transform="translate(0,0)"/>
<path d="" fill="#474847" transform="translate(0,0)"/>
<path d="" fill="#474647" transform="translate(0,0)"/>
<path d="" fill="#414542" transform="translate(0,0)"/>
<path d="" fill="#444344" transform="translate(0,0)"/>
<path d="" fill="#464547" transform="translate(0,0)"/>
<path d="" fill="#494849" transform="translate(0,0)"/>
<path d="" fill="#454545" transform="translate(0,0)"/>
<path d="" fill="#4B4A49" transform="translate(0,0)"/>
<path d="" fill="#464443" transform="translate(0,0)"/>
<path d="" fill="#454547" transform="translate(0,0)"/>
<path d="" fill="#464847" transform="translate(0,0)"/>
<path d="" fill="#464445" transform="translate(0,0)"/>
<path d="" fill="#484947" transform="translate(0,0)"/>
<path d="" fill="#474645" transform="translate(0,0)"/>
<path d="" fill="#464744" transform="translate(0,0)"/>
<path d="" fill="#474445" transform="translate(0,0)"/>
<path d="" fill="#474444" transform="translate(0,0)"/>
<path d="" fill="#444441" transform="translate(0,0)"/>
<path d="" fill="#474546" transform="translate(0,0)"/>
<path d="" fill="#454444" transform="translate(0,0)"/>
<path d="" fill="#464743" transform="translate(0,0)"/>
<path d="" fill="#444341" transform="translate(0,0)"/>
<path d="" fill="#484A4A" transform="translate(0,0)"/>
<path d="" fill="#474748" transform="translate(0,0)"/>
<path d="" fill="#454543" transform="translate(0,0)"/>
<path d="" fill="#494748" transform="translate(0,0)"/>
<path d="" fill="#4A4747" transform="translate(0,0)"/>
<path d="" fill="#474545" transform="translate(0,0)"/>
<path d="" fill="#454443" transform="translate(0,0)"/>
<path d="" fill="#474547" transform="translate(0,0)"/>
<path d="" fill="#464645" transform="translate(0,0)"/>
<path d="" fill="#464344" transform="translate(0,0)"/>
<path d="" fill="#484947" transform="translate(0,0)"/>
<path d="" fill="#444443" transform="translate(0,0)"/>
<path d="" fill="#474645" transform="translate(0,0)"/>
<path d="" fill="#454443" transform="translate(0,0)"/>
<path d="" fill="#444446" transform="translate(0,0)"/>
<path d="" fill="#494949" transform="translate(0,0)"/>
<path d="" fill="#454543" transform="translate(0,0)"/>
<path d="" fill="#474746" transform="translate(0,0)"/>
<path d="" fill="#464544" transform="translate(0,0)"/>
<path d="" fill="#464747" transform="translate(0,0)"/>
<path d="" fill="#474647" transform="translate(0,0)"/>
<path d="" fill="#434142" transform="translate(0,0)"/>
<path d="" fill="#4B4A4A" transform="translate(0,0)"/>
<path d="" fill="#474645" transform="translate(0,0)"/>
<path d="" fill="#474545" transform="translate(0,0)"/>
<path d="" fill="#454545" transform="translate(0,0)"/>
<path d="" fill="#464847" transform="translate(0,0)"/>
<path d="" fill="#4A4948" transform="translate(0,0)"/>
<path d="" fill="#444443" transform="translate(0,0)"/>
<path d="" fill="#454344" transform="translate(0,0)"/>
<path d="" fill="#474746" transform="translate(0,0)"/>
<path d="" fill="#494747" transform="translate(0,0)"/>
<path d="" fill="#454546" transform="translate(0,0)"/>
<path d="" fill="#4A4848" transform="translate(0,0)"/>
<path d="" fill="#484946" transform="translate(0,0)"/>
<path d="" fill="#474544" transform="translate(0,0)"/>
<path d="" fill="#494648" transform="translate(0,0)"/>
<path d="" fill="#464746" transform="translate(0,0)"/>
<path d="" fill="#474446" transform="translate(0,0)"/>
<path d="" fill="#4A4947" transform="translate(0,0)"/>
<path d="" fill="#494948" transform="translate(0,0)"/>
<path d="" fill="#494A49" transform="translate(0,0)"/>
<path d="" fill="#494847" transform="translate(0,0)"/>
<path d="" fill="#494646" transform="translate(0,0)"/>
<path d="" fill="#434344" transform="translate(0,0)"/>
<path d="" fill="#494947" transform="translate(0,0)"/>
<path d="" fill="#474546" transform="translate(0,0)"/>
<path d="" fill="#454443" transform="translate(0,0)"/>
<path d="" fill="#4A4946" transform="translate(0,0)"/>
<path d="" fill="#4A4849" transform="translate(0,0)"/>
<path d="" fill="#454445" transform="translate(0,0)"/>
<path d="" fill="#474545" transform="translate(0,0)"/>
<path d="" fill="#444443" transform="translate(0,0)"/>
<path d="" fill="#484444" transform="translate(0,0)"/>
<path d="" fill="#484847" transform="translate(0,0)"/>
<path d="" fill="#454545" transform="translate(0,0)"/>
<path d="" fill="#474444" transform="translate(0,0)"/>
<path d="" fill="#474646" transform="translate(0,0)"/>
<path d="" fill="#484446" transform="translate(0,0)"/>
<path d="" fill="#494847" transform="translate(0,0)"/>
<path d="" fill="#4B4848" transform="translate(0,0)"/>
<path d="" fill="#474646" transform="translate(0,0)"/>
<path d="" fill="#454544" transform="translate(0,0)"/>
<path d="" fill="#4B4B49" transform="translate(0,0)"/>
<path d="" fill="#444445" transform="translate(0,0)"/>
<path d="" fill="#444443" transform="translate(0,0)"/>
<path d="" fill="#464745" transform="translate(0,0)"/>
<path d="" fill="#494747" transform="translate(0,0)"/>
<path d="" fill="#474646" transform="translate(0,0)"/>
<path d="" fill="#464645" transform="translate(0,0)"/>
<path d="" fill="#494749" transform="translate(0,0)"/>
<path d="" fill="#494648" transform="translate(0,0)"/>
<path d="" fill="#494848" transform="translate(0,0)"/>
<path d="" fill="#474849" transform="translate(0,0)"/>
<path d="" fill="#4A4849" transform="translate(0,0)"/>
<path d="" fill="#484748" transform="translate(0,0)"/>
<path d="" fill="#494848" transform="translate(0,0)"/>
<path d="" fill="#484847" transform="translate(0,0)"/>
<path d="" fill="#494847" transform="translate(0,0)"/>
<path d="" fill="#484744" transform="translate(0,0)"/>
<path d="" fill="#494848" transform="translate(0,0)"/>
<path d="" fill="#484848" transform="translate(0,0)"/>
<path d="" fill="#494846" transform="translate(0,0)"/>
<path d="" fill="#494947" transform="translate(0,0)"/>
<path d="" fill="#4A4B4A" transform="translate(0,0)"/>
<path d="" fill="#4B494B" transform="translate(0,0)"/>
<path d="" fill="#4E4B4B" transform="translate(0,0)"/>
<path d="" fill="#4F4E4D" transform="translate(0,0)"/>
<path d="" fill="#4D4D4C" transform="translate(0,0)"/>
<path d="" fill="#4C4B48" transform="translate(0,0)"/>
<path d="" fill="#4D4C4C" transform="translate(0,0)"/>
<path d="" fill="#4E4F4F" transform="translate(0,0)"/>
<path d="" fill="#4F4B4B" transform="translate(0,0)"/>
<path d="" fill="#51504E" transform="translate(0,0)"/>
<path d="" fill="#525251" transform="translate(0,0)"/>
<path d="" fill="#50504F" transform="translate(0,0)"/>
<path d="" fill="#4F4E4F" transform="translate(0,0)"/>
<path d="" fill="#504F4F" transform="translate(0,0)"/>
<path d="" fill="#4A4A48" transform="translate(0,0)"/>
<path d="" fill="#494848" transform="translate(0,0)"/>
<path d="" fill="#484748" transform="translate(0,0)"/>
<path d="" fill="#494847" transform="translate(0,0)"/>
<path d="" fill="#494949" transform="translate(0,0)"/>
<path d="" fill="#4C4B4B" transform="translate(0,0)"/>
<path d="" fill="#4A4A49" transform="translate(0,0)"/>
<path d="" fill="#4D4D4C" transform="translate(0,0)"/>
<path d="" fill="#4D4B49" transform="translate(0,0)"/>
<path d="" fill="#4F4E4E" transform="translate(0,0)"/>
</svg>
