<?xml version="1.0" standalone="no"?>
<!DOCTYPE svg PUBLIC "-//W3C//DTD SVG 20010904//EN"
 "http://www.w3.org/TR/2001/REC-SVG-20010904/DTD/svg10.dtd">
<svg version="1.0" xmlns="http://www.w3.org/2000/svg"
 width="1024.000000pt" height="1024.000000pt" viewBox="0 0 1024.000000 1024.000000"
 preserveAspectRatio="xMidYMid meet">

<g transform="translate(0.000000,1024.000000) scale(0.100000,-0.100000)"
fill="#000000" stroke="none">
<path d="M9170 8176 c-273 -42 -486 -123 -697 -261 -121 -81 -294 -255 -361
-365 -108 -176 -147 -326 -146 -560 0 -135 4 -168 27 -254 25 -92 74 -198 119
-256 48 -63 139 -147 205 -190 93 -61 186 -100 364 -150 318 -91 401 -122 457
-174 54 -48 66 -111 33 -174 -115 -222 -588 -243 -960 -41 -30 16 -58 29 -61
29 -8 0 -10 -21 -45 -470 -13 -173 -27 -340 -31 -371 l-6 -57 49 -15 c134 -44
319 -68 523 -68 370 0 656 80 924 258 262 174 420 404 482 703 25 119 25 373
1 490 -47 219 -164 397 -342 517 -99 67 -175 100 -352 154 -456 138 -491 156
-500 256 -10 112 104 188 324 215 170 21 417 -21 561 -96 17 -9 33 -12 36 -7
3 5 13 96 21 202 27 343 45 553 51 595 6 40 5 42 -28 53 -117 42 -481 63 -648
37z"/>
<path d="M7890 7768 c-195 -56 -845 -249 -848 -253 -6 -5 -153 -1321 -182
-1620 -3 -38 -9 -63 -12 -55 -4 8 -83 278 -177 600 -213 731 -257 879 -264
886 -4 5 -273 -71 -573 -162 l-82 -25 -6 -42 c-3 -23 -40 -343 -81 -712 -94
-841 -96 -859 -99 -863 -3 -2 -217 749 -369 1288 -22 80 -44 149 -48 154 -11
12 -845 -235 -843 -250 3 -16 71 -226 264 -814 103 -316 272 -829 374 -1140
102 -311 208 -637 236 -724 27 -88 52 -161 54 -163 4 -5 758 217 768 226 6 6
41 283 124 986 48 417 63 548 65 580 0 11 16 -36 35 -105 59 -211 376 -1275
383 -1282 3 -3 67 12 141 33 540 157 696 203 702 208 6 6 43 240 137 876 147
991 168 1129 241 1610 119 782 118 776 103 774 -5 0 -24 -5 -43 -11z"/>
<path d="M3730 6566 c-261 -79 -608 -182 -770 -230 -162 -48 -297 -89 -298
-91 -2 -2 12 -187 32 -412 20 -224 48 -534 61 -688 33 -372 119 -1367 145
-1680 12 -137 25 -253 28 -256 4 -4 72 13 152 36 80 24 377 111 660 195 283
84 601 177 705 207 105 30 194 59 199 63 8 8 -61 768 -70 779 -4 5 -90 -20
-349 -99 -434 -133 -558 -170 -560 -168 -5 9 -39 451 -34 453 3 2 149 47 325
100 175 53 327 98 336 101 15 4 17 14 12 62 -3 31 -18 189 -34 350 -15 161
-30 295 -33 298 -3 3 -150 -38 -327 -91 -177 -54 -323 -96 -324 -94 -5 6 -34
343 -30 350 2 3 165 54 362 114 198 59 365 111 372 115 10 6 7 69 -14 296 -42
451 -39 429 -56 430 -8 1 -229 -62 -490 -140z"/>
<path d="M2448 6185 c-2 -3 -128 -41 -279 -85 -151 -45 -312 -92 -357 -106
l-84 -26 6 -41 c3 -23 26 -220 51 -437 72 -641 85 -752 94 -802 5 -27 6 -48 2
-48 -3 1 -163 264 -355 586 -275 460 -353 583 -365 578 -9 -3 -47 -15 -86 -26
-61 -17 -244 -71 -558 -165 -84 -25 -87 -27 -87 -56 0 -29 33 -399 90 -1022
16 -176 34 -374 40 -440 49 -578 126 -1419 136 -1498 6 -48 7 -49 38 -45 17 3
141 37 276 77 135 40 292 87 350 103 58 17 106 32 108 33 2 2 -6 88 -17 192
-12 103 -43 395 -71 648 -27 253 -52 476 -55 495 -3 25 -2 31 5 20 5 -8 100
-166 211 -350 450 -747 501 -830 511 -830 18 0 682 201 691 209 4 5 -6 154
-23 332 -16 178 -39 423 -50 544 -11 121 -24 270 -30 330 -6 61 -17 182 -25
270 -8 88 -23 259 -34 380 -18 189 -51 565 -92 1045 -6 69 -13 128 -16 133 -5
8 -17 9 -25 2z"/>
</g>
</svg>
