<?xml version="1.0" standalone="no"?>
<!DOCTYPE svg PUBLIC "-//W3C//DTD SVG 20010904//EN"
 "http://www.w3.org/TR/2001/REC-SVG-20010904/DTD/svg10.dtd">
<svg version="1.0" xmlns="http://www.w3.org/2000/svg"
 width="1024.000000pt" height="1024.000000pt" viewBox="0 0 1024.000000 1024.000000"
 preserveAspectRatio="xMidYMid meet">

<g transform="translate(0.000000,1024.000000) scale(0.100000,-0.100000)"
stroke="none">
<path d="M4860 9569 c-204 -23 -451 -88 -656 -174 -317 -133 -632 -361 -848
-615 -297 -348 -463 -702 -543 -1155 -13 -78 -17 -156 -17 -350 0 -281 15
-398 79 -622 136 -478 427 -899 832 -1206 543 -410 1222 -564 1893 -427 472
96 928 356 1253 713 305 335 493 720 573 1172 21 114 29 495 15 625 -59 515
-280 976 -646 1346 -213 215 -389 342 -640 464 -233 113 -406 169 -650 212
-138 23 -500 33 -645 17z"/>
<path d="M3204 5047 c-392 -237 -766 -583 -1030 -952 -277 -386 -487 -870
-578 -1330 -55 -278 -89 -714 -68 -879 35 -274 185 -493 470 -683 374 -249
1024 -439 1845 -538 344 -42 609 -57 1114 -62 926 -10 1571 47 2234 197 826
188 1333 494 1477 893 46 126 56 221 49 442 -8 213 -25 381 -62 577 -164 887
-661 1665 -1403 2197 -108 77 -322 211 -337 211 -5 0 -26 -15 -49 -33 -77 -63
-261 -184 -372 -246 -588 -327 -1282 -434 -1944 -300 -400 81 -821 275 -1144
526 -37 29 -71 53 -75 53 -4 0 -61 -33 -127 -73z m1816 -713 c138 -3 302 -2
375 4 141 11 155 8 155 -37 0 -14 -46 -116 -103 -226 l-102 -200 -222 -3 -221
-2 -106 206 c-58 114 -106 217 -106 229 0 32 21 47 55 41 17 -3 140 -8 275
-12z m324 -541 c3 -16 26 -183 51 -373 25 -190 66 -496 91 -680 25 -184 58
-432 74 -550 16 -118 48 -351 70 -517 23 -166 40 -315 38 -331 -5 -43 -510
-577 -547 -577 -37 0 -551 544 -551 583 0 27 41 339 105 792 19 135 52 387 75
560 23 173 59 443 80 600 22 157 44 326 50 375 6 50 13 102 16 118 l6 27 218
0 218 0 6 -27z"/>
</g>
</svg>
