<?xml version="1.0" standalone="no"?>
<!DOCTYPE svg PUBLIC "-//W3C//DTD SVG 20010904//EN"
 "http://www.w3.org/TR/2001/REC-SVG-20010904/DTD/svg10.dtd">
<svg version="1.0" xmlns="http://www.w3.org/2000/svg"
 width="1024.000000pt" height="1024.000000pt" viewBox="0 0 1024.000000 1024.000000"
 preserveAspectRatio="xMidYMid meet">

<g transform="translate(0.000000,1024.000000) scale(0.100000,-0.100000)"
stroke="none">
<path d="M4915 10030 c-940 -53 -1825 -412 -2403 -974 -438 -426 -712 -929
-877 -1608 -40 -164 -106 -539 -96 -550 3 -4 206 -43 451 -88 245 -44 689
-126 987 -180 297 -55 545 -100 550 -100 5 0 14 36 21 80 21 148 83 404 138
571 205 622 576 1011 1085 1138 192 48 454 64 667 40 640 -70 1081 -448 1191
-1023 94 -486 -48 -884 -429 -1210 -53 -45 -186 -149 -295 -231 -356 -265
-438 -327 -565 -429 -594 -477 -904 -883 -1054 -1380 -46 -150 -82 -345 -97
-522 -17 -200 -1 -655 23 -680 4 -3 48 4 100 15 443 95 900 108 1313 36 116
-20 280 -54 298 -61 12 -4 15 31 20 218 9 305 34 439 113 607 54 115 110 194
217 307 167 177 339 312 857 674 523 364 678 487 895 704 419 420 623 842 691
1423 20 165 14 500 -11 658 -40 255 -115 514 -214 735 -211 470 -569 890
-1015 1189 -533 358 -1130 558 -1861 625 -206 19 -522 26 -700 16z"/>
<path d="M4730 2435 l0 -175 -290 0 -290 0 0 -128 0 -128 185 -34 185 -34 0
-612 0 -612 -147 -27 c-82 -15 -164 -30 -183 -34 l-35 -7 -3 -137 -3 -137 291
0 290 0 0 -160 0 -160 145 0 145 0 0 160 0 161 68 -3 67 -3 -1 -157 0 -158
148 0 148 0 0 153 0 154 118 6 c141 8 249 34 343 83 206 109 305 329 254 569
-32 150 -114 253 -257 325 -44 22 -90 40 -102 40 -17 1 -14 5 15 20 248 131
295 499 89 700 -90 89 -223 143 -384 157 l-76 6 0 173 0 174 -147 0 -148 0 2
-122 c2 -68 0 -147 -3 -175 l-6 -53 -64 0 -64 0 0 175 0 175 -145 0 -145 0 0
-175z m710 -532 c92 -42 137 -129 119 -227 -11 -59 -21 -77 -59 -110 -54 -45
-116 -56 -307 -56 l-173 0 0 211 0 211 188 -4 c163 -3 193 -6 232 -25z m58
-735 c69 -25 111 -59 137 -112 45 -90 28 -204 -41 -268 -61 -57 -88 -62 -341
-66 l-233 -4 0 237 0 237 218 -4 c161 -4 228 -9 260 -20z"/>
</g>
</svg>
