<?xml version="1.0" encoding="UTF-8"?>
<svg version="1.1" xmlns="http://www.w3.org/2000/svg" width="1024" height="1024" viewBox="0 0 1024 1024">
<path d="M0 0 C3 1.875 3 1.875 5 5 C5.604857 13.60049052 2.32987925 22.8592639 0.36633301 31.18240356 C-0.86575371 36.40979898 -2.07436164 41.64263921 -3.28515625 46.875 C-3.56277802 48.07298721 -3.84039978 49.27097443 -4.12643433 50.50526428 C-8.36763395 68.85354756 -12.46644794 87.23434329 -16.58773422 105.60984421 C-17.4556338 109.47930086 -18.32391471 113.34867187 -19.19229603 117.21802044 C-19.61556862 119.10423672 -20.03873057 120.99047783 -20.46177959 122.87674427 C-21.48839163 127.45351754 -22.51674992 132.02988336 -23.54911804 136.60536194 C-25.24214943 144.11548632 -26.92995065 151.62565939 -28.5381813 159.15447712 C-29.16053259 162.06515065 -29.79222302 164.97375955 -30.42470551 167.88224602 C-30.84513644 169.83617099 -31.25086368 171.7932419 -31.65606689 173.75038147 C-32.03465851 175.48643898 -32.03465851 175.48643898 -32.42089844 177.25756836 C-32.63115662 178.25364609 -32.84141479 179.24972382 -33.05804443 180.27598572 C-34.37637748 184.08843523 -36.32915877 187.16457938 -40 189 C-46.0141868 186.57322287 -50.17654953 183.27236328 -54.90625 178.8828125 C-57.42786976 176.61523652 -60.16258869 174.85048564 -63 173 C-64.80572101 171.52149018 -66.56450138 169.99824768 -68.3203125 168.4609375 C-70.49271425 166.57145319 -72.73876291 164.78158074 -75 163 C-78.67670584 164.51052023 -80.71874462 166.6488615 -83.3125 169.625 C-84.09496094 170.51960937 -84.87742187 171.41421875 -85.68359375 172.3359375 C-86.44800781 173.21507812 -87.21242188 174.09421875 -88 175 C-88.67160156 175.73476563 -89.34320312 176.46953125 -90.03515625 177.2265625 C-92.75413248 180.21685908 -94.86742039 182.73484078 -96.6875 186.375 C-98 189 -98 189 -99.8125 189.875 C-102.64574013 191.33209492 -104.22276479 193.22718659 -106.3125 195.625 C-107.1065625 196.52992188 -107.900625 197.43484375 -108.71875 198.3671875 C-109.84796875 199.67042969 -109.84796875 199.67042969 -111 201 C-111.5671875 201.64195312 -112.134375 202.28390625 -112.71875 202.9453125 C-115.39398197 205.97461929 -118.0319941 209.0337486 -120.64453125 212.1171875 C-126.39355964 218.889739 -132.26970438 225.4904816 -138.35620117 231.96166992 C-141.52647151 235.35251388 -144.53816047 238.80795644 -147.4375 242.4375 C-151.64710335 247.70144232 -156.21742294 252.55837646 -160.84521484 257.45068359 C-165.00185985 261.86789105 -168.86682104 266.43893943 -172.65234375 271.1796875 C-176.5766481 275.89407642 -180.81026862 280.31905716 -185.00390625 284.79296875 C-189.36990293 289.45191319 -193.53175833 294.27070803 -197.6640625 299.13671875 C-203.26709302 305.72276944 -208.95471892 312.19575462 -214.84814453 318.52392578 C-218.02076703 321.9310146 -221.11549797 325.38907222 -224.16015625 328.91015625 C-226.56670226 331.64370638 -229.03306703 334.32110702 -231.5 337 C-235.14170497 340.95586722 -238.73499563 344.94561697 -242.2578125 349.0078125 C-245.07463262 352.22883999 -247.95310146 355.39417636 -250.8203125 358.5703125 C-252.69145094 360.6560618 -254.53924831 362.75817628 -256.375 364.875 C-259.82851561 368.84252724 -263.3900394 372.7084764 -266.95263672 376.57763672 C-269.50525763 379.35458682 -272.02968205 382.14963313 -274.5 385 C-277.43844065 388.39050844 -280.46116302 391.69966982 -283.5 395 C-287.13851337 398.95245318 -290.7273619 402.9399792 -294.25 406.99609375 C-310.14640148 425.19889276 -310.14640148 425.19889276 -316 427 C-323.29879986 425.88079156 -327.85291972 421.97735329 -332.875 416.875 C-334.27605933 415.50516204 -335.67970546 414.13796479 -337.0859375 412.7734375 C-338.09479004 411.78875488 -338.09479004 411.78875488 -339.12402344 410.78417969 C-341.47689716 408.54643878 -343.95093721 406.50998607 -346.5 404.5 C-353.37649624 399.01738813 -359.6575791 392.90149621 -366.03515625 386.85595703 C-379.49123926 373.87283207 -379.49123926 373.87283207 -393.78125 361.875 C-394.5134375 361.25625 -395.245625 360.6375 -396 360 C-396 359.34 -396 358.68 -396 358 C-396.66 358 -397.32 358 -398 358 C-398 357.34 -398 356.68 -398 356 C-398.804375 355.6596875 -398.804375 355.6596875 -399.625 355.3125 C-405.45515452 352.0905725 -409.97661254 347.09785513 -414.5859375 342.375 C-417.56762825 339.35283381 -420.58791713 336.45049944 -423.8125 333.6875 C-427.02333755 330.92381971 -430.02267165 328.01380404 -433 325 C-437.71931712 320.23001536 -442.59648925 315.73444453 -447.828125 311.53125 C-449.2482059 310.38987657 -450.62887155 309.1997374 -452 308 C-452 307.34 -452 306.68 -452 306 C-452.5465625 305.78214844 -453.093125 305.56429688 -453.65625 305.33984375 C-456.76791617 303.56100793 -459.04437101 301.12853193 -461.5 298.5625 C-465.92693726 293.90810673 -465.92693726 293.90810673 -471 290 C-471.66 290 -472.32 290 -473 290 C-474.33000656 291.31583673 -474.33000656 291.31583673 -475.75 293.125 C-479.29379545 297.30906102 -483.10157815 301.15173508 -487 305 C-491.24529795 309.20002361 -495.35524596 313.41644558 -499.203125 317.98828125 C-502.12229705 321.25648474 -505.28337461 324.2894061 -508.44604492 327.32104492 C-509.66701002 328.51121322 -510.83817399 329.75203499 -512 331 C-512 331.66 -512 332.32 -512 333 C-513.50390625 334.48046875 -513.50390625 334.48046875 -515.5625 336.1875 C-520.79340158 340.64481755 -525.60704811 345.32734402 -530.0625 350.5625 C-533.51391906 354.57741605 -537.23939117 358.27867158 -541 362 C-545.31860062 366.27353892 -549.50085582 370.5713624 -553.4296875 375.2109375 C-555.82826092 377.94364055 -558.44145935 380.45005228 -561.03125 383 C-562.93986455 384.93891002 -564.72710552 386.93699551 -566.5 389 C-569.51762353 392.51141648 -572.73359081 395.75307402 -576.03125 399 C-577.93986455 400.93891002 -579.72710552 402.93699551 -581.5 405 C-583.89676588 407.78896393 -586.37959391 410.41990785 -589 413 C-592.88118088 416.82883354 -596.45554439 420.86078313 -600 425 C-601.20596402 426.39788087 -602.41428125 427.79373522 -603.625 429.1875 C-604.15351562 429.79980469 -604.68203125 430.41210938 -605.2265625 431.04296875 C-608.23551521 434.36342097 -611.45965846 437.46683113 -614.6484375 440.61328125 C-619.36500641 445.28254932 -623.94815329 449.98706965 -628.2578125 455.0390625 C-630.97044244 458.09229171 -633.90600453 460.9140315 -636.8125 463.78125 C-638.79720342 465.79430632 -640.66096916 467.85446403 -642.5 470 C-645.04691608 472.97140209 -647.71378859 475.7514401 -650.5 478.5 C-653.24500542 481.20803565 -655.8727091 483.94169249 -658.375 486.875 C-661.26214781 490.24557721 -664.34246618 493.38504207 -667.5 496.5 C-671.24030825 500.18994221 -674.78239348 503.97503696 -678.19140625 507.97265625 C-681.10236359 511.23569483 -684.24308561 514.26300441 -687.375 517.3125 C-689.42521116 519.41152571 -691.34047962 521.52809265 -693.25 523.75 C-697.9885819 529.21680553 -703.1725835 534.22002337 -708.328125 539.2890625 C-712.54702477 543.46491228 -716.59637512 547.70301717 -720.43725586 552.23071289 C-723.82375847 556.06479887 -727.12223169 559.28085469 -731.9375 561.125 C-739.8879656 560.8004912 -745.18922867 555.28380789 -750.3125 549.75 C-751.50989106 548.46735368 -752.71402212 547.19095607 -753.92578125 545.921875 C-754.44567627 545.36081055 -754.96557129 544.79974609 -755.5012207 544.22167969 C-757.0652922 542.68409327 -757.0652922 542.68409327 -760 543 C-760 542.01 -760 541.02 -760 540 C-761.46367699 538.39467762 -761.46367699 538.39467762 -763.4453125 536.8671875 C-768.20406104 532.88024128 -772.52619065 528.55010425 -776.875 524.125 C-778.37008161 522.60449184 -779.86736644 521.08614589 -781.3671875 519.5703125 C-782.01800293 518.90789551 -782.66881836 518.24547852 -783.33935547 517.56298828 C-784.93142515 515.91455548 -784.93142515 515.91455548 -787 515 C-787 514.34 -787 513.68 -787 513 C-787.5775 512.773125 -788.155 512.54625 -788.75 512.3125 C-792.14222063 510.33370463 -794.25493471 507.49013058 -796 504 C-796.62646366 499.52525955 -796.30781105 497.47966612 -793.84594727 493.64331055 C-788.51588328 486.84113831 -782.15130521 480.90676942 -776.02734375 474.83203125 C-774.65740299 473.46582805 -773.28790861 472.09917712 -771.9188385 470.73210144 C-768.32984625 467.15070632 -764.73489262 463.57535498 -761.13861084 460.00128174 C-757.48397188 456.36711354 -753.83498932 452.72727583 -750.18554688 449.08789062 C-744.29084552 443.21071699 -738.39276076 437.33696548 -732.49005127 431.46783447 C-730.99290929 429.97901599 -729.49642129 428.48954277 -728 427 C-727.08138687 426.08655319 -726.16277374 425.17310638 -725.21632385 424.23197937 C-723.37557438 422.37822733 -721.66684944 420.50779591 -720 418.5 C-716.68591461 414.59260009 -713.26877834 411.0092555 -709.25 407.8125 C-706.92512612 406.19690923 -706.92512612 406.19690923 -706 404 C-705.34 404 -704.68 404 -704 404 C-704 403.34 -704 402.68 -704 402 C-702.609375 400.66796875 -702.609375 400.66796875 -700.75 399.1875 C-697.73231709 396.70629405 -695.43204176 394.0625711 -693 391 C-692.34 391 -691.68 391 -691 391 C-690.67 390.01 -690.34 389.02 -690 388 C-689.34 388 -688.68 388 -688 388 C-687.73703125 387.39800781 -687.4740625 386.79601562 -687.203125 386.17578125 C-685.92348491 383.86162694 -684.81020039 382.81326683 -682.75 381.1875 C-677.73550551 376.97348444 -673.40852627 372.17087564 -669.01269531 367.33081055 C-666.60627987 364.70094225 -664.31903693 362.25092229 -661.51171875 360.04296875 C-659.35589229 358.28947382 -657.80873635 356.67753198 -656.03327942 354.57165527 C-651.26263565 349.06769214 -646.1043216 343.95624439 -640.95581055 338.81054688 C-639.85439114 337.70612973 -638.75317509 336.60150975 -637.65214539 335.4967041 C-634.6838613 332.51964795 -631.71239984 329.5457836 -628.74004722 326.57279015 C-626.88258835 324.71461801 -625.02584431 322.85573465 -623.16935158 320.99659729 C-616.69216202 314.5101837 -610.21242241 308.02633039 -603.73022461 301.54492188 C-597.68557702 295.50087743 -591.64655586 289.45125083 -585.61008614 283.39903975 C-580.42200501 278.19791142 -575.23010474 273.00061677 -570.03517562 267.8063283 C-566.9342673 264.70567537 -563.83494431 261.60347669 -560.73944664 258.49742126 C-557.83573039 255.58406913 -554.92731291 252.6754961 -552.01512337 249.77061462 C-550.9450793 248.70162136 -549.87675675 247.63090183 -548.81024933 246.55838013 C-547.35988805 245.10036738 -545.90281572 243.64903942 -544.44535828 242.19812012 C-543.63036708 241.38258415 -542.81537588 240.56704819 -541.97568798 239.72679901 C-540 238 -540 238 -538 238 C-538 237.34 -538 236.68 -538 236 C-536.77734375 234.80078125 -536.77734375 234.80078125 -534.9375 233.3125 C-528.52637207 227.87797758 -522.7215291 221.80555669 -516.81762695 215.83349609 C-515.44359068 214.44746353 -514.06502852 213.06591568 -512.68432617 211.68652344 C-510.21242653 209.21260041 -507.75099462 206.72886219 -505.29272461 204.24142456 C-502.84371233 201.76550149 -500.38924614 199.29501375 -497.93457031 196.82470703 C-496.64306524 195.52309679 -495.35335423 194.219704 -494.06542969 192.91455078 C-492.19418757 191.01900063 -490.31651584 189.13002811 -488.4375 187.2421875 C-487.58103882 186.37024246 -487.58103882 186.37024246 -486.70727539 185.48068237 C-482.74400389 181.51631045 -479.38021353 178.3085462 -473.625 177.5625 C-464.77872593 178.63015377 -459.45433248 185.20539802 -453.5625 191.3125 C-448.5313435 196.48017631 -443.50396285 201.50978275 -438.02514648 206.2019043 C-434.08729622 209.6982596 -430.4412603 213.4972187 -426.75 217.25 C-425.18468099 218.84089612 -423.61705731 220.42952868 -422.046875 222.015625 C-421.02352051 223.05638184 -421.02352051 223.05638184 -419.97949219 224.11816406 C-418.03379451 226.05273647 -418.03379451 226.05273647 -415.74707031 227.62402344 C-414.88227051 228.30513184 -414.88227051 228.30513184 -414 229 C-414 229.66 -414 230.32 -414 231 C-413.44602539 231.22727783 -412.89205078 231.45455566 -412.32128906 231.6887207 C-409.32266566 233.38262124 -407.27205539 235.52222907 -404.859375 237.98046875 C-404.13056122 238.71708488 -404.13056122 238.71708488 -403.38702393 239.46858215 C-401.83649697 241.03685648 -400.29280844 242.61163482 -398.75 244.1875 C-396.72743902 246.24694562 -394.70162603 248.3031089 -392.671875 250.35546875 C-391.93245667 251.10327103 -391.93245667 251.10327103 -391.17810059 251.86618042 C-387.8658629 255.19208154 -384.43742363 258.31234801 -380.86816406 261.35668945 C-376.69862964 265.02437583 -372.8863602 269.07679683 -369 273.0390625 C-365.78049134 276.29629978 -362.53675099 279.45170806 -359.0625 282.4375 C-353.64834097 287.10086745 -348.71736288 292.23626574 -343.7109375 297.328125 C-339.51973077 301.56254005 -335.26286991 305.62792563 -330.7265625 309.4921875 C-329.07703058 310.93272895 -327.52920426 312.43326925 -326 314 C-320.72658399 312.56179563 -317.50608991 308.9961885 -314 305 C-313.67 304.34 -313.34 303.68 -313 303 C-312.34 303 -311.68 303 -311 303 C-310.74347656 302.41476562 -310.48695313 301.82953125 -310.22265625 301.2265625 C-308.89437838 298.80765392 -307.43475199 297.26801128 -305.4375 295.375 C-302.85984611 292.95478041 -302.85984611 292.95478041 -301 290 C-300.34 290 -299.68 290 -299 290 C-298.74605469 289.41734375 -298.49210937 288.8346875 -298.23046875 288.234375 C-296.86679667 285.75811967 -295.35774797 284.19479374 -293.3125 282.25 C-289.95094315 279.04338464 -286.91711693 275.63770587 -283.8762207 272.13232422 C-280.81526213 268.65354579 -277.62556915 265.29945664 -274.4375 261.9375 C-273.025797 260.44293939 -271.61434347 258.94814312 -270.203125 257.453125 C-269.49994141 256.70869141 -268.79675781 255.96425781 -268.07226562 255.19726562 C-252.65132796 238.91099833 -252.65132796 238.91099833 -237.703125 222.1953125 C-235.16565463 219.28487699 -232.56205345 216.45999403 -229.88671875 213.67578125 C-229.19642578 212.95712891 -228.50613281 212.23847656 -227.79492188 211.49804688 C-226.3747022 210.02517772 -224.9501208 208.55650347 -223.52148438 207.09179688 C-222.49571289 206.01961914 -222.49571289 206.01961914 -221.44921875 204.92578125 C-220.83393311 204.29067627 -220.21864746 203.65557129 -219.5847168 203.0012207 C-217.85816085 201.03432275 -217.85816085 201.03432275 -217.03442383 198.37963867 C-215.7650842 195.45958832 -214.84206258 195.23608109 -212 194 C-210.13628903 192.33621301 -210.13628903 192.33621301 -208.35546875 190.3671875 C-207.67806641 189.64273438 -207.00066406 188.91828125 -206.30273438 188.171875 C-205.25569336 187.03492188 -205.25569336 187.03492188 -204.1875 185.875 C-203.15786133 184.77285156 -203.15786133 184.77285156 -202.10742188 183.6484375 C-198.2175834 179.46787316 -194.42277668 175.2163759 -190.67700195 170.90673828 C-188.01408272 167.87901966 -185.25792925 164.94095924 -182.5 162 C-178.52164508 157.7377183 -174.59764014 153.44714621 -170.78515625 149.03515625 C-168.49756146 146.42719807 -166.15795942 143.86827592 -163.8125 141.3125 C-163.12208618 140.55912354 -163.12208618 140.55912354 -162.41772461 139.79052734 C-159.85968224 137.00511316 -157.28596167 134.23559155 -154.6953125 131.48046875 C-154.15156982 130.89934326 -153.60782715 130.31821777 -153.04760742 129.71948242 C-151.99698389 128.59748977 -150.94261838 127.47898602 -149.8840332 126.36450195 C-145.48332816 121.85277596 -145.48332816 121.85277596 -144 116 C-144.68191406 115.75765625 -145.36382813 115.5153125 -146.06640625 115.265625 C-149.58018354 113.74969445 -152.72227661 111.80320748 -155.9375 109.75 C-156.61192139 109.32251465 -157.28634277 108.8950293 -157.98120117 108.45458984 C-159.4821879 107.50272822 -160.98221696 106.54935532 -162.48144531 105.59472656 C-165.25709075 103.83721241 -168.04588915 102.10173896 -170.8359375 100.3671875 C-172.82832049 99.12010393 -174.82050957 97.87271052 -176.8125 96.625 C-177.77341553 96.03041992 -178.73433105 95.43583984 -179.72436523 94.82324219 C-181.07703491 93.97101074 -181.07703491 93.97101074 -182.45703125 93.1015625 C-183.26116455 92.59963379 -184.06529785 92.09770508 -184.89379883 91.58056641 C-187.9338979 89.29917063 -189.74861925 87.25690375 -190.5 83.5 C-189.77589702 79.87948512 -187.98892185 79.09945717 -185 77 C-182.65989681 75.8432143 -180.28142209 74.76161693 -177.875 73.75 C-177.25496094 73.481875 -176.63492188 73.21375 -175.99609375 72.9375 C-173.15918126 71.74172613 -171.11050544 71 -168 71 C-167.67 70.34 -167.34 69.68 -167 69 C-164.88104101 68.10052353 -162.72890411 67.27829195 -160.5625 66.5 C-155.85565843 64.92730899 -155.85565843 64.92730899 -152 62 C-150.36217849 61.4540595 -148.72290425 60.91215362 -147.07720947 60.39042664 C-141.347512 58.54515674 -135.86500545 56.32088966 -130.359375 53.89453125 C-129.45089813 53.49801361 -128.54242126 53.10149597 -127.60641479 52.69296265 C-124.6527348 51.40296945 -121.70139318 50.1077155 -118.75 48.8125 C-116.69339031 47.91337517 -114.63658468 47.01469841 -112.57958984 46.11645508 C-109.44380184 44.74709266 -106.30812525 43.37748276 -103.17306519 42.00645447 C-93.33597504 37.70499375 -83.48264755 33.44159223 -73.625 29.1875 C-72.15981232 28.55513706 -70.6946425 27.92273273 -69.22949219 27.2902832 C-68.52981323 26.98827499 -67.83013428 26.68626678 -67.10925293 26.37510681 C-65.08669981 25.50105533 -63.06528554 24.62441062 -61.04394531 23.74755859 C-58.18425972 22.50796332 -55.31792834 21.28510165 -52.44824219 20.06884766 C-50.97327132 19.43790961 -49.4983353 18.80689008 -48.0234375 18.17578125 C-47.33263092 17.88632126 -46.64182434 17.59686127 -45.93008423 17.29862976 C-42.29800071 15.92622438 -42.29800071 15.92622438 -40 13 C-39.21625 12.896875 -38.4325 12.79375 -37.625 12.6875 C-32.35574873 11.68815924 -27.80906868 9.31896372 -23 7 C-23.33 6.34 -23.66 5.68 -24 5 C-23.12214844 5.0515625 -22.24429688 5.103125 -21.33984375 5.15625 C-17.70900593 4.98638624 -15.75641818 4.16881066 -12.5625 2.5 C-8.15601664 0.40736882 -4.94808604 -0.98961721 0 0 Z " fill="#0A0B0B" transform="translate(904,187)"/>
<path d="M0 0 C1.50539661 0.94983358 3.00420347 1.91011891 4.5 2.875 C5.75296875 3.67550781 5.75296875 3.67550781 7.03125 4.4921875 C7.6809375 4.98976563 8.330625 5.48734375 9 6 C9 6.66 9 7.32 9 8 C10.32 8.33 11.64 8.66 13 9 C12.01 9.495 12.01 9.495 11 10 C9.16015625 9.328125 9.16015625 9.328125 7.0625 8.25 C6.37285156 7.90453125 5.68320312 7.5590625 4.97265625 7.203125 C2.9482304 5.96842567 1.48783481 4.84696735 0 3 C0 2.01 0 1.02 0 0 Z " fill="#121212" transform="translate(853,366)"/>
<path d="M0 0 C1.09898702 3.29696105 0.87124444 4.40494903 0.0625 7.6875 C-0.22947266 8.89986328 -0.22947266 8.89986328 -0.52734375 10.13671875 C-0.68332031 10.75160156 -0.83929687 11.36648438 -1 12 C-3 10 -3 10 -3.046875 8.125 C-2.94890625 7.42375 -2.8509375 6.7225 -2.75 6 C-2.66234375 5.29875 -2.5746875 4.5975 -2.484375 3.875 C-2 2 -2 2 0 0 Z " fill="#121112" transform="translate(894,256)"/>
<path d="M0 0 C1.32 0.33 2.64 0.66 4 1 C1.60490662 3.89932357 -0.31245243 4.50168276 -4 5 C-4.33 4.34 -4.66 3.68 -5 3 C-3.35 2.67 -1.7 2.34 0 2 C0 1.34 0 0.68 0 0 Z " fill="#111110" transform="translate(736,256)"/>
<path d="M0 0 C0.33 0 0.66 0 1 0 C1 2.97 1 5.94 1 9 C0.67 9 0.34 9 0 9 C0 6.03 0 3.06 0 0 Z " fill="#ABABAB" transform="translate(0,1009)"/>
<path d="M0 0 C0.33 0 0.66 0 1 0 C1 2.31 1 4.62 1 7 C0.67 7 0.34 7 0 7 C0 4.69 0 2.38 0 0 Z " fill="#9D9D9E" transform="translate(0,879)"/>
<path d="M0 0 C0.33 0 0.66 0 1 0 C1 1.65 1 3.3 1 5 C0.67 5 0.34 5 0 5 C0 3.35 0 1.7 0 0 Z " fill="#969698" transform="translate(0,451)"/>
<path d="M0 0 C1 4 1 4 1 4 Z " fill="#969697" transform="translate(0,828)"/>
<path d="" fill="#ACADAE" transform="translate(0,0)"/>
<path d="" fill="#A7A7A7" transform="translate(0,0)"/>
<path d="" fill="#A5A5A5" transform="translate(0,0)"/>
<path d="" fill="#A3A3A4" transform="translate(0,0)"/>
<path d="" fill="#A2A3A4" transform="translate(0,0)"/>
<path d="M0 0 C0.66 0.66 1.32 1.32 2 2 C1.34 2 0.68 2 0 2 C0 1.34 0 0.68 0 0 Z " fill="#1A1917" transform="translate(492,533)"/>
<path d="" fill="#969596" transform="translate(0,0)"/>
<path d="M0 0 C0.33 0.66 0.66 1.32 1 2 C0.34 1.67 -0.32 1.34 -1 1 C-0.67 0.67 -0.34 0.34 0 0 Z " fill="#1B1A1A" transform="translate(442,486)"/>
<path d="" fill="#969697" transform="translate(0,0)"/>
<path d="M0 0 C0.66 0.66 1.32 1.32 2 2 C1.34 2 0.68 2 0 2 C0 1.34 0 0.68 0 0 Z " fill="#1C1B1B" transform="translate(737,290)"/>
<path d="M0 0 C3 1 3 1 3 1 Z " fill="#272625" transform="translate(874,195)"/>
<path d="" fill="#A8A9A8" transform="translate(0,0)"/>
<path d="" fill="#A7A7A8" transform="translate(0,0)"/>
<path d="" fill="#A4A4A4" transform="translate(0,0)"/>
<path d="" fill="#A0A1A1" transform="translate(0,0)"/>
<path d="" fill="#9A999A" transform="translate(0,0)"/>
<path d="M0 0 C2 1 2 1 2 1 Z " fill="#272724" transform="translate(121,707)"/>
<path d="" fill="#929394" transform="translate(0,0)"/>
<path d="" fill="#939393" transform="translate(0,0)"/>
<path d="M0 0 C2 1 2 1 2 1 Z " fill="#1B1919" transform="translate(374,537)"/>
<path d="" fill="#949395" transform="translate(0,0)"/>
<path d="" fill="#1A1919" transform="translate(0,0)"/>
<path d="" fill="#949495" transform="translate(0,0)"/>
<path d="M0 0 C2 1 2 1 2 1 Z " fill="#1C1A1A" transform="translate(440,485)"/>
<path d="" fill="#959696" transform="translate(0,0)"/>
<path d="" fill="#979797" transform="translate(0,0)"/>
<path d="M0 0 C2 1 2 1 2 1 Z " fill="#1C1B1C" transform="translate(782,401)"/>
<path d="M0 0 C2 1 2 1 2 1 Z " fill="#1E1C1C" transform="translate(672,400)"/>
<path d="" fill="#959598" transform="translate(0,0)"/>
<path d="" fill="#969697" transform="translate(0,0)"/>
<path d="" fill="#1B1A1A" transform="translate(0,0)"/>
<path d="" fill="#252626" transform="translate(0,0)"/>
<path d="M0 0 C2 1 2 1 2 1 Z " fill="#221F1F" transform="translate(808,224)"/>
<path d="" fill="#ADADAE" transform="translate(0,0)"/>
<path d="" fill="#ACABAA" transform="translate(0,0)"/>
<path d="" fill="#ABABAC" transform="translate(0,0)"/>
<path d="" fill="#AAAAA9" transform="translate(0,0)"/>
<path d="" fill="#A9AAAA" transform="translate(0,0)"/>
<path d="" fill="#ABA9AA" transform="translate(0,0)"/>
<path d="" fill="#A8A7A7" transform="translate(0,0)"/>
<path d="" fill="#A7A7A7" transform="translate(0,0)"/>
<path d="" fill="#A6A6A7" transform="translate(0,0)"/>
<path d="" fill="#A6A5A7" transform="translate(0,0)"/>
<path d="" fill="#A9A8A6" transform="translate(0,0)"/>
<path d="" fill="#A5A5A7" transform="translate(0,0)"/>
<path d="" fill="#A4A3A3" transform="translate(0,0)"/>
<path d="" fill="#A3A3A4" transform="translate(0,0)"/>
<path d="" fill="#545554" transform="translate(0,0)"/>
<path d="" fill="#A4A3A3" transform="translate(0,0)"/>
<path d="" fill="#A2A4A3" transform="translate(0,0)"/>
<path d="" fill="#A2A1A3" transform="translate(0,0)"/>
<path d="" fill="#A3A3A4" transform="translate(0,0)"/>
<path d="" fill="#A1A0A0" transform="translate(0,0)"/>
<path d="" fill="#A09F9F" transform="translate(0,0)"/>
<path d="" fill="#9E9EA0" transform="translate(0,0)"/>
<path d="" fill="#9F9F9F" transform="translate(0,0)"/>
<path d="" fill="#9D9D9E" transform="translate(0,0)"/>
<path d="" fill="#9D9E9E" transform="translate(0,0)"/>
<path d="" fill="#9C9C9F" transform="translate(0,0)"/>
<path d="" fill="#9A9B9D" transform="translate(0,0)"/>
<path d="" fill="#99999A" transform="translate(0,0)"/>
<path d="" fill="#99999B" transform="translate(0,0)"/>
<path d="" fill="#989999" transform="translate(0,0)"/>
<path d="" fill="#979597" transform="translate(0,0)"/>
<path d="" fill="#969594" transform="translate(0,0)"/>
<path d="" fill="#939393" transform="translate(0,0)"/>
<path d="" fill="#929293" transform="translate(0,0)"/>
<path d="" fill="#919295" transform="translate(0,0)"/>
<path d="" fill="#929294" transform="translate(0,0)"/>
<path d="" fill="#939393" transform="translate(0,0)"/>
<path d="" fill="#939291" transform="translate(0,0)"/>
<path d="" fill="#939292" transform="translate(0,0)"/>
<path d="" fill="#262625" transform="translate(0,0)"/>
<path d="" fill="#242423" transform="translate(0,0)"/>
<path d="" fill="#252624" transform="translate(0,0)"/>
<path d="" fill="#919090" transform="translate(0,0)"/>
<path d="" fill="#262625" transform="translate(0,0)"/>
<path d="" fill="#909390" transform="translate(0,0)"/>
<path d="" fill="#909193" transform="translate(0,0)"/>
<path d="" fill="#272524" transform="translate(0,0)"/>
<path d="" fill="#262624" transform="translate(0,0)"/>
<path d="" fill="#919192" transform="translate(0,0)"/>
<path d="" fill="#252725" transform="translate(0,0)"/>
<path d="" fill="#262524" transform="translate(0,0)"/>
<path d="" fill="#252726" transform="translate(0,0)"/>
<path d="" fill="#222120" transform="translate(0,0)"/>
<path d="" fill="#939293" transform="translate(0,0)"/>
<path d="" fill="#242524" transform="translate(0,0)"/>
<path d="" fill="#252624" transform="translate(0,0)"/>
<path d="" fill="#929192" transform="translate(0,0)"/>
<path d="" fill="#919193" transform="translate(0,0)"/>
<path d="" fill="#929390" transform="translate(0,0)"/>
<path d="" fill="#1E1F1F" transform="translate(0,0)"/>
<path d="" fill="#919291" transform="translate(0,0)"/>
<path d="" fill="#919191" transform="translate(0,0)"/>
<path d="" fill="#919091" transform="translate(0,0)"/>
<path d="" fill="#312F30" transform="translate(0,0)"/>
<path d="" fill="#343333" transform="translate(0,0)"/>
<path d="" fill="#333434" transform="translate(0,0)"/>
<path d="" fill="#333530" transform="translate(0,0)"/>
<path d="" fill="#2F302E" transform="translate(0,0)"/>
<path d="" fill="#939393" transform="translate(0,0)"/>
<path d="" fill="#333131" transform="translate(0,0)"/>
<path d="" fill="#929393" transform="translate(0,0)"/>
<path d="" fill="#1E1D1F" transform="translate(0,0)"/>
<path d="" fill="#282828" transform="translate(0,0)"/>
<path d="" fill="#1B1B1D" transform="translate(0,0)"/>
<path d="" fill="#929292" transform="translate(0,0)"/>
<path d="" fill="#262626" transform="translate(0,0)"/>
<path d="" fill="#929191" transform="translate(0,0)"/>
<path d="" fill="#252424" transform="translate(0,0)"/>
<path d="" fill="#909392" transform="translate(0,0)"/>
<path d="" fill="#929292" transform="translate(0,0)"/>
<path d="" fill="#1D1A1D" transform="translate(0,0)"/>
<path d="" fill="#939494" transform="translate(0,0)"/>
<path d="" fill="#949595" transform="translate(0,0)"/>
<path d="" fill="#949394" transform="translate(0,0)"/>
<path d="" fill="#1E1C1B" transform="translate(0,0)"/>
<path d="" fill="#939393" transform="translate(0,0)"/>
<path d="" fill="#939393" transform="translate(0,0)"/>
<path d="" fill="#939293" transform="translate(0,0)"/>
<path d="" fill="#949396" transform="translate(0,0)"/>
<path d="" fill="#1C1C1C" transform="translate(0,0)"/>
<path d="" fill="#959595" transform="translate(0,0)"/>
<path d="" fill="#1E1D1E" transform="translate(0,0)"/>
<path d="" fill="#1B1A1B" transform="translate(0,0)"/>
<path d="" fill="#949596" transform="translate(0,0)"/>
<path d="" fill="#1C1A1A" transform="translate(0,0)"/>
<path d="" fill="#1E1E1A" transform="translate(0,0)"/>
<path d="" fill="#949495" transform="translate(0,0)"/>
<path d="" fill="#1A191A" transform="translate(0,0)"/>
<path d="" fill="#949494" transform="translate(0,0)"/>
<path d="" fill="#1A1917" transform="translate(0,0)"/>
<path d="" fill="#949594" transform="translate(0,0)"/>
<path d="" fill="#959495" transform="translate(0,0)"/>
<path d="" fill="#949294" transform="translate(0,0)"/>
<path d="" fill="#1D1A1B" transform="translate(0,0)"/>
<path d="" fill="#1A1B19" transform="translate(0,0)"/>
<path d="" fill="#1D1B19" transform="translate(0,0)"/>
<path d="" fill="#949495" transform="translate(0,0)"/>
<path d="" fill="#1D1D1C" transform="translate(0,0)"/>
<path d="" fill="#949495" transform="translate(0,0)"/>
<path d="" fill="#969496" transform="translate(0,0)"/>
<path d="" fill="#1C1C1C" transform="translate(0,0)"/>
<path d="" fill="#1A1C1C" transform="translate(0,0)"/>
<path d="" fill="#939495" transform="translate(0,0)"/>
<path d="" fill="#1A1A19" transform="translate(0,0)"/>
<path d="" fill="#1E1E1D" transform="translate(0,0)"/>
<path d="" fill="#959594" transform="translate(0,0)"/>
<path d="" fill="#1B1B1C" transform="translate(0,0)"/>
<path d="" fill="#1A1A1A" transform="translate(0,0)"/>
<path d="" fill="#191A19" transform="translate(0,0)"/>
<path d="" fill="#959696" transform="translate(0,0)"/>
<path d="" fill="#1A1A18" transform="translate(0,0)"/>
<path d="" fill="#1A1919" transform="translate(0,0)"/>
<path d="" fill="#1C1C1B" transform="translate(0,0)"/>
<path d="" fill="#1A1A18" transform="translate(0,0)"/>
<path d="" fill="#1C1A1A" transform="translate(0,0)"/>
<path d="" fill="#1C1B1C" transform="translate(0,0)"/>
<path d="" fill="#949396" transform="translate(0,0)"/>
<path d="" fill="#1A1A1A" transform="translate(0,0)"/>
<path d="" fill="#1B1A17" transform="translate(0,0)"/>
<path d="" fill="#1B1B19" transform="translate(0,0)"/>
<path d="" fill="#181818" transform="translate(0,0)"/>
<path d="" fill="#1A1919" transform="translate(0,0)"/>
<path d="" fill="#191819" transform="translate(0,0)"/>
<path d="" fill="#949495" transform="translate(0,0)"/>
<path d="" fill="#1B1C1A" transform="translate(0,0)"/>
<path d="" fill="#191A1A" transform="translate(0,0)"/>
<path d="" fill="#959596" transform="translate(0,0)"/>
<path d="" fill="#1A1917" transform="translate(0,0)"/>
<path d="" fill="#191919" transform="translate(0,0)"/>
<path d="" fill="#1B1919" transform="translate(0,0)"/>
<path d="" fill="#1D1C19" transform="translate(0,0)"/>
<path d="" fill="#969697" transform="translate(0,0)"/>
<path d="" fill="#191717" transform="translate(0,0)"/>
<path d="" fill="#949495" transform="translate(0,0)"/>
<path d="" fill="#1A171A" transform="translate(0,0)"/>
<path d="" fill="#1C1B1B" transform="translate(0,0)"/>
<path d="" fill="#959695" transform="translate(0,0)"/>
<path d="" fill="#959596" transform="translate(0,0)"/>
<path d="" fill="#959596" transform="translate(0,0)"/>
<path d="" fill="#979696" transform="translate(0,0)"/>
<path d="" fill="#1B1A1B" transform="translate(0,0)"/>
<path d="" fill="#949695" transform="translate(0,0)"/>
<path d="" fill="#1C2121" transform="translate(0,0)"/>
<path d="" fill="#191A19" transform="translate(0,0)"/>
<path d="" fill="#969697" transform="translate(0,0)"/>
<path d="" fill="#969696" transform="translate(0,0)"/>
<path d="" fill="#1B1D1D" transform="translate(0,0)"/>
<path d="" fill="#959596" transform="translate(0,0)"/>
<path d="" fill="#1B1B19" transform="translate(0,0)"/>
<path d="" fill="#1D1D1B" transform="translate(0,0)"/>
<path d="" fill="#1A191B" transform="translate(0,0)"/>
<path d="" fill="#1E1E1E" transform="translate(0,0)"/>
<path d="" fill="#1D1D1C" transform="translate(0,0)"/>
<path d="" fill="#1B1C1A" transform="translate(0,0)"/>
<path d="" fill="#959596" transform="translate(0,0)"/>
<path d="" fill="#1A1B1C" transform="translate(0,0)"/>
<path d="" fill="#969598" transform="translate(0,0)"/>
<path d="" fill="#1D1C1D" transform="translate(0,0)"/>
<path d="" fill="#1E1C1C" transform="translate(0,0)"/>
<path d="" fill="#1B1B1C" transform="translate(0,0)"/>
<path d="" fill="#959497" transform="translate(0,0)"/>
<path d="" fill="#1C1B1C" transform="translate(0,0)"/>
<path d="" fill="#989697" transform="translate(0,0)"/>
<path d="" fill="#1F1E1F" transform="translate(0,0)"/>
<path d="" fill="#1C1C1B" transform="translate(0,0)"/>
<path d="" fill="#1C1B1B" transform="translate(0,0)"/>
<path d="" fill="#1B1C1C" transform="translate(0,0)"/>
<path d="" fill="#1C1C1B" transform="translate(0,0)"/>
<path d="" fill="#1B1C1B" transform="translate(0,0)"/>
<path d="" fill="#1D1B1C" transform="translate(0,0)"/>
<path d="" fill="#1B191A" transform="translate(0,0)"/>
<path d="" fill="#1E1D1F" transform="translate(0,0)"/>
<path d="" fill="#1A1B1B" transform="translate(0,0)"/>
<path d="" fill="#1D1E1B" transform="translate(0,0)"/>
<path d="" fill="#969696" transform="translate(0,0)"/>
<path d="" fill="#1C1E1E" transform="translate(0,0)"/>
<path d="" fill="#979797" transform="translate(0,0)"/>
<path d="" fill="#1F1D1D" transform="translate(0,0)"/>
<path d="" fill="#1C1A1C" transform="translate(0,0)"/>
<path d="" fill="#1F1D21" transform="translate(0,0)"/>
<path d="" fill="#969797" transform="translate(0,0)"/>
<path d="" fill="#1D1E1C" transform="translate(0,0)"/>
<path d="" fill="#1C1C1B" transform="translate(0,0)"/>
<path d="" fill="#232121" transform="translate(0,0)"/>
<path d="" fill="#97979A" transform="translate(0,0)"/>
<path d="" fill="#201F1F" transform="translate(0,0)"/>
<path d="" fill="#1B191B" transform="translate(0,0)"/>
<path d="" fill="#1F1F20" transform="translate(0,0)"/>
<path d="" fill="#979796" transform="translate(0,0)"/>
<path d="" fill="#1B1D1C" transform="translate(0,0)"/>
<path d="" fill="#969896" transform="translate(0,0)"/>
<path d="" fill="#1E201F" transform="translate(0,0)"/>
<path d="" fill="#1F1E1E" transform="translate(0,0)"/>
<path d="" fill="#989796" transform="translate(0,0)"/>
<path d="" fill="#1F1C19" transform="translate(0,0)"/>
<path d="" fill="#1D1D1E" transform="translate(0,0)"/>
<path d="" fill="#969697" transform="translate(0,0)"/>
<path d="" fill="#1C1B1B" transform="translate(0,0)"/>
<path d="" fill="#989798" transform="translate(0,0)"/>
<path d="" fill="#1D1D1C" transform="translate(0,0)"/>
<path d="" fill="#959797" transform="translate(0,0)"/>
<path d="" fill="#989697" transform="translate(0,0)"/>
<path d="" fill="#201F1E" transform="translate(0,0)"/>
<path d="" fill="#1D1B1E" transform="translate(0,0)"/>
<path d="" fill="#969697" transform="translate(0,0)"/>
<path d="" fill="#1D1E1B" transform="translate(0,0)"/>
<path d="" fill="#979797" transform="translate(0,0)"/>
<path d="" fill="#1A1A1B" transform="translate(0,0)"/>
<path d="" fill="#1C1B1A" transform="translate(0,0)"/>
<path d="" fill="#1E1C1C" transform="translate(0,0)"/>
<path d="" fill="#1E1F1D" transform="translate(0,0)"/>
<path d="" fill="#979798" transform="translate(0,0)"/>
<path d="" fill="#999797" transform="translate(0,0)"/>
<path d="" fill="#979898" transform="translate(0,0)"/>
<path d="" fill="#989697" transform="translate(0,0)"/>
<path d="" fill="#1E1E1D" transform="translate(0,0)"/>
<path d="" fill="#201F1E" transform="translate(0,0)"/>
<path d="" fill="#959696" transform="translate(0,0)"/>
<path d="" fill="#211F1E" transform="translate(0,0)"/>
<path d="" fill="#979696" transform="translate(0,0)"/>
<path d="" fill="#1D1D1D" transform="translate(0,0)"/>
<path d="" fill="#959797" transform="translate(0,0)"/>
<path d="" fill="#1C1A1C" transform="translate(0,0)"/>
<path d="" fill="#212220" transform="translate(0,0)"/>
<path d="" fill="#1C1A1B" transform="translate(0,0)"/>
<path d="" fill="#979697" transform="translate(0,0)"/>
<path d="" fill="#1C1A1C" transform="translate(0,0)"/>
<path d="" fill="#1F1E1E" transform="translate(0,0)"/>
<path d="" fill="#999897" transform="translate(0,0)"/>
<path d="" fill="#969696" transform="translate(0,0)"/>
<path d="" fill="#2D2D2E" transform="translate(0,0)"/>
<path d="" fill="#1C1B1C" transform="translate(0,0)"/>
<path d="" fill="#969797" transform="translate(0,0)"/>
<path d="" fill="#1B1D1D" transform="translate(0,0)"/>
<path d="" fill="#1A1A1A" transform="translate(0,0)"/>
<path d="" fill="#343434" transform="translate(0,0)"/>
<path d="" fill="#1D1C1B" transform="translate(0,0)"/>
<path d="" fill="#1B1B1D" transform="translate(0,0)"/>
<path d="" fill="#97979A" transform="translate(0,0)"/>
<path d="" fill="#969799" transform="translate(0,0)"/>
<path d="" fill="#252323" transform="translate(0,0)"/>
<path d="" fill="#979798" transform="translate(0,0)"/>
<path d="" fill="#98989A" transform="translate(0,0)"/>
<path d="" fill="#232424" transform="translate(0,0)"/>
<path d="" fill="#989798" transform="translate(0,0)"/>
<path d="" fill="#1B1A1B" transform="translate(0,0)"/>
<path d="" fill="#1D1B1A" transform="translate(0,0)"/>
<path d="" fill="#9A9A99" transform="translate(0,0)"/>
<path d="" fill="#989899" transform="translate(0,0)"/>
<path d="" fill="#1C1C1B" transform="translate(0,0)"/>
<path d="" fill="#1C1B1B" transform="translate(0,0)"/>
<path d="" fill="#9A9A99" transform="translate(0,0)"/>
<path d="" fill="#222222" transform="translate(0,0)"/>
<path d="" fill="#262626" transform="translate(0,0)"/>
<path d="" fill="#20211F" transform="translate(0,0)"/>
<path d="" fill="#212221" transform="translate(0,0)"/>
<path d="" fill="#201E1E" transform="translate(0,0)"/>
<path d="" fill="#221F21" transform="translate(0,0)"/>
<path d="" fill="#1F2021" transform="translate(0,0)"/>
<path d="" fill="#9A9B9B" transform="translate(0,0)"/>
<path d="" fill="#222020" transform="translate(0,0)"/>
<path d="" fill="#9C9C9D" transform="translate(0,0)"/>
<path d="" fill="#9D9C9E" transform="translate(0,0)"/>
<path d="" fill="#1F1F20" transform="translate(0,0)"/>
<path d="" fill="#9C9C9F" transform="translate(0,0)"/>
<path d="" fill="#20221F" transform="translate(0,0)"/>
<path d="" fill="#282627" transform="translate(0,0)"/>
<path d="" fill="#221F1E" transform="translate(0,0)"/>
<path d="" fill="#222423" transform="translate(0,0)"/>
<path d="" fill="#232122" transform="translate(0,0)"/>
<path d="" fill="#232422" transform="translate(0,0)"/>
<path d="" fill="#222321" transform="translate(0,0)"/>
<path d="" fill="#393838" transform="translate(0,0)"/>
<path d="" fill="#313231" transform="translate(0,0)"/>
<path d="" fill="#A5A5A4" transform="translate(0,0)"/>
<path d="" fill="#A6A5A6" transform="translate(0,0)"/>
<path d="" fill="#A6A7A7" transform="translate(0,0)"/>
<path d="" fill="#B2B2B4" transform="translate(0,0)"/>
</svg>
