<?xml version="1.0" encoding="UTF-8"?>
<svg version="1.1" xmlns="http://www.w3.org/2000/svg" width="1024" height="1024" viewBox="0 0 1024 1024">
<path d="M0 0 C3.14523543 -0.0022034 6.29012792 -0.02051418 9.43530273 -0.03930664 C19.00470156 -0.06679188 28.49925309 0.08135641 38.02709961 1.03295898 C38.78057175 1.10545364 39.53404388 1.1779483 40.31034851 1.25263977 C46.14081375 1.9189467 51.00103633 3.59205358 56.29663086 6.16186523 C58.35279607 7.32844425 58.35279607 7.32844425 60.44897461 7.18530273 C60.44897461 7.84530273 60.44897461 8.50530273 60.44897461 9.18530273 C61.16311523 9.43924805 61.87725586 9.69319336 62.61303711 9.95483398 C77.12996155 16.25349955 88.05957665 29.74333906 94.17944336 44.02905273 C97.81815491 53.3121546 99.84802821 62.93391826 101.62573242 72.72387695 C103.31927703 81.74959737 105.81468602 89.60878734 112.44897461 96.18530273 C114.82119634 97.59283977 117.01732895 98.75310314 119.51147461 99.87280273 C120.95058856 100.55953488 122.3880151 101.24981132 123.82397461 101.94311523 C124.57936523 102.30566406 125.33475586 102.66821289 126.11303711 103.04174805 C139.18409682 109.44066566 151.50787231 116.9557341 163.58398438 125.05859375 C175.66871322 133.41590767 175.66871322 133.41590767 189.84741211 134.81420898 C197.81731215 132.97587961 205.59840619 130.27521197 213.35571289 127.69897461 C232.5540164 121.41301745 251.78011278 120.87004648 270.24316406 129.76855469 C298.5278138 144.39779132 311.05898576 174.66547722 325.82836914 201.28198242 C327.34061312 203.99117274 328.87228032 206.68801341 330.41381836 209.38061523 C341.5205516 228.84964504 347.17091955 248.37863198 341.21728516 270.59057617 C338.40598547 280.23547822 333.82589363 287.52434346 327.44897461 295.18530273 C327.02358398 295.75635742 326.59819336 296.32741211 326.15991211 296.91577148 C321.48047988 302.95884194 315.13034833 307.24561473 309.13061523 311.88354492 C301.28994109 317.95300987 294.51171407 323.79362753 293.02429199 334.13909912 C292.88988668 337.41421194 292.91210147 340.65073512 292.99584961 343.92749023 C293.01001923 345.73287766 293.01001923 345.73287766 293.0244751 347.57473755 C293.05883963 351.40396856 293.12741013 355.23160313 293.19897461 359.06030273 C293.26581457 364.07844132 293.3189761 369.09667757 293.37084961 374.11499023 C293.38612198 375.32622055 293.40139435 376.53745087 293.41712952 377.78538513 C293.49852154 385.90102233 293.31146607 393.95898956 292.7678833 402.05697632 C292.09670406 412.2499685 293.7931081 419.3296663 300.44897461 427.18530273 C304.98903983 431.7606992 310.07343727 435.69386917 315.07397461 439.74780273 C330.70405011 452.50438246 340.65200311 467.96295126 343.44897461 488.18530273 C344.60885552 507.29481603 340.76545269 522.56017092 331.44897461 539.18530273 C330.81862305 540.32225586 330.18827148 541.45920898 329.53881836 542.63061523 C327.90743763 545.51819263 326.2525278 548.39002801 324.57788086 551.25268555 C322.88457957 554.15151189 321.20731921 557.05956694 319.52807617 559.96655273 C318.12481281 562.39296742 316.7165901 564.81646158 315.30834961 567.23999023 C313.40229376 570.52553126 311.51883781 573.82258758 309.65209961 577.13061523 C295.82997436 601.53420187 281.45018736 619.63365614 253.57397461 628.49780273 C250.4288911 629.18972111 247.65848988 629.34186445 244.44897461 629.18530273 C244.11897461 629.84530273 243.78897461 630.50530273 243.44897461 631.18530273 C229.06222394 630.28902826 216.1902186 627.42223197 202.44897461 623.18530273 C190.69840868 619.6077419 181.74399384 617.77829294 170.38647461 623.56030273 C164.61300286 626.9179246 159.15584434 630.75576829 153.63525391 634.5078125 C144.05796328 640.9240717 133.84460312 646.24527014 123.38647461 651.07983398 C115.3063031 654.83783462 109.05698445 658.24016203 105.35913086 666.66967773 C103.53008209 672.105405 102.34264778 677.64064379 101.15600586 683.24389648 C96.31278294 705.85665722 88.4987371 727.25248648 68.17553711 740.59155273 C55.05232231 748.26242901 41.36057629 752.24198821 26.14697266 752.36230469 C25.10616295 752.37216148 25.10616295 752.37216148 24.04432678 752.38221741 C21.76644744 752.40178947 19.48863386 752.41358319 17.21069336 752.42358398 C16.42316996 752.42765951 15.63564655 752.43173504 14.8242588 752.43593407 C10.64732764 752.45673686 6.47042865 752.47105769 2.29345703 752.48046875 C-1.96798173 752.49145938 -6.22888769 752.52578968 -10.49013996 752.56564045 C-13.8115468 752.59211296 -17.13283318 752.60018778 -20.45433617 752.60375023 C-22.02204125 752.60854577 -23.58974366 752.61995133 -25.15734291 752.63878822 C-47.43513496 752.88963149 -66.91479748 747.8190218 -83.55102539 732.18530273 C-88.18813512 727.52133715 -91.84192293 722.46417577 -95.28930664 716.87280273 C-95.70567383 716.31592773 -96.12204102 715.75905273 -96.55102539 715.18530273 C-97.21102539 715.18530273 -97.87102539 715.18530273 -98.55102539 715.18530273 C-98.63352539 714.25717773 -98.71602539 713.32905273 -98.80102539 712.37280273 C-99.25762684 709.11037728 -100.20727783 706.30631148 -101.41040039 703.24389648 C-104.13760877 695.89205201 -105.65072692 688.33919382 -107.26196289 680.68139648 C-110.34768438 666.50974075 -110.34768438 666.50974075 -119.53540039 655.85351562 C-126.13460749 651.86312498 -132.93080346 648.54401828 -139.92602539 645.31030273 C-147.94028654 641.55007646 -155.45615142 637.75859333 -162.60961914 632.51342773 C-164.43410347 630.99709461 -164.43410347 630.99709461 -166.55102539 631.18530273 C-167.16977539 630.48405273 -167.78852539 629.78280273 -168.42602539 629.06030273 C-173.69976626 623.59932846 -182.35606378 619.32282767 -189.98852539 618.95483398 C-196.33553289 619.52567765 -202.44919115 621.43018518 -208.55102539 623.18530273 C-209.43628906 623.43828125 -210.32155273 623.69125977 -211.23364258 623.9519043 C-216.80526411 625.54432689 -216.80526411 625.54432689 -222.3684082 627.16601562 C-239.9800767 632.31308776 -256.80141437 631.04387093 -273.48852539 623.37280273 C-274.1863916 623.05375977 -274.88425781 622.7347168 -275.60327148 622.40600586 C-280.60055139 619.97742123 -284.4516903 616.89866147 -288.55102539 613.18530273 C-289.59065032 612.34132326 -290.63347754 611.50126844 -291.67993164 610.66577148 C-303.69742955 600.2833073 -310.91439494 585.35255912 -318.55883789 571.7253418 C-321.60264131 566.30497821 -324.70491365 560.91818828 -327.80969238 555.53259277 C-328.78158961 553.84406945 -329.74887537 552.15289448 -330.71606445 550.46166992 C-331.30613281 549.43460938 -331.89620117 548.40754883 -332.50415039 547.34936523 C-333.02138672 546.44653809 -333.53862305 545.54371094 -334.0715332 544.61352539 C-335.49405817 542.18936075 -335.49405817 542.18936075 -337.1340332 540.08374023 C-339.30680987 537.17272863 -340.62473983 533.87887645 -342.05102539 530.56030273 C-342.35927246 529.84753174 -342.66751953 529.13476074 -342.98510742 528.40039062 C-350.45286238 510.8477883 -352.90209546 490.29143365 -345.73657227 472.11987305 C-338.85128114 456.29539822 -328.27684064 444.25253991 -314.80102539 433.49780273 C-308.15512359 428.17158715 -301.93684891 422.64814812 -299.55102539 414.18530273 C-299.17329426 410.73740812 -299.2230945 407.33715801 -299.30102539 403.87280273 C-299.31053223 402.86934814 -299.32003906 401.86589355 -299.32983398 400.83203125 C-299.39939793 395.53166762 -299.58122029 390.24447603 -299.85571289 384.95092773 C-299.96338016 382.8415983 -300.07014156 380.73222244 -300.17602539 378.62280273 C-300.23000488 377.562146 -300.28398437 376.50148926 -300.33959961 375.40869141 C-300.7476051 365.33932506 -300.048176 355.42496494 -299.04956055 345.40966797 C-298.28334692 336.76013698 -298.55124247 329.74122305 -303.42602539 322.33764648 C-308.26857186 317.29036 -313.30776293 312.75616475 -318.78149414 308.40014648 C-326.38468382 302.31973951 -332.81991637 296.05602579 -338.55102539 288.18530273 C-340.48943944 285.72299299 -342.33795117 283.39837695 -344.55102539 281.18530273 C-344.55102539 280.19530273 -344.55102539 279.20530273 -344.55102539 278.18530273 C-345.15904439 275.88331453 -345.81056981 273.59267278 -346.48852539 271.31030273 C-353.07968905 249.05626629 -348.23718621 230.12784753 -337.55102539 210.18530273 C-334.46867389 204.59109678 -331.23441808 199.08888466 -327.97436523 193.59692383 C-326.09589568 190.41415843 -324.25771636 187.20898418 -322.41894531 184.00317383 C-320.14873712 180.05269553 -317.85363574 176.11696522 -315.55102539 172.18530273 C-315.08664062 171.39140137 -314.62225586 170.5975 -314.14379883 169.77954102 C-301.61807861 148.48062284 -287.11577168 130.98145248 -262.30102539 124.24780273 C-242.46907223 120.39693804 -224.83103668 125.54941929 -206.12426758 131.81054688 C-195.46729412 135.34244452 -187.88247108 135.81667476 -177.63305664 130.73999023 C-172.46263102 127.80302456 -167.61999062 124.53711585 -162.80102539 121.06030273 C-151.6918892 113.22487334 -139.34265342 107.21283865 -127.28930664 100.97436523 C-126.15879883 100.38397461 -125.02829102 99.79358398 -123.86352539 99.18530273 C-122.9315332 98.71092773 -121.99954102 98.23655273 -121.03930664 97.74780273 C-112.92574989 92.65294763 -110.04487107 84.93565654 -107.70825195 75.94116211 C-106.98413355 72.61359467 -106.32238715 69.27879288 -105.67602539 65.93530273 C-101.11998631 44.10595882 -92.39377645 25.16617592 -73.17602539 12.37280273 C-60.7474812 4.94364481 -48.07283562 1.20199474 -33.67993164 0.61889648 C-32.24377754 0.55782967 -32.24377754 0.55782967 -30.77861023 0.49552917 C-20.52062147 0.09327646 -10.26499307 -0.00080139 0 0 Z M-28.03540039 46.41967773 C-28.86606018 46.43468323 -29.69671997 46.44968872 -30.55255127 46.46514893 C-38.72933708 46.81321692 -45.98026693 49.7897689 -52.00512695 55.39599609 C-58.55465362 62.97677325 -60.14112031 72.97693737 -62.05102539 82.49780273 C-66.348302 103.7494606 -73.29789999 121.99113228 -91.34008789 135.23217773 C-100.14950457 140.85718786 -109.60748784 145.4401761 -118.88305664 150.23608398 C-129.04332964 155.50343245 -138.91002662 160.97636825 -148.36352539 167.43530273 C-159.32774849 174.90407706 -171.19372565 180.03381138 -184.55102539 181.18530273 C-185.40180664 181.26135742 -186.25258789 181.33741211 -187.12915039 181.41577148 C-202.38659353 182.13952199 -217.64340546 176.62486721 -232.08227539 172.20092773 C-241.03915674 169.57841743 -248.84641687 168.85404317 -257.44555664 172.91967773 C-268.24559629 179.41172383 -273.017898 191.83496252 -278.7800293 202.55249023 C-284.33614565 212.79609311 -290.57880992 222.56716142 -296.94482422 232.32080078 C-301.4305635 239.304699 -304.61016024 246.71222397 -303.55102539 255.18530273 C-300.52240782 266.74738365 -292.40763578 272.5499259 -283.48071289 279.78295898 C-266.77247756 293.48371196 -255.68164469 307.85795913 -252.82446289 330.09545898 C-252.25600881 336.51899009 -252.36770113 342.75472423 -253.05493164 349.16186523 C-253.67053898 355.75678743 -253.70124059 362.31586271 -253.67602539 368.93530273 C-253.6740918 370.17449463 -253.6721582 371.41368652 -253.67016602 372.69042969 C-253.63516879 380.09185787 -253.35750227 387.39317759 -252.78930664 394.77124023 C-251.20285032 417.50177828 -254.79889195 437.89597221 -270.16821289 455.66186523 C-275.59521 461.40914414 -281.5422204 466.41897713 -287.73852539 471.31030273 C-295.68681964 477.63649612 -302.29161809 483.2843041 -303.96508789 493.78295898 C-304.71523469 507.50274907 -295.89849339 518.90244761 -288.91918945 530.00268555 C-286.97312894 533.10721463 -285.06608973 536.23393806 -283.17602539 539.37280273 C-282.82386963 539.95400879 -282.47171387 540.53521484 -282.10888672 541.1340332 C-279.7748692 545.02491904 -277.55934317 548.96958453 -275.38305664 552.95092773 C-274.82215332 553.96904541 -274.26125 554.98716309 -273.68334961 556.03613281 C-272.58314974 558.0398532 -271.49422744 560.04982279 -270.41870117 562.06689453 C-265.91791925 570.24596974 -260.24862535 578.18156201 -251.16821289 581.54467773 C-236.85804247 585.04746572 -223.71454811 579.61824408 -210.26733398 575.03320312 C-193.18339183 569.70042125 -174.40515507 572.82436041 -158.82739258 580.78881836 C-149.74549488 585.58144462 -140.97574588 590.92670328 -132.17602539 596.21264648 C-124.90897256 600.48378691 -117.49976111 604.12500576 -109.86352539 607.68530273 C-91.84593078 616.15584084 -75.98925217 627.85620455 -68.57446289 647.08764648 C-65.90274423 654.64859754 -64.3099005 662.4676835 -62.6237793 670.29321289 C-58.66399045 688.58637931 -58.66399045 688.58637931 -46.48852539 702.06030273 C-41.79696887 704.86594644 -37.70852448 705.32242576 -32.27368164 705.50170898 C-30.41839844 705.56455078 -30.41839844 705.56455078 -28.52563477 705.62866211 C-26.58914063 705.68763672 -26.58914063 705.68763672 -24.61352539 705.74780273 C-23.35733398 705.79098633 -22.10114258 705.83416992 -20.80688477 705.87866211 C-17.05515005 706.00068549 -13.30374277 706.09899369 -9.55102539 706.18530273 C-8.31852051 706.21736816 -7.08601563 706.24943359 -5.81616211 706.2824707 C-4.07423584 706.30978271 -4.07423584 706.30978271 -2.29711914 706.33764648 C-0.74335571 706.36652954 -0.74335571 706.36652954 0.84179688 706.39599609 C3.68521798 706.37871753 3.68521798 706.37871753 6.44897461 704.18530273 C6.77897461 704.51530273 7.10897461 704.84530273 7.44897461 705.18530273 C9.08742895 705.44537485 10.73581165 705.64452597 12.38647461 705.81030273 C13.28237305 705.90569336 14.17827148 706.00108398 15.10131836 706.09936523 C17.47120084 706.37403689 17.47120084 706.37403689 19.44897461 705.18530273 C21.09568436 705.21724948 22.74177074 705.28549421 24.38647461 705.37280273 C32.3486089 705.41454394 39.46955993 703.44850469 45.38647461 697.93530273 C53.45556395 688.77112269 55.09941881 676.65306121 57.53100586 665.04077148 C62.25304548 643.01535366 70.66584445 626.89135073 89.90209961 614.24780273 C94.24854639 611.62922673 98.8294425 609.55692634 103.4519043 607.47851562 C115.66030145 601.9244751 127.18128732 594.8940105 138.71850586 588.07983398 C159.27178943 575.95990241 178.99212025 568.7772467 203.06201172 574.77612305 C206.88496409 575.83186319 210.67400492 576.96945701 214.44897461 578.18530273 C225.42525275 581.71621235 236.69886595 585.14693315 247.82397461 580.24780273 C256.95829693 574.70296488 261.96878336 566.10734158 266.69897461 556.81030273 C270.76624818 549.0575837 274.96258907 541.48780218 279.69897461 534.12280273 C280.43700317 532.97497314 280.43700317 532.97497314 281.18994141 531.80395508 C282.14838325 530.31646874 283.10758919 528.8294744 284.06762695 527.34301758 C286.2683095 523.9054721 288.40016077 520.42827229 290.51147461 516.93530273 C290.86951172 516.35127686 291.22754883 515.76725098 291.59643555 515.16552734 C296.44774303 507.10145668 298.68503145 500.56973424 297.44897461 491.18530273 C293.94582992 479.57584738 283.18057702 470.77388329 273.44897461 464.18530273 C272.73354492 464.03061523 272.01811523 463.87592773 271.28100586 463.71655273 C269.44897461 463.18530273 269.44897461 463.18530273 268.42944336 461.37280273 C268.10588867 460.65092773 267.78233398 459.92905273 267.44897461 459.18530273 C266.25324836 457.82189993 265.02007698 456.49088634 263.76147461 455.18530273 C250.72712803 440.8451473 246.30481756 423.16254826 246.44897461 404.18530273 C246.63059987 401.00951867 246.84493055 397.83722284 247.06596375 394.66398621 C247.6007175 386.58835122 247.59868115 378.52540601 247.57397461 370.43530273 C247.57375305 369.65081757 247.57353149 368.8663324 247.57330322 368.05807495 C247.57028658 358.93214726 247.42859006 349.85703919 246.82397461 340.74780273 C245.69019313 322.85490657 250.94246305 306.58470882 262.19897461 292.49780273 C267.25969152 286.95383434 273.48299911 282.52225256 279.35913086 277.89233398 C291.84156892 268.10055639 291.84156892 268.10055639 297.76147461 253.87670898 C298.34414037 242.20518551 291.7160333 232.92718678 285.69897461 223.43530273 C284.2511636 221.12386663 282.80911711 218.80885277 281.36694336 216.49389648 C280.68293457 215.39803223 279.99892578 214.30216797 279.29418945 213.1730957 C277.1208536 209.65400544 275.04524804 206.09919057 273.01147461 202.49780273 C272.13168945 200.94125977 272.13168945 200.94125977 271.23413086 199.35327148 C270.28393766 197.66704242 269.33400733 195.98066415 268.38598633 194.29321289 C260.4438054 179.40991379 260.4438054 179.40991379 246.72265625 170.65258789 C236.67853219 168.58832788 227.57684602 171.54315258 218.07397461 174.56030273 C195.81918866 181.54474823 175.00120528 184.43300474 153.32397461 174.06030273 C146.25284154 170.2803422 139.65601055 165.82335577 133.05688477 161.28198242 C126.7586561 156.98625767 120.25087822 153.56638515 113.39038086 150.27905273 C91.4307874 139.64116156 71.07004575 128.6281065 62.15234375 104.33154297 C58.94575568 95.08385336 56.97324823 85.68726788 55.36083984 76.04052734 C53.61322306 66.20732286 50.48104252 58.36367586 42.90209961 51.65795898 C35.93615589 47.4761743 28.7854055 46.71948179 20.80834961 46.63842773 C19.80547913 46.61810486 18.80260864 46.59778198 17.76934814 46.57684326 C15.651605 46.53681613 13.53372355 46.50358757 11.41577148 46.47680664 C8.24925293 46.43595144 5.08379262 46.37309736 1.91772461 46.30639648 C-8.06787133 46.1194617 -18.05244666 46.09731502 -28.03540039 46.41967773 Z " fill="#010101" transform="translate(514.551025390625,104.814697265625)"/>
<path d="M0 0 C0.78713379 0.02465332 1.57426758 0.04930664 2.38525391 0.07470703 C5.06998989 0.161793 7.75358824 0.26552656 10.4375 0.375 C11.29102051 0.4056958 12.14454102 0.4363916 13.02392578 0.46801758 C17.71950003 0.69199174 21.5647837 1.32379412 26 3 C28.28862605 3.59515098 30.58056638 4.17764675 32.875 4.75 C49.51138921 9.09478514 70.41634807 15.93142411 83.3125 27.75 C86.05161766 30.19019391 88.86219464 32.48720149 91.75 34.75 C101.26443208 42.35865813 109.59801486 50.3036726 117 60 C117.67804688 60.87398438 118.35609375 61.74796875 119.0546875 62.6484375 C143.45183487 95.01974977 153.10765711 135.73648352 148.05664062 175.77832031 C142.33485561 214.72759542 120.54737008 250.68400966 89.1262207 274.34790039 C53.02377935 300.7416764 10.19512045 310.47831282 -34 304 C-64.64863045 298.73956139 -92.36799646 284.07928812 -115 263 C-115.92683594 262.1440625 -116.85367188 261.288125 -117.80859375 260.40625 C-146.41143889 232.91896045 -160.99620103 193.86721096 -162 154.6953125 C-162.40904143 112.169612 -145.29195908 74.40980643 -116.1875 43.875 C-84.67499426 13.3872912 -43.72272563 -1.64521088 0 0 Z M-83 78 C-83.598125 78.53625 -84.19625 79.0725 -84.8125 79.625 C-103.92511114 97.32186217 -113.81466798 123.91862474 -114.96142578 149.47705078 C-115.38077919 176.9048871 -104.81937106 204.05082778 -86.01000977 223.94750977 C-84.68646225 225.31119974 -83.34376865 226.65623135 -82 228 C-81.01773438 228.98226562 -81.01773438 228.98226562 -80.015625 229.984375 C-58.49989185 250.02894691 -29.23626053 258.07273516 -0.40820312 257.13623047 C27.65814426 255.54853564 51.81719028 243.04038653 72 224 C72.63808594 223.41476562 73.27617188 222.82953125 73.93359375 222.2265625 C78.73805346 217.66821097 82.41033032 212.54839812 86 207 C86.58910156 206.10539063 87.17820312 205.21078125 87.78515625 204.2890625 C100.75839808 183.47485033 105.52886903 156.87973977 100.53515625 132.8359375 C100.15941222 130.99908692 100.15941222 130.99908692 99 130 C98.86851562 128.97261719 98.73703125 127.94523437 98.6015625 126.88671875 C94.90609935 103.01018737 76.14894402 81.4648187 57.40478516 67.50170898 C13.73834577 35.6878726 -44.62407387 40.75277758 -83 78 Z " fill="#010101" transform="translate(518,327)"/>
<path d="M0 0 C0.66 0.33 1.32 0.66 2 1 C-2.62 5.62 -7.24 10.24 -12 15 C-12 10.39852874 -9.10228152 8.19311408 -6 5 C-4.05341967 3.24193983 -2.06456557 1.62215867 0 0 Z " fill="#1B1C1C" transform="translate(786,388)"/>
<path d="M0 0 C0.66 0.33 1.32 0.66 2 1 C-2.29 5.29 -6.58 9.58 -11 14 C-11.66 13.67 -12.32 13.34 -13 13 C-8.96476648 8.18876004 -4.95532767 3.86757281 0 0 Z " fill="#1A1A1A" transform="translate(226,242)"/>
<path d="M0 0 C0.33 0 0.66 0 1 0 C1 3.3 1 6.6 1 10 C0.67 10 0.34 10 0 10 C0 6.7 0 3.4 0 0 Z " fill="#191718" transform="translate(760,464)"/>
<path d="M0 0 C0.33 0 0.66 0 1 0 C1 1.65 1 3.3 1 5 C0.67 5 0.34 5 0 5 C0 3.35 0 1.7 0 0 Z " fill="#1D1E1E" transform="translate(163,603)"/>
<path d="M0 0 C0.66 1.32 1.32 2.64 2 4 C1.34 3.67 0.68 3.34 0 3 C0 2.01 0 1.02 0 0 Z " fill="#141414" transform="translate(777,292)"/>
<path d="M0 0 C1.65 0 3.3 0 5 0 C5 0.33 5 0.66 5 1 C3.35 1 1.7 1 0 1 C0 0.67 0 0.34 0 0 Z " fill="#171716" transform="translate(266,276)"/>
<path d="M0 0 C0 3 0 3 0 3 Z " fill="#191A19" transform="translate(201,687)"/>
<path d="M0 0 C1 4 1 4 1 4 Z " fill="#141314" transform="translate(355,492)"/>
<path d="M0 0 C0.99 0.33 1.98 0.66 3 1 C2.01 1.33 1.02 1.66 0 2 C0 1.34 0 0.68 0 0 Z " fill="#10100F" transform="translate(421,352)"/>
<path d="M0 0 C3 1 3 1 3 1 Z " fill="#161515" transform="translate(704,725)"/>
<path d="M0 0 C0.66 0.66 1.32 1.32 2 2 C1.34 2 0.68 2 0 2 C0 1.34 0 0.68 0 0 Z " fill="#141413" transform="translate(641,696)"/>
<path d="" fill="#1B1B1A" transform="translate(0,0)"/>
<path d="" fill="#151315" transform="translate(0,0)"/>
<path d="" fill="#141313" transform="translate(0,0)"/>
<path d="M0 0 C3 1 3 1 3 1 Z " fill="#151414" transform="translate(479,328)"/>
<path d="M0 0 C3 1 3 1 3 1 Z " fill="#1E1D1D" transform="translate(446,112)"/>
<path d="M0 0 C2 1 2 1 2 1 Z " fill="#161616" transform="translate(539,808)"/>
<path d="M0 0 C2 1 2 1 2 1 Z " fill="#191918" transform="translate(480,808)"/>
<path d="M0 0 C2 1 2 1 2 1 Z " fill="#141111" transform="translate(477,808)"/>
<path d="" fill="#161514" transform="translate(0,0)"/>
<path d="M0 0 C2 1 2 1 2 1 Z " fill="#141313" transform="translate(400,769)"/>
<path d="M0 0 C2 1 2 1 2 1 Z " fill="#131313" transform="translate(370,749)"/>
<path d="" fill="#1D1D1C" transform="translate(0,0)"/>
<path d="M0 0 C2 1 2 1 2 1 Z " fill="#181818" transform="translate(707,726)"/>
<path d="M0 0 C2 1 2 1 2 1 Z " fill="#1C1B1B" transform="translate(235,726)"/>
<path d="" fill="#1D1D1D" transform="translate(0,0)"/>
<path d="M0 0 C2 1 2 1 2 1 Z " fill="#1C1C1C" transform="translate(171,638)"/>
<path d="M0 0 C2 1 2 1 2 1 Z " fill="#151313" transform="translate(540,631)"/>
<path d="" fill="#131413" transform="translate(0,0)"/>
<path d="" fill="#1D1C1D" transform="translate(0,0)"/>
<path d="" fill="#151514" transform="translate(0,0)"/>
<path d="" fill="#1D1D1E" transform="translate(0,0)"/>
<path d="M0 0 C2 1 2 1 2 1 Z " fill="#121111" transform="translate(538,578)"/>
<path d="M0 0 C2 1 2 1 2 1 Z " fill="#141313" transform="translate(481,578)"/>
<path d="M0 0 C2 1 2 1 2 1 Z " fill="#101211" transform="translate(542,577)"/>
<path d="" fill="#121313" transform="translate(0,0)"/>
<path d="M0 0 C2 1 2 1 2 1 Z " fill="#101010" transform="translate(378,563)"/>
<path d="" fill="#121313" transform="translate(0,0)"/>
<path d="" fill="#111210" transform="translate(0,0)"/>
<path d="" fill="#151414" transform="translate(0,0)"/>
<path d="" fill="#131112" transform="translate(0,0)"/>
<path d="" fill="#131212" transform="translate(0,0)"/>
<path d="" fill="#131310" transform="translate(0,0)"/>
<path d="" fill="#0E0D0F" transform="translate(0,0)"/>
<path d="M0 0 C2 1 2 1 2 1 Z " fill="#171615" transform="translate(208,429)"/>
<path d="" fill="#121114" transform="translate(0,0)"/>
<path d="M0 0 C2 1 2 1 2 1 Z " fill="#131312" transform="translate(380,393)"/>
<path d="" fill="#181818" transform="translate(0,0)"/>
<path d="M0 0 C2 1 2 1 2 1 Z " fill="#121212" transform="translate(541,379)"/>
<path d="M0 0 C2 1 2 1 2 1 Z " fill="#141413" transform="translate(508,375)"/>
<path d="" fill="#151515" transform="translate(0,0)"/>
<path d="" fill="#1D1B1C" transform="translate(0,0)"/>
<path d="M0 0 C2 1 2 1 2 1 Z " fill="#111311" transform="translate(449,337)"/>
<path d="M0 0 C2 1 2 1 2 1 Z " fill="#100F0E" transform="translate(568,336)"/>
<path d="" fill="#141312" transform="translate(0,0)"/>
<path d="" fill="#1D1C1B" transform="translate(0,0)"/>
<path d="M0 0 C2 1 2 1 2 1 Z " fill="#131213" transform="translate(795,325)"/>
<path d="" fill="#171515" transform="translate(0,0)"/>
<path d="M0 0 C2 1 2 1 2 1 Z " fill="#191819" transform="translate(708,287)"/>
<path d="M0 0 C2 1 2 1 2 1 Z " fill="#191918" transform="translate(715,286)"/>
<path d="M0 0 C2 1 2 1 2 1 Z " fill="#1B1A1B" transform="translate(307,286)"/>
<path d="" fill="#191717" transform="translate(0,0)"/>
<path d="M0 0 C2 1 2 1 2 1 Z " fill="#171717" transform="translate(762,278)"/>
<path d="M0 0 C2 1 2 1 2 1 Z " fill="#171618" transform="translate(404,255)"/>
<path d="M0 0 C2 1 2 1 2 1 Z " fill="#1E1E1D" transform="translate(257,227)"/>
<path d="M0 0 C2 1 2 1 2 1 Z " fill="#1B1C1B" transform="translate(752,226)"/>
<path d="" fill="#161514" transform="translate(0,0)"/>
<path d="M0 0 C2 1 2 1 2 1 Z " fill="#161716" transform="translate(568,189)"/>
<path d="M0 0 C2 1 2 1 2 1 Z " fill="#151413" transform="translate(568,187)"/>
<path d="M0 0 C2 1 2 1 2 1 Z " fill="#171717" transform="translate(472,155)"/>
<path d="M0 0 C2 1 2 1 2 1 Z " fill="#1E1E1D" transform="translate(444,113)"/>
<path d="" fill="#1A1918" transform="translate(0,0)"/>
<path d="" fill="#1B1C1C" transform="translate(0,0)"/>
<path d="" fill="#1C1B19" transform="translate(0,0)"/>
<path d="" fill="#1B1B1A" transform="translate(0,0)"/>
<path d="" fill="#1C1A1B" transform="translate(0,0)"/>
<path d="" fill="#191A1B" transform="translate(0,0)"/>
<path d="" fill="#1B1718" transform="translate(0,0)"/>
<path d="" fill="#191918" transform="translate(0,0)"/>
<path d="" fill="#191917" transform="translate(0,0)"/>
<path d="" fill="#171713" transform="translate(0,0)"/>
<path d="" fill="#161513" transform="translate(0,0)"/>
<path d="" fill="#161616" transform="translate(0,0)"/>
<path d="" fill="#161717" transform="translate(0,0)"/>
<path d="" fill="#181915" transform="translate(0,0)"/>
<path d="" fill="#171817" transform="translate(0,0)"/>
<path d="" fill="#181714" transform="translate(0,0)"/>
<path d="" fill="#151412" transform="translate(0,0)"/>
<path d="" fill="#151717" transform="translate(0,0)"/>
<path d="" fill="#141314" transform="translate(0,0)"/>
<path d="" fill="#111212" transform="translate(0,0)"/>
<path d="" fill="#131514" transform="translate(0,0)"/>
<path d="" fill="#141214" transform="translate(0,0)"/>
<path d="" fill="#1A191A" transform="translate(0,0)"/>
<path d="" fill="#141211" transform="translate(0,0)"/>
<path d="" fill="#191718" transform="translate(0,0)"/>
<path d="" fill="#1A1918" transform="translate(0,0)"/>
<path d="" fill="#181515" transform="translate(0,0)"/>
<path d="" fill="#121012" transform="translate(0,0)"/>
<path d="" fill="#161414" transform="translate(0,0)"/>
<path d="" fill="#141413" transform="translate(0,0)"/>
<path d="" fill="#161615" transform="translate(0,0)"/>
<path d="" fill="#131114" transform="translate(0,0)"/>
<path d="" fill="#201F1E" transform="translate(0,0)"/>
<path d="" fill="#19191A" transform="translate(0,0)"/>
<path d="" fill="#1A1819" transform="translate(0,0)"/>
<path d="" fill="#1D1B1B" transform="translate(0,0)"/>
<path d="" fill="#1D1B1C" transform="translate(0,0)"/>
<path d="" fill="#191A18" transform="translate(0,0)"/>
<path d="" fill="#1A1A1A" transform="translate(0,0)"/>
<path d="" fill="#151514" transform="translate(0,0)"/>
<path d="" fill="#181918" transform="translate(0,0)"/>
<path d="" fill="#1D1D1C" transform="translate(0,0)"/>
<path d="" fill="#181618" transform="translate(0,0)"/>
<path d="" fill="#111213" transform="translate(0,0)"/>
<path d="" fill="#171717" transform="translate(0,0)"/>
<path d="" fill="#171716" transform="translate(0,0)"/>
<path d="" fill="#171516" transform="translate(0,0)"/>
<path d="" fill="#1B1D1D" transform="translate(0,0)"/>
<path d="" fill="#191819" transform="translate(0,0)"/>
<path d="" fill="#191817" transform="translate(0,0)"/>
<path d="" fill="#151716" transform="translate(0,0)"/>
<path d="" fill="#131310" transform="translate(0,0)"/>
<path d="" fill="#141515" transform="translate(0,0)"/>
<path d="" fill="#191618" transform="translate(0,0)"/>
<path d="" fill="#151615" transform="translate(0,0)"/>
<path d="" fill="#1C1B1B" transform="translate(0,0)"/>
<path d="" fill="#1A191B" transform="translate(0,0)"/>
<path d="" fill="#1B1A1A" transform="translate(0,0)"/>
<path d="" fill="#151312" transform="translate(0,0)"/>
<path d="" fill="#151414" transform="translate(0,0)"/>
<path d="" fill="#191B1A" transform="translate(0,0)"/>
<path d="" fill="#171615" transform="translate(0,0)"/>
<path d="" fill="#181816" transform="translate(0,0)"/>
<path d="" fill="#141412" transform="translate(0,0)"/>
<path d="" fill="#161516" transform="translate(0,0)"/>
<path d="" fill="#181816" transform="translate(0,0)"/>
<path d="" fill="#191818" transform="translate(0,0)"/>
<path d="" fill="#1B1B1A" transform="translate(0,0)"/>
<path d="" fill="#141615" transform="translate(0,0)"/>
<path d="" fill="#171614" transform="translate(0,0)"/>
<path d="" fill="#1D1D1C" transform="translate(0,0)"/>
<path d="" fill="#191B19" transform="translate(0,0)"/>
<path d="" fill="#191C1A" transform="translate(0,0)"/>
<path d="" fill="#181A17" transform="translate(0,0)"/>
<path d="" fill="#191918" transform="translate(0,0)"/>
<path d="" fill="#151514" transform="translate(0,0)"/>
<path d="" fill="#171515" transform="translate(0,0)"/>
<path d="" fill="#171818" transform="translate(0,0)"/>
<path d="" fill="#181817" transform="translate(0,0)"/>
<path d="" fill="#161814" transform="translate(0,0)"/>
<path d="" fill="#151616" transform="translate(0,0)"/>
<path d="" fill="#1B1B1A" transform="translate(0,0)"/>
<path d="" fill="#1A1918" transform="translate(0,0)"/>
<path d="" fill="#161514" transform="translate(0,0)"/>
<path d="" fill="#181818" transform="translate(0,0)"/>
<path d="" fill="#131112" transform="translate(0,0)"/>
<path d="" fill="#121212" transform="translate(0,0)"/>
<path d="" fill="#161417" transform="translate(0,0)"/>
<path d="" fill="#1F1E1F" transform="translate(0,0)"/>
<path d="" fill="#141314" transform="translate(0,0)"/>
<path d="" fill="#191B1B" transform="translate(0,0)"/>
<path d="" fill="#151412" transform="translate(0,0)"/>
<path d="" fill="#171614" transform="translate(0,0)"/>
<path d="" fill="#131212" transform="translate(0,0)"/>
<path d="" fill="#1C1D1D" transform="translate(0,0)"/>
<path d="" fill="#151313" transform="translate(0,0)"/>
<path d="" fill="#141611" transform="translate(0,0)"/>
<path d="" fill="#181614" transform="translate(0,0)"/>
<path d="" fill="#161514" transform="translate(0,0)"/>
<path d="" fill="#161715" transform="translate(0,0)"/>
<path d="" fill="#151413" transform="translate(0,0)"/>
<path d="" fill="#17181A" transform="translate(0,0)"/>
<path d="" fill="#141514" transform="translate(0,0)"/>
<path d="" fill="#161515" transform="translate(0,0)"/>
<path d="" fill="#181617" transform="translate(0,0)"/>
<path d="" fill="#151412" transform="translate(0,0)"/>
<path d="" fill="#1D1C1C" transform="translate(0,0)"/>
<path d="" fill="#141414" transform="translate(0,0)"/>
<path d="" fill="#181614" transform="translate(0,0)"/>
<path d="" fill="#1E1D1E" transform="translate(0,0)"/>
<path d="" fill="#1E1D1E" transform="translate(0,0)"/>
<path d="" fill="#1E1D1C" transform="translate(0,0)"/>
<path d="" fill="#131214" transform="translate(0,0)"/>
<path d="" fill="#1B1C1D" transform="translate(0,0)"/>
<path d="" fill="#111413" transform="translate(0,0)"/>
<path d="" fill="#0F1210" transform="translate(0,0)"/>
<path d="" fill="#161414" transform="translate(0,0)"/>
<path d="" fill="#1C1B1C" transform="translate(0,0)"/>
<path d="" fill="#141314" transform="translate(0,0)"/>
<path d="" fill="#131314" transform="translate(0,0)"/>
<path d="" fill="#131313" transform="translate(0,0)"/>
<path d="" fill="#121411" transform="translate(0,0)"/>
<path d="" fill="#141413" transform="translate(0,0)"/>
<path d="" fill="#131111" transform="translate(0,0)"/>
<path d="" fill="#181919" transform="translate(0,0)"/>
<path d="" fill="#1D1E1E" transform="translate(0,0)"/>
<path d="" fill="#111011" transform="translate(0,0)"/>
<path d="" fill="#141110" transform="translate(0,0)"/>
<path d="" fill="#0F1311" transform="translate(0,0)"/>
<path d="" fill="#12100E" transform="translate(0,0)"/>
<path d="" fill="#1A1B1B" transform="translate(0,0)"/>
<path d="" fill="#131314" transform="translate(0,0)"/>
<path d="" fill="#111210" transform="translate(0,0)"/>
<path d="" fill="#151513" transform="translate(0,0)"/>
<path d="" fill="#111212" transform="translate(0,0)"/>
<path d="" fill="#191A1B" transform="translate(0,0)"/>
<path d="" fill="#1E1E1D" transform="translate(0,0)"/>
<path d="" fill="#1B1A18" transform="translate(0,0)"/>
<path d="" fill="#1A1818" transform="translate(0,0)"/>
<path d="" fill="#131212" transform="translate(0,0)"/>
<path d="" fill="#121112" transform="translate(0,0)"/>
<path d="" fill="#101111" transform="translate(0,0)"/>
<path d="" fill="#181A19" transform="translate(0,0)"/>
<path d="" fill="#1C1B1B" transform="translate(0,0)"/>
<path d="" fill="#181A18" transform="translate(0,0)"/>
<path d="" fill="#1A1817" transform="translate(0,0)"/>
<path d="" fill="#121211" transform="translate(0,0)"/>
<path d="" fill="#181819" transform="translate(0,0)"/>
<path d="" fill="#151817" transform="translate(0,0)"/>
<path d="" fill="#191918" transform="translate(0,0)"/>
<path d="" fill="#1A1A19" transform="translate(0,0)"/>
<path d="" fill="#181818" transform="translate(0,0)"/>
<path d="" fill="#181A18" transform="translate(0,0)"/>
<path d="" fill="#131313" transform="translate(0,0)"/>
<path d="" fill="#131515" transform="translate(0,0)"/>
<path d="" fill="#121313" transform="translate(0,0)"/>
<path d="" fill="#10100F" transform="translate(0,0)"/>
<path d="" fill="#151214" transform="translate(0,0)"/>
<path d="" fill="#151515" transform="translate(0,0)"/>
<path d="" fill="#131412" transform="translate(0,0)"/>
<path d="" fill="#131515" transform="translate(0,0)"/>
<path d="" fill="#151514" transform="translate(0,0)"/>
<path d="" fill="#151614" transform="translate(0,0)"/>
<path d="" fill="#141212" transform="translate(0,0)"/>
<path d="" fill="#131113" transform="translate(0,0)"/>
<path d="" fill="#141112" transform="translate(0,0)"/>
<path d="" fill="#161513" transform="translate(0,0)"/>
<path d="" fill="#141314" transform="translate(0,0)"/>
<path d="" fill="#151515" transform="translate(0,0)"/>
<path d="" fill="#121113" transform="translate(0,0)"/>
<path d="" fill="#161616" transform="translate(0,0)"/>
<path d="" fill="#151315" transform="translate(0,0)"/>
<path d="" fill="#121313" transform="translate(0,0)"/>
<path d="" fill="#141314" transform="translate(0,0)"/>
<path d="" fill="#121110" transform="translate(0,0)"/>
<path d="" fill="#141415" transform="translate(0,0)"/>
<path d="" fill="#1A1819" transform="translate(0,0)"/>
<path d="" fill="#191518" transform="translate(0,0)"/>
<path d="" fill="#141512" transform="translate(0,0)"/>
<path d="" fill="#151312" transform="translate(0,0)"/>
<path d="" fill="#141313" transform="translate(0,0)"/>
<path d="" fill="#19191A" transform="translate(0,0)"/>
<path d="" fill="#171617" transform="translate(0,0)"/>
<path d="" fill="#131214" transform="translate(0,0)"/>
<path d="" fill="#151415" transform="translate(0,0)"/>
<path d="" fill="#141415" transform="translate(0,0)"/>
<path d="" fill="#1A181A" transform="translate(0,0)"/>
<path d="" fill="#151415" transform="translate(0,0)"/>
<path d="" fill="#151413" transform="translate(0,0)"/>
<path d="" fill="#181817" transform="translate(0,0)"/>
<path d="" fill="#101211" transform="translate(0,0)"/>
<path d="" fill="#131312" transform="translate(0,0)"/>
<path d="" fill="#121012" transform="translate(0,0)"/>
<path d="" fill="#11100E" transform="translate(0,0)"/>
<path d="" fill="#100F0F" transform="translate(0,0)"/>
<path d="" fill="#13100F" transform="translate(0,0)"/>
<path d="" fill="#141613" transform="translate(0,0)"/>
<path d="" fill="#161816" transform="translate(0,0)"/>
<path d="" fill="#171615" transform="translate(0,0)"/>
<path d="" fill="#161716" transform="translate(0,0)"/>
<path d="" fill="#171818" transform="translate(0,0)"/>
<path d="" fill="#11120F" transform="translate(0,0)"/>
<path d="" fill="#121414" transform="translate(0,0)"/>
<path d="" fill="#10110F" transform="translate(0,0)"/>
<path d="" fill="#161617" transform="translate(0,0)"/>
<path d="" fill="#161919" transform="translate(0,0)"/>
<path d="" fill="#171717" transform="translate(0,0)"/>
<path d="" fill="#1A1918" transform="translate(0,0)"/>
<path d="" fill="#1B1917" transform="translate(0,0)"/>
<path d="" fill="#191B18" transform="translate(0,0)"/>
<path d="" fill="#111212" transform="translate(0,0)"/>
<path d="" fill="#181515" transform="translate(0,0)"/>
<path d="" fill="#11100F" transform="translate(0,0)"/>
<path d="" fill="#181616" transform="translate(0,0)"/>
<path d="" fill="#151514" transform="translate(0,0)"/>
<path d="" fill="#151413" transform="translate(0,0)"/>
<path d="" fill="#131211" transform="translate(0,0)"/>
<path d="" fill="#151213" transform="translate(0,0)"/>
<path d="" fill="#1A1A18" transform="translate(0,0)"/>
<path d="" fill="#141411" transform="translate(0,0)"/>
<path d="" fill="#1B1A1A" transform="translate(0,0)"/>
<path d="" fill="#141310" transform="translate(0,0)"/>
<path d="" fill="#131312" transform="translate(0,0)"/>
<path d="" fill="#131212" transform="translate(0,0)"/>
<path d="" fill="#161616" transform="translate(0,0)"/>
<path d="" fill="#121312" transform="translate(0,0)"/>
<path d="" fill="#171716" transform="translate(0,0)"/>
<path d="" fill="#1A1D1C" transform="translate(0,0)"/>
<path d="" fill="#1A1B1B" transform="translate(0,0)"/>
<path d="" fill="#131215" transform="translate(0,0)"/>
<path d="" fill="#141314" transform="translate(0,0)"/>
<path d="" fill="#0F0F0E" transform="translate(0,0)"/>
<path d="" fill="#151314" transform="translate(0,0)"/>
<path d="" fill="#151514" transform="translate(0,0)"/>
<path d="" fill="#141415" transform="translate(0,0)"/>
<path d="" fill="#141412" transform="translate(0,0)"/>
<path d="" fill="#121111" transform="translate(0,0)"/>
<path d="" fill="#151413" transform="translate(0,0)"/>
<path d="" fill="#0F0F0E" transform="translate(0,0)"/>
<path d="" fill="#1E1F1E" transform="translate(0,0)"/>
<path d="" fill="#0E0F0D" transform="translate(0,0)"/>
<path d="" fill="#110F0E" transform="translate(0,0)"/>
<path d="" fill="#121211" transform="translate(0,0)"/>
<path d="" fill="#151614" transform="translate(0,0)"/>
<path d="" fill="#12120F" transform="translate(0,0)"/>
<path d="" fill="#131311" transform="translate(0,0)"/>
<path d="" fill="#161617" transform="translate(0,0)"/>
<path d="" fill="#121212" transform="translate(0,0)"/>
<path d="" fill="#110F0E" transform="translate(0,0)"/>
<path d="" fill="#111311" transform="translate(0,0)"/>
<path d="" fill="#131111" transform="translate(0,0)"/>
<path d="" fill="#181718" transform="translate(0,0)"/>
<path d="" fill="#110F0D" transform="translate(0,0)"/>
<path d="" fill="#181613" transform="translate(0,0)"/>
<path d="" fill="#141510" transform="translate(0,0)"/>
<path d="" fill="#121213" transform="translate(0,0)"/>
<path d="" fill="#0F0E0E" transform="translate(0,0)"/>
<path d="" fill="#131011" transform="translate(0,0)"/>
<path d="" fill="#141514" transform="translate(0,0)"/>
<path d="" fill="#1D1B1C" transform="translate(0,0)"/>
<path d="" fill="#151312" transform="translate(0,0)"/>
<path d="" fill="#1A1717" transform="translate(0,0)"/>
<path d="" fill="#171818" transform="translate(0,0)"/>
<path d="" fill="#161515" transform="translate(0,0)"/>
<path d="" fill="#161314" transform="translate(0,0)"/>
<path d="" fill="#1A1A1B" transform="translate(0,0)"/>
<path d="" fill="#191917" transform="translate(0,0)"/>
<path d="" fill="#141315" transform="translate(0,0)"/>
<path d="" fill="#141513" transform="translate(0,0)"/>
<path d="" fill="#1A1917" transform="translate(0,0)"/>
<path d="" fill="#1D1B1B" transform="translate(0,0)"/>
<path d="" fill="#191919" transform="translate(0,0)"/>
<path d="" fill="#1A1716" transform="translate(0,0)"/>
<path d="" fill="#171616" transform="translate(0,0)"/>
<path d="" fill="#121311" transform="translate(0,0)"/>
<path d="" fill="#191716" transform="translate(0,0)"/>
<path d="" fill="#151317" transform="translate(0,0)"/>
<path d="" fill="#1B1D1A" transform="translate(0,0)"/>
<path d="" fill="#181918" transform="translate(0,0)"/>
<path d="" fill="#1A1A18" transform="translate(0,0)"/>
<path d="" fill="#141411" transform="translate(0,0)"/>
<path d="" fill="#171516" transform="translate(0,0)"/>
<path d="" fill="#181918" transform="translate(0,0)"/>
<path d="" fill="#171A18" transform="translate(0,0)"/>
<path d="" fill="#171618" transform="translate(0,0)"/>
<path d="" fill="#151413" transform="translate(0,0)"/>
<path d="" fill="#181818" transform="translate(0,0)"/>
<path d="" fill="#161515" transform="translate(0,0)"/>
<path d="" fill="#191917" transform="translate(0,0)"/>
<path d="" fill="#181615" transform="translate(0,0)"/>
<path d="" fill="#151614" transform="translate(0,0)"/>
<path d="" fill="#1A1817" transform="translate(0,0)"/>
<path d="" fill="#181716" transform="translate(0,0)"/>
<path d="" fill="#161617" transform="translate(0,0)"/>
<path d="" fill="#151513" transform="translate(0,0)"/>
<path d="" fill="#151411" transform="translate(0,0)"/>
<path d="" fill="#151313" transform="translate(0,0)"/>
<path d="" fill="#191717" transform="translate(0,0)"/>
<path d="" fill="#171516" transform="translate(0,0)"/>
<path d="" fill="#1B1B19" transform="translate(0,0)"/>
<path d="" fill="#161417" transform="translate(0,0)"/>
<path d="" fill="#161615" transform="translate(0,0)"/>
<path d="" fill="#1E1E1F" transform="translate(0,0)"/>
<path d="" fill="#1C1B1B" transform="translate(0,0)"/>
<path d="" fill="#181815" transform="translate(0,0)"/>
<path d="" fill="#151314" transform="translate(0,0)"/>
<path d="" fill="#171513" transform="translate(0,0)"/>
<path d="" fill="#121412" transform="translate(0,0)"/>
<path d="" fill="#1B1919" transform="translate(0,0)"/>
<path d="" fill="#181B19" transform="translate(0,0)"/>
<path d="" fill="#181817" transform="translate(0,0)"/>
<path d="" fill="#171415" transform="translate(0,0)"/>
<path d="" fill="#191516" transform="translate(0,0)"/>
<path d="" fill="#181915" transform="translate(0,0)"/>
<path d="" fill="#1A1916" transform="translate(0,0)"/>
<path d="" fill="#161314" transform="translate(0,0)"/>
<path d="" fill="#171816" transform="translate(0,0)"/>
<path d="" fill="#1D1C1D" transform="translate(0,0)"/>
<path d="" fill="#181A17" transform="translate(0,0)"/>
<path d="" fill="#1E1E1D" transform="translate(0,0)"/>
<path d="" fill="#1A1B1C" transform="translate(0,0)"/>
<path d="" fill="#1D1E1C" transform="translate(0,0)"/>
<path d="" fill="#1A1A1A" transform="translate(0,0)"/>
<path d="" fill="#141412" transform="translate(0,0)"/>
<path d="" fill="#1D1C1B" transform="translate(0,0)"/>
<path d="" fill="#1D1F1E" transform="translate(0,0)"/>
<path d="" fill="#1C1F1D" transform="translate(0,0)"/>
<path d="" fill="#1F1D1B" transform="translate(0,0)"/>
<path d="" fill="#171515" transform="translate(0,0)"/>
<path d="" fill="#161616" transform="translate(0,0)"/>
<path d="" fill="#141517" transform="translate(0,0)"/>
<path d="" fill="#161317" transform="translate(0,0)"/>
<path d="" fill="#191819" transform="translate(0,0)"/>
<path d="" fill="#161514" transform="translate(0,0)"/>
<path d="" fill="#151614" transform="translate(0,0)"/>
<path d="" fill="#121415" transform="translate(0,0)"/>
<path d="" fill="#171616" transform="translate(0,0)"/>
<path d="" fill="#171816" transform="translate(0,0)"/>
<path d="" fill="#141113" transform="translate(0,0)"/>
<path d="" fill="#171717" transform="translate(0,0)"/>
<path d="" fill="#181514" transform="translate(0,0)"/>
<path d="" fill="#191716" transform="translate(0,0)"/>
<path d="" fill="#171617" transform="translate(0,0)"/>
<path d="" fill="#181614" transform="translate(0,0)"/>
<path d="" fill="#161616" transform="translate(0,0)"/>
<path d="" fill="#191918" transform="translate(0,0)"/>
<path d="" fill="#1C1C1C" transform="translate(0,0)"/>
<path d="" fill="#1A1A1B" transform="translate(0,0)"/>
<path d="" fill="#161717" transform="translate(0,0)"/>
<path d="" fill="#1B1C1E" transform="translate(0,0)"/>
<path d="" fill="#1D1C1C" transform="translate(0,0)"/>
<path d="" fill="#1C1E1D" transform="translate(0,0)"/>
<path d="" fill="#211F1D" transform="translate(0,0)"/>
<path d="" fill="#1D1D1C" transform="translate(0,0)"/>
<path d="" fill="#202222" transform="translate(0,0)"/>
<path d="" fill="#1D1C1C" transform="translate(0,0)"/>
<path d="" fill="#232022" transform="translate(0,0)"/>
<path d="" fill="#221F1F" transform="translate(0,0)"/>
</svg>
